<?xml version="1.0" encoding="utf-8"?>
<!-- Generator: Adobe Illustrator 23.0.5, SVG Export Plug-In . SVG Version: 6.00 Build 0)  -->
<svg version="1.1" id="Capa_1" xmlns="http://www.w3.org/2000/svg" xmlns:xlink="http://www.w3.org/1999/xlink" x="0px" y="0px"
	 viewBox="0 0 81.66 5.02" style="enable-background:new 0 0 81.66 5.02;" xml:space="preserve">
<style type="text/css">
	.st0{fill:#F9DF1F;}
</style>
<g>
	<path class="st0" d="M81.54,2.09c0.12,0.04,0.1-0.25,0.12-0.3C81.45,1.84,81.53,2.16,81.54,2.09z"/>
	<polygon class="st0" points="79.49,2.55 79.54,2.44 79.22,2.69 	"/>
	<path class="st0" d="M77.64,2.38c0.14,0.49,0.68-0.02,0.99,0.18l0.05,0.11l0.18-0.37C78.45,2.33,77.91,2.54,77.64,2.38z"/>
	<path class="st0" d="M76.73,1.27c0.05,0.19-0.23,0.14,0.23,0.08c-0.02-0.02-0.03-0.03-0.04-0.05C76.88,1.29,76.83,1.29,76.73,1.27z
		"/>
	<path class="st0" d="M76.92,1.29C77.12,1.3,76.81,1.13,76.92,1.29L76.92,1.29z"/>
	<path class="st0" d="M76.01,1.33l0.27-0.15c-0.05-0.11-0.27-0.16-0.18-0.23C75.82,1.02,75.87,1.14,76.01,1.33z"/>
	<path class="st0" d="M75.74,1.66l0.14-0.06C75.85,1.55,75.82,1.53,75.74,1.66z"/>
	<path class="st0" d="M76.17,1.47l-0.3,0.13c0.03,0.08,0.02,0.24,0.13-0.04C75.97,1.7,76.04,1.56,76.17,1.47z"/>
	<path class="st0" d="M76.32,1.56c0.14,0.12,0.32,0.2,0.05,0.34C76.87,1.87,76.82,1.53,76.32,1.56z"/>
	<path class="st0" d="M77.5,2.87l0.18,0.16l0.18-0.15C77.77,2.95,77.5,2.72,77.5,2.87z"/>
	<path class="st0" d="M74.42,0.96c-0.02,0.1,0.07,0.28,0.08,0.41l0.2-0.1C74.6,1.19,74.42,1.11,74.42,0.96z"/>
	<path class="st0" d="M74.49,1.37l-0.3,0.15C74.45,1.56,74.5,1.48,74.49,1.37z"/>
	<polygon class="st0" points="75.65,2.19 76.14,1.86 75.56,2.19 	"/>
	<polygon class="st0" points="73.33,0.87 73.51,0.64 73.19,0.98 	"/>
	<path class="st0" d="M72.6,0.86c0.13-0.19-0.14-0.34-0.01-0.45c-0.2,0.02-0.38,0.18-0.54,0.32C72.22,0.65,72.39,0.68,72.6,0.86z"/>
	<path class="st0" d="M71.79,0.92c0.08-0.04,0.17-0.12,0.27-0.2C71.97,0.76,71.88,0.82,71.79,0.92z"/>
	<path class="st0" d="M73.71,1.44c-0.02-0.06-0.05-0.23-0.2-0.31l0.09,0.29C73.64,1.43,73.67,1.43,73.71,1.44z"/>
	<path class="st0" d="M73.61,1.43L73.61,1.43c-0.12-0.03-0.21-0.04-0.24-0.04C73.39,1.4,73.46,1.41,73.61,1.43z"/>
	<path class="st0" d="M73.74,1.44l-0.03,0C73.72,1.46,73.73,1.47,73.74,1.44z"/>
	<path class="st0" d="M74.92,1.87c-0.18,0.15-0.54,0.29-0.22,0.56C74.83,2.25,74.65,2.09,74.92,1.87z"/>
	<path class="st0" d="M73.86,1.81l0.3,0.09c0-0.08-0.05-0.19,0.04-0.26L73.86,1.81z"/>
	<polygon class="st0" points="73.7,1.89 73.86,1.81 73.74,1.78 	"/>
	<path class="st0" d="M72.29,1.23C72.15,1.34,72,1.34,71.84,1.35c0.17,0.07,0.35,0.11,0.52,0.12C72.39,1.39,72.47,1.23,72.29,1.23z"
		/>
	<path class="st0" d="M72.93,1.35L72.9,1.37C72.91,1.39,72.93,1.4,72.93,1.35z"/>
	<polygon class="st0" points="70.25,1.25 70.27,1.3 70.28,1.25 	"/>
	<path class="st0" d="M72.38,1.53c0.13,0.06,0.21,0,0.29-0.08c-0.1,0.02-0.2,0.03-0.31,0.03C72.34,1.52,72.34,1.54,72.38,1.53z"/>
	<path class="st0" d="M71.33,1.03c0.06,0.06,0.14,0.12,0.22,0.17C71.49,1.1,71.36,0.95,71.33,1.03z"/>
	<path class="st0" d="M72.86,1.28l0.02-0.01C72.84,1.21,72.84,1.24,72.86,1.28z"/>
	<path class="st0" d="M72.86,1.28c-0.07,0.04-0.13,0.1-0.18,0.16c0.08-0.02,0.16-0.04,0.22-0.08C72.88,1.35,72.87,1.31,72.86,1.28z"
		/>
	<path class="st0" d="M69.65,3.06c0.04-0.26,0.4-0.49,0.67-0.18c0.3-0.18,0.17-1.07-0.05-1.57c-0.02,0.12-0.02,0.22-0.33,0.36
		c0.1,0.15,0.64,0.38,0.37,0.61C69.91,2.38,70,2.15,69.81,2c0.14,0.34-0.53,0.45-0.48,0.94l0.36-0.15
		C69.69,2.87,69.56,2.98,69.65,3.06z"/>
	<path class="st0" d="M70.84,1.36l0.13-0.03c-0.14-0.06-0.23-0.17-0.4-0.39c-0.21,0.12-0.26,0.21-0.28,0.3l0.6,0.08L70.84,1.36z"/>
	<path class="st0" d="M71.52,1.37c-0.12,0.28-0.42,0.39-0.26,0.71c0.36,0,0.27-0.22,0.49-0.34c-0.59,0.03,0.18-0.15-0.23-0.34
		c0.12-0.04,0.22-0.05,0.32-0.05c-0.1-0.04-0.2-0.09-0.29-0.15l0.01,0.02l0,0l0,0c0.02,0.04,0.03,0.06,0,0.04l-0.01,0.01
		C71.55,1.31,71.53,1.34,71.52,1.37C71.35,1.3,71.5,1.3,71.55,1.27l0.01-0.04l0,0l-0.59,0.12C71.09,1.39,71.24,1.39,71.52,1.37z"/>
	<path class="st0" d="M74.34,3.03c-0.02-0.03-0.01-0.05-0.01-0.07C74.29,3,74.27,3.02,74.34,3.03z"/>
	<path class="st0" d="M74.12,2.84c0.05-0.04,0.09-0.15,0.22-0.11c0.11,0.1-0.01,0.14-0.01,0.23c0.09-0.07,0.31-0.19,0.06-0.35
		l-0.04,0.04c-0.23-0.12-0.5-0.5-0.46-0.54C73.93,2.38,73.98,2.57,74.12,2.84z"/>
	<path class="st0" d="M72.8,2.18l-0.5,0.11l0.23,0.27l0-0.15C72.8,2.48,72.76,2.29,72.8,2.18z"/>
	<polygon class="st0" points="70.2,1.1 70.29,0.8 69.98,1.21 	"/>
	<polygon class="st0" points="69.57,1.1 69.61,0.83 69.43,0.98 	"/>
	<path class="st0" d="M33.89,3.66l-0.14,0.08C33.81,3.71,33.86,3.68,33.89,3.66z"/>
	<path class="st0" d="M34.92,3.66l0.02-0.13C34.89,3.6,34.88,3.65,34.92,3.66z"/>
	<path class="st0" d="M54.02,0.45c-0.2-0.25-0.43-0.65-0.41-0.35l0.06,0.29C53.81,0.35,53.92,0.39,54.02,0.45z"/>
	<path class="st0" d="M43.36,2.05l0.06,0.09c0.05-0.1,0.1-0.19,0.14-0.28C43.5,1.92,43.43,1.98,43.36,2.05z"/>
	<path class="st0" d="M43.21,3.26l-0.27-0.19C43,3.14,43.09,3.2,43.21,3.26z"/>
	<path class="st0" d="M28.28,4.1l-0.16,0.3C28.38,4.39,28.26,4.25,28.28,4.1z"/>
	<path class="st0" d="M63.08,0.85c-0.17-0.12-0.32-0.18-0.44-0.2C62.85,0.83,63.01,1.09,63.08,0.85z"/>
	<path class="st0" d="M34.24,0.55c-0.09,0.05-0.12,0.11-0.12,0.18C34.21,0.68,34.26,0.62,34.24,0.55z"/>
	<path class="st0" d="M62.12,0.64c0.03,0.03,0.06,0.05,0.09,0.07c0.13-0.04,0.27-0.08,0.43-0.05C62.49,0.53,62.31,0.44,62.12,0.64z"
		/>
	<path class="st0" d="M7.91,4.95C7.89,4.94,7.88,4.93,7.86,4.92C7.86,4.96,7.88,4.96,7.91,4.95z"/>
	<path class="st0" d="M1.72,2.52c0.06-0.02,0.15-0.03,0.24-0.05C1.92,2.46,1.85,2.47,1.72,2.52z"/>
	<path class="st0" d="M67.03,0.82C67.16,0.81,67.05,0.79,67.03,0.82L67.03,0.82z"/>
	<path class="st0" d="M67.62,2.01c-0.03,0.03-0.05,0.07-0.06,0.14C67.57,2.08,67.59,2.04,67.62,2.01z"/>
	<path class="st0" d="M60.71,2.39l-0.01,0C60.73,2.45,60.73,2.44,60.71,2.39z"/>
	<path class="st0" d="M67.22,0.96c-0.05-0.04-0.1-0.07-0.17-0.1C67.08,0.89,67.13,0.92,67.22,0.96z"/>
	<path class="st0" d="M67.2,0.82c0.05,0.01,0.08,0.02,0.12,0.03C67.34,0.81,67.33,0.78,67.2,0.82z"/>
	<path class="st0" d="M66.84,0.83c0.08,0,0.15,0.02,0.22,0.04c-0.03-0.02-0.04-0.04-0.03-0.05C66.99,0.82,66.93,0.82,66.84,0.83z"/>
	<path class="st0" d="M18.77,3.46c-0.01-0.01-0.02-0.01-0.03-0.03C18.61,3.57,18.67,3.54,18.77,3.46z"/>
	<path class="st0" d="M50.47,3.41c0.01,0,0.01-0.01,0.02-0.01l-0.02-0.01L50.47,3.41z"/>
	<path class="st0" d="M49.99,3.62c0.21-0.36,0.33-0.31,0.48-0.23l-0.14-0.84L49.99,3.62z"/>
	<path class="st0" d="M31.43,3.79l0.34,0.25c-0.4,0.44-0.69,0.3-0.37,0.66c0.03-0.91,1.3-0.12,1.33-1.04l0.23,0.19
		c-0.06-0.01-0.07,0.05-0.14,0.04c0.44,0.43,0.31-0.67,0.87-0.55c0.2,0.07,0.33,0.2,0.2,0.31l0.43-0.23
		c0.13,0.02,0.1,0.17-0.03,0.16l0.66-0.08l0,0.03c0.09-0.15,0.3-0.37,0.4-0.47c0.17,0.13-0.08,0.1-0.04,0.21l0.36-0.23
		c0.15,0.23-0.15,0.47-0.4,0.44c0.35,0.91,0.3-0.24,1.04,0.29l-0.34,0.12c0.23,0.52,0.49,0.32,0.89,0.64
		c-0.09-0.17-0.79-0.81-0.4-1.04c0.11,0.07,0.26,0.1,0.47-0.09c0.01,0.32,0.21,0.24,0.47,0.22l-0.01,0.43
		c0.28-0.13,0.26-0.35,0.42-0.54c0.31,0.04,0.38,0.37,0.46,0.65c0.5,0.07-0.35-0.53,0.24-0.62c0.42,0.16,0.71-0.02,1.21-0.28
		c0.29,0.15-0.05,0.26,0.06,0.39l0.26-0.34c0.06,0.01,0.04,0.11,0.03,0.17c0.22-0.13,0.02-0.43,0.36-0.55
		c0.09-0.47,0.71,0.69,1.13,0.15c0.11,0.12-0.05,0.26-0.02,0.43c0.58-0.35,0.5-0.26,0.98-0.73l0.41,0.28
		c-0.3-0.32,0.08-0.71,0.42-1.02c-0.11-0.16-0.2-0.29-0.26-0.36l0.54-0.23c0.06,0.07,0.01,0.22-0.08,0.4
		c0.03-0.04,0.07-0.07,0.1-0.1c0.19,0.16,0.09,0.41-0.05,0.65c-0.06-0.09-0.13-0.18-0.19-0.27c-0.13,0.26-0.26,0.55-0.23,0.8
		c0.04-0.05,0.1-0.09,0.18-0.12C43.33,2.9,43.31,2.96,43.32,3c0.02,0.05,0.07-0.05,0.16-0.16l0.12,0.48l0.03-0.19l0.7,0.3
		c0.5-0.48,0.95-1.19,1.75-1.38c-0.2,0.35-0.05,0.57-0.06,0.99c-0.21-0.44-0.62,0.18-1.03,0.09c0.22,0.05,0.17,0.25,0.11,0.32
		l0.74-0.4C45.82,3.4,46,3.31,46.19,3.45c-0.14-0.67,0.55-0.45,0.86-0.65c0.02,0.23-0.06,0.46-0.42,0.4
		c0.4,0.51,0.53-0.79,0.92-0.35c-0.09,0-0.14-0.03-0.17,0.08c0.21-0.2,0.72-0.03,0.6,0.16l-0.09,0c0.59,0.09,1.8,0.03,1.9-0.54
		c0,0.07-0.09,0.69-0.13,0.8l1.09-1.91c-0.1,0.49,0.23,1.67-0.26,1.94c0.14,0.07,0.31,0.16,0.61-0.01C51,3.31,50.87,2.67,51,2.63
		c0.35,0.55,0.25,0.3,0.68,0.77c-0.14-0.11,0.03-0.88,0.26-0.85c-0.04,0.11,0,0.76-0.08,0.84l0.58-0.75
		c-0.14,0.13-0.04,0.64,0.08,0.86c-0.06-0.15,0.49,0.03,0.64-0.05l-0.24-0.18c0.64,0.13,0.66-1.05,1.3-0.99
		c-0.08,0.15-0.22,0.96,0.11,1.06c0.16-0.38,0.71-1.85,1.28-2.13l0.1,0.22l0.44-0.24c-0.29,0.57-1.08,1.78-1.5,2.25
		c0.23,0.18,0.06,0.26,0.42,0.25c0.12,0.21-0.2,0.31-0.31,0.32l0.83,0.16c-0.02-0.45,0.65-0.43,0.63-0.81l-0.92,0.44
		c-0.02-0.45,0.56-1.27,1.15-1.17c0.15,0.18-0.14,0.8-0.13,0.95c0.08-0.15,0.57-0.28,0.62-0.17L56.7,3.66
		c0.32,0.18,0.56-0.58,0.94-0.14c0.14,0.03,0.39,0.6,0.42,0.33c-0.2-0.52-0.19-2.12-0.03-2.5c0.05,0.04,0.7,0.52,0.85,0.78
		c0.21,0.41-0.37,0.95-0.19,1.31c0.01-0.12,0.14-0.27,0.2-0.32c0.14,0.11-0.07,0.38,0.24,0.34c0.07-0.46,0.63,0.06,0.16-0.38
		c0.31-0.12,0.32,0.11,0.68,0.1c-0.1-0.3,0.36-1,0.67-1.11c-0.02,0.12,0.04,0.27,0.07,0.34c0.63,0.07,0.95,0.29,1.54,0.32
		c0.05,0.11,0.32,0.26,0.2,0.45c0.09-0.08,0.17-0.23,0.35-0.23c0.33,0.41-0.4,0.04-0.16,0.53c0.03-0.27,0.48-0.35,0.75-0.5
		c-0.06-0.41-0.59-0.1-0.85,0.05c0.02-0.57,0.5-1.14,1.12-1.38c0.49-0.12,0.19,0.38,0.28,0.3c0.91,0.15,0.83-0.95,1.57-0.5
		c0.28,0.38-0.02,0.72,0.03,0.98c-0.4,0.12-0.6-0.26-0.87-0.26l0.32,0.19c-0.13,0.11-0.4,0.19-0.54,0.08
		c0.24,0.34,1.54,0.14,2.23,0.48c0.13-0.11,0.35-0.23,0.26-0.38l-0.23,0.04c-0.19-0.3,0.44-0.38,0.17-0.53
		c0.31-0.19,0.66-0.49,1.08-0.3l0.06,0.42c0-0.12-0.26-0.26-0.39-0.14c0.19-0.17,0.61,0.59,0.84,0.07l-0.28-0.3
		c0.31-0.19,0.71-0.61,1.08-0.45c-0.15-0.42-0.09,0.04-0.33-0.45c0.19,0.6-0.96-0.08-0.62,0.56c-0.24-0.57-0.46-0.26-0.79-0.75
		c0,0.14,0.11,0.27-0.2,0.18c-0.02,0.04-0.05,0.09-0.08,0.12c-0.01,0-0.01-0.01-0.02-0.01l0.02,0.02C67.23,1,67.22,1,67.25,0.99
		c0.07,0.06,0.13,0.14,0.15,0.22c-0.17,0.3-0.67,0.26-0.85,0.42c-0.18-0.08,0.09-0.15-0.01-0.3l-0.27,0.23
		c-0.01-0.3-0.47-0.53-0.02-0.68l-0.39-0.03c-0.22-0.18-0.54-0.26-0.74-0.15c-0.18-0.07-0.49,0.31-0.31,0.08l-0.63,0.16l0-0.08
		c-0.61-0.07-1.28,0.44-1.96-0.14C62,0.78,61.79,0.86,61.45,0.76l-0.06-0.26c-0.27,0.08-0.78-0.3-0.91-0.03
		c-0.26-0.71-1.28-0.2-1.74-0.34l-0.03,0.34c-0.32-0.03-0.63,0.05-1.03,0.18l0.01,0.3c-0.35,0.24-0.87-0.24-1.42-0.23
		c0.04-0.11,0.18-0.08,0.27-0.01c-0.63-0.7-1.38,0.45-1.95-0.06c-0.15,0.11-0.25,0.07-0.35-0.01c0.01,0,0.03-0.01,0.04-0.01
		c-0.01,0-0.04-0.01-0.06-0.01c-0.06-0.05-0.13-0.12-0.2-0.17c0.06,0.07,0.12,0.14,0.17,0.17c-0.11,0-0.29,0.04-0.45,0.11L53.67,0.4
		c-0.01,0-0.02,0-0.04,0.01c-0.16-0.12-0.14,0.15-0.05,0.4C53.49,0.86,53.41,0.92,53.35,1c-0.12-0.53-0.44,0.17-0.61-0.4
		c-0.12,0.27-0.85,0.19-0.95,0.76c0-0.07-0.05-0.11,0.04-0.11c-0.19-0.07-0.37-0.14-0.54,0.02l-0.07-0.41L50.79,1.4
		c-0.24-0.26-0.34-0.4-0.09-0.72c-0.6,0.48-0.49,0.17-1,0.65l0.03-0.27c-0.18,0.01-0.47,0.36-0.58,0.14c-0.4-0.51-2-0.1-3.03-0.57
		c0.2,0.79-0.48-0.35-0.53,0.25c-0.06-0.19-0.2-0.29-0.03-0.45c-0.53,0.18-0.8-0.3-1.16,0.21c-0.06-0.19,0.11-0.27,0.06-0.38
		c-0.04,0.04-0.17,0.16-0.22,0.05c-0.05-0.11,0.08-0.16,0.16-0.24c-0.54,0.03-0.6,0.6-0.64,1.14c-0.27-0.25-0.41-0.22-0.61,0.13
		c-0.1-0.18-0.25-0.36,0.08-0.42c-0.19-0.03-1.16-0.26-1.17,0.17c-0.06-0.11-0.26-0.03-0.31,0.02c-0.42-0.03-0.46-0.07-0.88-0.02
		l0.12,0.07c-0.16,0.52-0.35,0.12-0.68,0.18l0.01-0.05c-0.77-0.37-0.33,0.18-1.09-0.24l0.04,0.32c-0.07,0.69-0.68-0.41-1.11-0.14
		l0.16,0.18c-0.24,0.24-0.68-0.94-0.92-1.02c-0.05-0.06,0.08-0.1,0.16-0.14c-0.64-0.4-0.08,0.42-0.55,0.53
		c-0.09-0.23,0.11-0.58-0.21-0.62c-0.16-0.18-0.91,0.75-1.35,0.32c0.1,0.17,0.2,0.35-0.02,0.48c-0.33,0.07-0.92-0.65-1.21-0.09
		c-0.04-0.05-0.06-0.09-0.06-0.14c-0.25,0.15-0.83,0.25-0.98,0.55c-0.26-1.11-1.58,0.58-1.6-0.45l-0.79,0.07l0.02-0.11
		c-0.51-0.05-0.68,0.2-0.85,0.45c-0.12-0.07-0.04-0.16-0.03-0.22c-0.74-0.19-0.82-0.14-1.42,0.39L28.4,1.09
		c-0.16,0.2-1.08-0.49-1.79-0.08c0.01-0.04,0.02-0.1,0.07-0.15c-0.8,0.42-1.98-0.85-2.24,0.37l-0.53,0.32
		c0.7,0.07-0.08,0.53,0.21,0.72c-0.27,0.08-0.72-0.34-0.39-0.41l0.05,0.06c0.1-0.64-0.87-0.19-0.87-0.62c-1.36,0.09-2.71-0.2-4-0.16
		l0.17,0.48l-0.45-0.01c-0.12-0.11-0.18-0.38,0.14-0.37c-0.18-0.27-0.52,0.26-0.53,0.37c-0.63-0.17,0.21-0.59,0.02-0.59l-0.26,0.05
		l0.06,0.05c-0.2,0.21-0.21,0.43-0.59,0.42c-0.25-0.09-0.14-0.3-0.24-0.31c0-0.03-0.03-0.05-0.15-0.01l-0.57-0.01L16.8,1.6
		c-0.24,0.2-0.53,0.01-0.25,0.43c-0.42-0.66-2.11-0.12-2.36-0.32c-0.33,0.3-0.68,0.32-1.1,0.31c0.11,0.07,0.2,0.51-0.17,0.48
		c0.08-0.91-0.7-0.35-1.04-0.97c0.29,0.41-1.04,0.18-0.58,0.76C11,2.24,11.27,1.95,11.02,1.76c-0.71,0.4-1.63-0.11-2.52,0.07
		C8.49,1.95,8.66,2.12,8.48,2.31L7.96,1.76C7.78,1.83,7.85,2.45,7.49,2.07c0.05,0.1,0.13,0.24,0.02,0.29
		C5.69,1.92,3.94,3.12,2.05,2.2c0.26,0.21,0.1,0.24-0.08,0.27c0.13,0.04,0.02,0.29,0.06,0.45L1.24,2.55
		C1.14,3.01,0.43,2.66,0.4,3.09l0.23-0.1C0.36,3.52,1.17,4.06,1.19,4.7c0.3-0.6,1.01,0.75,1.51-0.11c0.14,0.12-0.09,0.22-0.01,0.36
		c0.12-0.29,0.29-0.36,0.63-0.27L3.29,4.75c0.92-0.15,1.33,0.09,2.38,0.18l-0.1-0.31C5.8,4.65,5.85,4.75,5.96,4.82
		c0.22-0.5-0.63,0.02-0.44-0.53c0.35,0.62,1.57-0.12,1.83,0.6c0.34-0.02-0.13-0.36,0.21-0.38L7.67,4.7l0.07-0.26
		C7.97,4.46,8.1,4.7,8.12,4.87C8.06,4.85,7.97,4.93,7.91,4.95c0.31,0.21,0.81-0.14,0.92-0.07l-0.34-0.1
		c0.92-0.26,2.08-0.08,2.95-0.55l-0.08-0.15c0.67-0.33,0.56,0.13,1.31-0.05l-0.03,0.04c0.14-0.16,0.34-0.25,0.55-0.24
		c-0.18,0.19,0.38,0.32,0.14,0.53c0.73-0.35,0.35-0.26,0.81-0.85l0.13,0.24c0.15-0.24,0.16-0.36,0.54-0.44
		c-0.3,0.23,0.26,0.36-0.07,0.67c0.83,0.5,1.15-0.62,1.56,0.15c0.33-0.71-0.71-0.34-0.51-0.5c-0.18-0.21,0.27-0.53,0.53-0.48
		c0.26,0,0.48,0.86,1.12,0.81c-0.06,0-0.07,0.05-0.13,0.05c0.25,0.16,0.46-0.26,0.76,0.01c0.14-0.43,0.38,0,0.4-0.53L17.9,3.64
		c0.32-0.16,0.6-0.8,1.17-0.52c-0.04,0.11-0.19,0.26-0.3,0.34c0.17,0.15,0.3-0.12,0.48,0.03c-0.02,0.54-0.71,0.15-1.04,0.58
		c0.18,0.21,0.65-0.42,0.5,0.16c0.22-0.75,0.63,0.06,1.04-0.52l-0.01,0.32c0.07-0.05,0.2-0.21,0.33-0.21l-0.21,0.42
		c0.33-0.37,0.69,0.28,1.01,0.07c-0.7,0.04-0.18-0.38-0.48-0.59c0.85-0.47,0.54,0.81,1.5,0.61c-0.13,0.05-0.5-0.17-0.3-0.33
		c0.19,0.06,0.44,0.17,0.56,0.33c0.64-0.09-0.11-0.32,0.15-0.53c0.24,0.38,0.31-0.17,0.59-0.31l0.02,0.32
		c0.74,0.18,0.17-0.69,0.84-0.46l-0.26,0.46l0.34-0.13l-0.06,0.37c0.36-0.29,0.48-0.22,0.85-0.13c-0.09-0.23,0.03-0.59,0.35-0.61
		c0.23,0.18-0.11,0.31,0.35,0.25c-0.1,0.21-0.2,0.47-0.41,0.17c-0.02,0.11-0.09,0.21-0.11,0.31c0.25,0.21,0.6,0.03,0.77,0.02
		c-0.06-0.01-0.14-0.02-0.18-0.07l0.65-0.47c0.11,0.12,0.03,0.22-0.05,0.32c0.13-0.04,0.22-0.19,0.42-0.23
		c-0.04,0.27-0.02,0.54-0.3,0.67l0.63-0.31c0.05,0.11,0.34,0.3,0.26,0.4c0.36,0.14,0.85-0.54,1.32-0.35
		c0.02-0.05,0.07-0.1,0.17-0.14c0.44,0.05,0.84,0.36,1.35-0.02l0.31,0.46c0.4-0.12-0.42-0.58,0.26-0.78
		c0.48-0.16,0.19,0.4,0.36,0.53c0.23-0.24,0.64-0.74,1.09-0.36C31.68,3.82,31.56,3.75,31.43,3.79z M36.45,3.49
		c-0.1,0.07-0.29,0.28-0.36,0.09C36.19,3.21,36.28,3.39,36.45,3.49z M44.1,2.68c-0.07,0.11-0.18,0.05-0.31-0.07
		C43.88,2.58,43.98,2.59,44.1,2.68z M65.54,1l-0.01,0.02C65.32,0.88,65.4,0.94,65.54,1z M65.99,1.17c0.05-0.04,0.05-0.09,0.03-0.13
		c-0.04,0.08-0.14,0.08-0.25,0.05C65.8,1.17,65.85,1.23,65.99,1.17z M17.23,1.36l0.09,0.08C17.12,1.54,17.18,1.46,17.23,1.36z"/>
	<path class="st0" d="M43.23,3.12C43.2,3.06,43.2,3,43.19,2.94C43.15,3,43.15,3.06,43.23,3.12z"/>
	<path class="st0" d="M28.3,4.04l-0.02,0c-0.01,0.02-0.01,0.04-0.01,0.06L28.3,4.04z"/>
	<path class="st0" d="M58.86,3.6c-0.09-0.05-0.14-0.11-0.17-0.17C58.68,3.51,58.72,3.58,58.86,3.6z"/>
	<path class="st0" d="M68.43,0.75l-0.3,0.07c0.14-0.01,0.19,0.07,0.26,0.12C68.39,0.87,68.34,0.75,68.43,0.75z"/>
	<path class="st0" d="M70.82,2.91c0.04-0.04,0.09,0,0.13-0.04l0-0.15C70.77,2.73,70.64,2.84,70.82,2.91z"/>
	<path class="st0" d="M68.63,1.84c0.01,0.27,0.19,0.19,0.4,0.15C69.02,2,69.01,2,69,2C69.08,1.62,68.86,1.73,68.63,1.84z"/>
	<path class="st0" d="M69.08,1.99c0.06-0.01,0.13-0.01,0.19,0.01C69.3,1.85,69.19,1.96,69.08,1.99z"/>
	<path class="st0" d="M66.58,1.02c0.09,0.08,0.08-0.35,0.13-0.23C66.83,0.45,66.04,1.17,66.58,1.02z"/>
	<polygon class="st0" points="68.74,2.75 68.69,2.41 68.56,2.68 	"/>
	<path class="st0" d="M67.16,2.41l0.32,0.11c0-0.06,0.04-0.09,0.09-0.11C67.37,2.39,67.15,2.31,67.16,2.41z"/>
	<path class="st0" d="M67.57,2.42c0.1,0.01,0.2,0.01,0.26-0.04C67.78,2.38,67.65,2.38,67.57,2.42z"/>
	<polygon class="st0" points="68.29,2.83 68.2,2.75 67.97,2.71 	"/>
	<path class="st0" d="M63.67,2.17l-0.36,0.08c-0.04,0.11,0.05,0.19,0.19,0.15C63.59,2.32,63.72,2.28,63.67,2.17z"/>
	<path class="st0" d="M64.69,3.14c-0.09-0.07-0.09-0.15-0.14-0.26L64.52,3.3L64.69,3.14z"/>
	<path class="st0" d="M63.66,3.19c-0.04,0.11-0.53,0.31-0.08,0.3C63.62,3.38,63.98,3.3,63.66,3.19z"/>
	<polygon class="st0" points="58.35,2.44 58.44,2.44 58.45,1.75 	"/>
	<path class="st0" d="M53.61,3.94c0.41,0.17,0.11-0.42,0.48-0.21c0.1-0.16-0.3-0.17-0.2-0.31C53.63,3.58,53.5,3.48,53.61,3.94z"/>
	<path class="st0" d="M53.89,3.42c0.04-0.03,0.08-0.06,0.13-0.1C53.95,3.36,53.91,3.39,53.89,3.42z"/>
	<polygon class="st0" points="0.7,2.25 0.42,2.13 0.61,2.34 	"/>
	<path class="st0" d="M0.23,2.8L0.12,2.37L0,2.78C0.06,2.76,0.17,2.71,0.23,2.8z"/>
	<path class="st0" d="M37.21,4.36l0.02-0.11c-0.04-0.11-0.11-0.12-0.23-0.14L37.21,4.36z"/>
	<polygon class="st0" points="33.56,4.09 33.62,4.1 33.5,3.7 	"/>
	<path class="st0" d="M30.51,4.66c0.13,0.01,0.27-0.08,0.4-0.07C30.64,4.67,30.46,4.17,30.51,4.66z"/>
</g>
</svg>
