<svg width="800" height="800" viewBox="0 0 800 800" fill="none" xmlns="http://www.w3.org/2000/svg">
<path fill-rule="evenodd" clip-rule="evenodd" d="M773.965 773.965C790.635 757.295 800 734.686 800 711.111V88.8889C800 65.3141 790.635 42.7049 773.965 26.035C757.295 9.36505 734.686 0 711.111 0H88.8889C65.3141 0 42.7049 9.36505 26.035 26.035C9.36505 42.7049 0 65.3141 0 88.8889V711.111C0 734.686 9.36505 757.295 26.035 773.965C42.7049 790.635 65.3141 800 88.8889 800H711.111C734.686 800 757.295 790.635 773.965 773.965ZM723.48 723.48C737.899 709.06 746 689.503 746 669.111V130.889C746 110.497 737.899 90.9397 723.48 76.5202C709.06 62.1008 689.503 54 669.111 54H130.889C110.497 54 90.9397 62.1008 76.5202 76.5202C62.1008 90.9397 54 110.497 54 130.889V669.111C54 689.503 62.1008 709.06 76.5202 723.48C90.9397 737.899 110.497 746 130.889 746H669.111C689.503 746 709.06 737.899 723.48 723.48Z" fill="#C5C5C5"/>
</svg>
