<?xml version="1.0" encoding="utf-8"?>
<!-- Generator: Adobe Illustrator 23.0.5, SVG Export Plug-In . SVG Version: 6.00 Build 0)  -->
<svg version="1.1" id="Capa_1" xmlns="http://www.w3.org/2000/svg" xmlns:xlink="http://www.w3.org/1999/xlink" x="0px" y="0px"
	 viewBox="0 0 60.77 25.81" style="enable-background:new 0 0 60.77 25.81;" xml:space="preserve">
<style type="text/css">
	.st0{fill:#FFFFFF;}
	.st1{fill:#00AEBC;}
</style>
<g>
	<g>
		<g>
			<g>
				<g id="XMLID_8_">
					
						<ellipse transform="matrix(0.9999 -0.0144 0.0144 0.9999 -0.1808 0.6903)" class="st0" cx="47.86" cy="12.91" rx="12.91" ry="12.91"/>
				</g>
			</g>
		</g>
		<g>
			<g>
				<g id="XMLID_7_">
					
						<ellipse transform="matrix(0.9999 -0.0144 0.0144 0.9999 -0.1844 0.1871)" class="st0" cx="12.91" cy="12.91" rx="12.91" ry="12.91"/>
				</g>
			</g>
		</g>
		<path class="st1" d="M52.81,20.16h-9.89c-1.4,0-2.54-1.14-2.54-2.54V7.72c0-1.4,1.14-2.54,2.54-2.54h9.89
			c1.4,0,2.54,1.14,2.54,2.54v9.89C55.35,19.01,54.21,20.16,52.81,20.16z"/>
		<g>
			<g>
				<g>
					<path class="st0" d="M47.38,18.17c-2.76,0-5.01-2.25-5.01-5.01c0-2.76,2.25-5.01,5.01-5.01c2.76,0,5.01,2.25,5.01,5.01
						C52.39,15.92,50.14,18.17,47.38,18.17z M47.38,9.4c-2.07,0-3.76,1.69-3.76,3.76c0,2.07,1.69,3.76,3.76,3.76
						c2.07,0,3.76-1.69,3.76-3.76C51.14,11.09,49.45,9.4,47.38,9.4z"/>
				</g>
				<g>
					<path class="st0" d="M53.3,7.96c0.27,0.84-0.49,1.6-1.33,1.33c-0.3-0.1-0.55-0.34-0.64-0.64c-0.27-0.83,0.49-1.59,1.33-1.33
						C52.95,7.42,53.2,7.66,53.3,7.96z"/>
				</g>
			</g>
		</g>
	</g>
	<path id="XMLID_37_" class="st1" d="M13.93,8.59V7.27c0-0.64,0.43-0.79,0.73-0.79c0.3,0,1.85,0,1.85,0V3.65l-2.55-0.01
		c-2.83,0-3.47,2.11-3.47,3.46v1.49H8.85v1.99v1.31h1.65c0,3.74,0,8.25,0,8.25h3.3c0,0,0-4.55,0-8.25h2.45l0.12-1.3l0.18-2H13.93z"
		/>
</g>
</svg>
