<?xml version="1.0" encoding="utf-8"?>
<!-- Generator: Adobe Illustrator 23.0.5, SVG Export Plug-In . SVG Version: 6.00 Build 0)  -->
<svg version="1.1" id="Capa_1" xmlns="http://www.w3.org/2000/svg" xmlns:xlink="http://www.w3.org/1999/xlink" x="0px" y="0px"
	 viewBox="0 0 154.68 41.14" style="enable-background:new 0 0 154.68 41.14;" xml:space="preserve">
<style type="text/css">
	.st0{fill:#FFFFFF;}
</style>
<g>
	<path class="st0" d="M21.38,16.25c0,2.57-0.47,5.22-1.41,7.95c-1.23,3.59-2.85,5.39-4.88,5.39c-1.91,0-3.49-1.18-4.75-3.55
		c-0.86,2.51-2.21,3.76-4.06,3.76c-2.37,0-4.09-1.62-5.17-4.88C0.37,22.71,0,20.1,0,17.11c0-1.88,0.07-3.41,0.21-4.58
		c0.4-0.63,0.93-0.94,1.58-0.94c0.57,0,1.15,0.19,1.73,0.56c0.58,0.37,0.88,0.81,0.88,1.33c0,0.37-0.09,0.92-0.26,1.65
		s-0.26,1.28-0.26,1.65c0,6.27,0.66,9.41,1.97,9.41c1.37,0,2.27-1.74,2.69-5.22c0.14-1.31,0.21-3.61,0.21-6.89
		c0-1.08,0.63-1.62,1.88-1.62c1.4,0,2.09,0.78,2.09,2.35c0,0.14-0.01,0.34-0.04,0.6c-0.03,0.26-0.04,0.44-0.04,0.56v4.83
		c0,3.59,0.66,5.39,1.97,5.39c1.11,0,1.95-1.31,2.52-3.93c0.43-1.82,0.64-3.61,0.64-5.35c0-1.48-0.07-2.35-0.21-2.61
		c-0.03-0.06-0.19-0.23-0.47-0.51c-0.17-0.23-0.26-0.44-0.26-0.64c0-0.51,0.23-0.98,0.68-1.39c0.46-0.41,0.94-0.62,1.45-0.62
		c0.77,0,1.38,0.68,1.84,2.05C21.2,14.23,21.38,15.25,21.38,16.25z"/>
	<path class="st0" d="M45.08,16.25c0,2.57-0.47,5.22-1.41,7.95c-1.23,3.59-2.85,5.39-4.88,5.39c-1.91,0-3.49-1.18-4.75-3.55
		c-0.86,2.51-2.21,3.76-4.06,3.76c-2.37,0-4.09-1.62-5.17-4.88c-0.74-2.22-1.11-4.83-1.11-7.83c0-1.88,0.07-3.41,0.21-4.58
		c0.4-0.63,0.93-0.94,1.58-0.94c0.57,0,1.15,0.19,1.73,0.56c0.58,0.37,0.88,0.81,0.88,1.33c0,0.37-0.09,0.92-0.26,1.65
		s-0.26,1.28-0.26,1.65c0,6.27,0.66,9.41,1.98,9.41c1.37,0,2.27-1.74,2.69-5.22c0.14-1.31,0.21-3.61,0.21-6.89
		c0-1.08,0.63-1.62,1.88-1.62c1.4,0,2.1,0.78,2.1,2.35c0,0.14-0.01,0.34-0.04,0.6c-0.03,0.26-0.04,0.44-0.04,0.56v4.83
		c0,3.59,0.66,5.39,1.97,5.39c1.11,0,1.95-1.31,2.52-3.93c0.43-1.82,0.64-3.61,0.64-5.35c0-1.48-0.07-2.35-0.21-2.61
		c-0.03-0.06-0.19-0.23-0.47-0.51c-0.17-0.23-0.26-0.44-0.26-0.64c0-0.51,0.23-0.98,0.68-1.39c0.46-0.41,0.94-0.62,1.45-0.62
		c0.77,0,1.38,0.68,1.84,2.05C44.89,14.23,45.08,15.25,45.08,16.25z"/>
	<path class="st0" d="M68.77,16.25c0,2.57-0.47,5.22-1.41,7.95c-1.23,3.59-2.85,5.39-4.88,5.39c-1.91,0-3.49-1.18-4.75-3.55
		c-0.86,2.51-2.21,3.76-4.06,3.76c-2.37,0-4.09-1.62-5.17-4.88c-0.74-2.22-1.11-4.83-1.11-7.83c0-1.88,0.07-3.41,0.21-4.58
		c0.4-0.63,0.93-0.94,1.58-0.94c0.57,0,1.15,0.19,1.73,0.56c0.58,0.37,0.88,0.81,0.88,1.33c0,0.37-0.09,0.92-0.26,1.65
		s-0.26,1.28-0.26,1.65c0,6.27,0.66,9.41,1.97,9.41c1.37,0,2.27-1.74,2.69-5.22c0.14-1.31,0.21-3.61,0.21-6.89
		c0-1.08,0.63-1.62,1.88-1.62c1.4,0,2.09,0.78,2.09,2.35c0,0.14-0.01,0.34-0.04,0.6c-0.03,0.26-0.04,0.44-0.04,0.56v4.83
		c0,3.59,0.66,5.39,1.97,5.39c1.11,0,1.95-1.31,2.52-3.93c0.43-1.82,0.64-3.61,0.64-5.35c0-1.48-0.07-2.35-0.21-2.61
		c-0.03-0.06-0.19-0.23-0.47-0.51c-0.17-0.23-0.26-0.44-0.26-0.64c0-0.51,0.23-0.98,0.68-1.39c0.46-0.41,0.94-0.62,1.45-0.62
		c0.77,0,1.38,0.68,1.84,2.05C68.58,14.23,68.77,15.25,68.77,16.25z"/>
	<path class="st0" d="M77.66,27.8c0,0.48-0.43,0.96-1.28,1.43c-0.86,0.47-1.57,0.71-2.14,0.71c-0.63,0-1.3-0.24-2.01-0.73
		s-1.07-1.05-1.07-1.71c0-0.57,0.29-1.08,0.88-1.52c0.58-0.44,1.19-0.66,1.82-0.66c0.77,0,1.57,0.23,2.4,0.68
		C77.19,26.54,77.66,27.14,77.66,27.8z"/>
	<path class="st0" d="M93.96,3.98c0,0.49-0.23,0.88-0.71,1.2c-0.47,0.31-0.95,0.47-1.43,0.47c-0.37,0-0.77-0.17-1.2-0.51
		c-0.03-0.57-0.14-0.93-0.34-1.09s-0.61-0.24-1.24-0.24c-1.23,0-2.11,1.53-2.65,4.58c-0.29,1.75-0.44,3.78-0.47,6.07
		c0.14,0,0.31,0,0.51,0c0.26,0,0.44,0,0.56,0c1.2,0,2.05,0.47,2.57,1.41l-0.38,1.62c-0.54,0.29-1.48,0.43-2.82,0.43
		c-0.23,0-0.41,0.01-0.56,0.04c-0.08,0.94-0.13,1.97-0.13,3.08v3.89c0,1.51,0.23,3.07,0.68,4.66c-1.11,0.63-1.92,0.94-2.44,0.94
		c-0.68,0-1.23-0.53-1.62-1.58c-0.34-0.83-0.51-1.65-0.51-2.48c0-0.51,0.06-3.25,0.17-8.21c-0.94,0.09-1.38,0.13-1.33,0.13
		c-0.48,0-0.91-0.16-1.28-0.47c-0.37-0.31-0.56-0.73-0.56-1.24c0-0.88,0.37-1.45,1.11-1.71c0.4-0.11,1.14-0.17,2.22-0.17
		c0.09-0.28,0.13-1.15,0.13-2.6c0-2.93,0.47-5.48,1.41-7.64c1.28-2.84,3.21-4.27,5.77-4.27c1.28,0,2.34,0.29,3.17,0.86
		C93.5,1.84,93.96,2.78,93.96,3.98z"/>
	<path class="st0" d="M97.93,13.04c0,0.51-0.11,1.24-0.34,2.18s-0.34,1.67-0.34,2.18v8.81c0,0.54,0.17,1.4,0.51,2.57
		c-0.43,0.66-0.91,0.98-1.42,0.98c-1.81,0-2.81-0.9-2.98-2.69c-0.29-3.34-0.43-5.84-0.43-7.53c0-2.82,0.11-5.19,0.34-7.1
		c0-0.14,0-0.28,0-0.43c0-0.51,0.4-0.77,1.19-0.77c0.71,0,1.41,0.14,2.12,0.43C97.48,11.99,97.93,12.44,97.93,13.04z M98.32,7.06
		c0,0.63-0.21,1.14-0.64,1.54c-0.43,0.4-0.96,0.6-1.58,0.6c-0.74,0-1.43-0.26-2.07-0.77s-0.96-1.14-0.96-1.88
		c0-0.63,0.22-1.14,0.66-1.54c0.44-0.4,0.99-0.6,1.65-0.6c0.77,0,1.45,0.25,2.05,0.75C98.02,5.65,98.32,6.29,98.32,7.06z"/>
	<path class="st0" d="M114.87,19.33c0,2.91-0.51,5.37-1.54,7.4c-1.28,2.62-3.22,3.93-5.82,3.93c-1.4,0-2.59-0.4-3.59-1.2
		c0,0.31,0,0.74,0,1.28c0,0.63,0,1.05,0,1.28c0,2.74,0.31,4.89,0.94,6.46c0.29,0.63,0.43,1.03,0.43,1.2c0,0.97-0.57,1.45-1.71,1.45
		c-0.86,0-1.5-0.16-1.92-0.47c-0.31-0.2-0.63-0.91-0.94-2.14c-0.26-1.08-0.38-1.91-0.38-2.48V25.75c0-0.94,0.06-2.22,0.17-3.85
		c0.11-1.82,0.18-3.09,0.21-3.81c0.03-0.71,0.03-1.65,0-2.82c0-1.48,0-2.44,0-2.87c0-2.42,0.79-3.63,2.37-3.63
		c0.39,0,0.76,0.14,1.1,0.41c0.34,0.27,0.51,0.59,0.51,0.96c0,0.63-0.07,1.77-0.21,3.42c1.11-1.57,2.45-2.35,4.02-2.35
		c2.11,0,3.73,0.86,4.88,2.57C114.37,15.25,114.87,17.11,114.87,19.33z M111.06,18.95c0-3.08-0.66-4.62-1.98-4.62
		c-0.57,0-1.32,0.56-2.24,1.67c-1.78,2.14-2.75,5.09-2.93,8.85c0.32,0.17,0.88,0.77,1.68,1.8c0.63,0.77,1.26,1.15,1.89,1.15
		C109.87,27.8,111.06,24.85,111.06,18.95z"/>
	<path class="st0" d="M122.31,13.04c0,0.51-0.11,1.24-0.34,2.18c-0.23,0.94-0.34,1.67-0.34,2.18v8.81c0,0.54,0.17,1.4,0.51,2.57
		c-0.43,0.66-0.91,0.98-1.43,0.98c-1.81,0-2.81-0.9-2.98-2.69c-0.29-3.34-0.43-5.84-0.43-7.53c0-2.82,0.11-5.19,0.34-7.1
		c0-0.14,0-0.28,0-0.43c0-0.51,0.4-0.77,1.19-0.77c0.71,0,1.41,0.14,2.12,0.43C121.86,11.99,122.31,12.44,122.31,13.04z
		 M122.69,7.06c0,0.63-0.21,1.14-0.64,1.54c-0.43,0.4-0.96,0.6-1.58,0.6c-0.74,0-1.43-0.26-2.07-0.77s-0.96-1.14-0.96-1.88
		c0-0.63,0.22-1.14,0.66-1.54c0.44-0.4,0.99-0.6,1.65-0.6c0.77,0,1.45,0.25,2.05,0.75C122.39,5.65,122.69,6.29,122.69,7.06z"/>
	<path class="st0" d="M130.86,27.8c0,0.48-0.43,0.96-1.28,1.43c-0.86,0.47-1.57,0.71-2.14,0.71c-0.63,0-1.3-0.24-2.01-0.73
		s-1.07-1.05-1.07-1.71c0-0.57,0.29-1.08,0.88-1.52c0.58-0.44,1.19-0.66,1.82-0.66c0.77,0,1.57,0.23,2.4,0.68
		C130.39,26.54,130.86,27.14,130.86,27.8z"/>
	<path class="st0" d="M147.58,24.68c0,0.88-0.67,1.92-2.01,3.12c-1.2,1.11-2.27,1.81-3.23,2.1c-0.96,0.28-1.86,0.43-2.72,0.43
		c-2.25,0-4.01-0.71-5.28-2.14c-1.27-1.43-1.9-3.26-1.9-5.52c0-2.2,0.58-4.65,1.75-7.36c1.4-3.25,3.02-4.88,4.88-4.88
		c1.03,0,2.27,0.4,3.72,1.2c1.54,0.88,2.44,1.77,2.69,2.65c0.23,0.77,0.34,1.64,0.34,2.61c0,0.88-0.19,1.88-0.56,2.99
		c-0.46,1.43-1.03,2.14-1.71,2.14c-0.49,0-0.94-0.14-1.37-0.43c-0.51-0.31-0.77-0.69-0.77-1.15c0-0.03,0.13-0.35,0.38-0.98
		c0.14-0.28,0.21-1.06,0.21-2.34c0-1.05-0.04-1.73-0.13-2.04c-0.17-0.88-0.57-1.32-1.2-1.32c-1.4,0-2.48,1.21-3.25,3.62
		c-0.57,1.79-0.86,3.6-0.86,5.41c0,3.04,0.97,4.56,2.91,4.56c0.77,0,1.65-0.4,2.65-1.2c0.91-0.74,1.55-1.5,1.92-2.27
		c0.46-0.91,1.01-1.37,1.67-1.37c0.43,0,0.84,0.25,1.24,0.75C147.38,23.79,147.58,24.25,147.58,24.68z"/>
	<path class="st0" d="M154.68,28.35c0,0.51-0.21,0.95-0.62,1.3c-0.41,0.36-0.89,0.53-1.43,0.53c-1.8,0-2.69-2.35-2.69-7.06
		c0-2.14,0.02-5.35,0.06-9.62c0.04-4.28,0.06-7.48,0.06-9.62c0-0.34-0.04-0.84-0.13-1.5c-0.08-0.66-0.13-1.14-0.13-1.45
		c0.94-0.63,1.68-0.94,2.22-0.94c0.63,0,1.23,0.21,1.8,0.62c0.57,0.41,0.86,0.93,0.86,1.56c0,0.31-0.07,0.68-0.21,1.11
		c-0.2,0.68-0.31,1.06-0.34,1.11c-0.37,1.77-0.56,4.28-0.56,7.53c0,5.16,0,7.81,0,7.95c0.08,3.59,0.38,6.1,0.9,7.53
		C154.61,27.81,154.68,28.13,154.68,28.35z"/>
</g>
</svg>
