<?xml version="1.0" encoding="utf-8"?>
<!-- Generator: Adobe Illustrator 28.2.0, SVG Export Plug-In . SVG Version: 6.00 Build 0)  -->
<svg version="1.1" id="Capa_1" xmlns="http://www.w3.org/2000/svg" xmlns:xlink="http://www.w3.org/1999/xlink" x="0px" y="0px"
	 viewBox="0 0 1080 1080" style="enable-background:new 0 0 1080 1080;" xml:space="preserve">
<style type="text/css">
	.st0{fill:#D00073;}
	.st1{fill:#F0EAC7;}
	.st2{fill:#FFE000;}
	.st3{fill:#0065A1;}
	.st4{fill:#009CB6;}
</style>
<rect y="0" class="st2" width="1080" height="1080"/>
<g>
	<g>
		<path class="st3" d="M273.02,439.05c1.55-9.19,2.47-18.54,4.75-27.55c14.61-57.81,52.4-91.53,109.92-103.65
			c32.68-6.89,64.93-3.43,96.48,7.21c6.54,2.21,9.37,6.76,7.53,12.08c-1.73,4.97-6.69,6.85-13.01,4.76
			c-30.47-10.12-61.36-12.69-92.86-5.49c-53.52,12.23-89.41,53.6-94.18,108.35c-3.77,43.32,5.85,84.21,22.71,123.63
			c22.31,52.14,58.38,93.62,101.73,129.34c30.5,25.13,64.05,45.88,96.77,67.82c7.21,4.84,15.08,3.11,19.73-3.53
			c4.93-7.04,3.9-14.37-3.16-20.26c-25.33-21.15-50.72-42.23-76.08-63.33c-1.6-1.33-3.22-2.65-4.78-4.03
			c-5.12-4.51-5.91-9.3-2.25-13.55c3.64-4.23,8.45-4.28,13.79,0.09c7.93,6.49,15.77,13.09,23.64,19.65
			c19.22,16,38.51,31.92,57.64,48.03c9.63,8.11,14.15,18.4,11.19,31.04c-3,12.82-10.75,21.63-23.55,25.38
			c-8.23,2.41-16.44,1.39-23.56-3.26c-45.63-29.82-91.86-58.84-131.08-97.33c-46.81-45.93-79.99-99.69-94.37-164.17
			c-2.75-12.33-4.07-24.97-6.07-37.46c-0.24-1.53-0.62-3.03-0.93-4.55C273.02,458.51,273.02,448.78,273.02,439.05z"/>
	</g>
	<g>
		<path class="st3" d="M582.3,474.6c-23.38,13.37-46.4,26.58-69.45,39.72c-18.74,10.68-37.8,11.1-56.47,0.31
			c-31.61-18.26-36.55-62.99-9.28-87.4c31.05-27.8,61.78-56.14,94.53-81.84c50.44-39.58,107.73-52.29,169.56-32.42
			c52.56,16.89,82.44,55.12,92.33,108.83c8.59,46.62,0.44,91.7-16.2,135.29c-7.02,18.38-16.75,35.74-25.51,53.44
			c-1.13,2.28-3.63,5.08-5.79,5.36c-3.02,0.39-6.99-0.52-9.32-2.4c-3.48-2.8-2.78-6.95-0.74-10.93
			c7.43-14.5,15.53-28.73,21.81-43.72c14.23-33.97,21.79-69.5,21.12-106.47c-0.46-25.34-5.43-49.74-18.7-71.72
			c-20.56-34.09-51.84-52.16-90.49-57.15c-50.48-6.52-95.16,7.99-133.71,40.95c-28.78,24.6-57.15,49.68-85.65,74.62
			c-14.53,12.71-17.3,34.09-6.61,49.54c10.9,15.75,31.75,20.61,49.02,10.92c24.97-14.01,49.73-28.39,74.57-42.62
			c8.38-4.8,11.43-4.16,16.93,3.68c7.18,10.23,14.22,20.57,21.64,30.62c1.43,1.94,4.28,3.83,6.58,3.96c9.32,0.53,18.72,1.03,28,0.28
			c12.6-1.02,23.65-6.39,33.25-14.71c5.22-4.53,10.66-4.5,14.18-0.23c3.38,4.11,2.45,9.28-2.55,13.63
			c-20.12,17.5-44.01,22.22-69.6,19.42c-21.86-2.39-16.19-0.75-27.78-16.73C592.68,489.54,587.58,482.11,582.3,474.6z"/>
	</g>
	<g>
		<path class="st3" d="M666.23,688.25c-1.82,10.19-6.08,19.15-14.01,25.99c-5.64,4.87-14.08,2.29-14.73-4.8
			c-0.25-2.8,1.93-5.91,3.3-8.73c2.38-4.88,6.09-9.4,7.27-14.53c1.8-7.86-2.72-13.9-8.6-18.88c-19.61-16.61-39.19-33.25-58.78-49.88
			c-15.62-13.26-31.28-26.47-46.84-39.8c-4.55-3.9-5.08-8.83-1.77-12.84c3.21-3.91,8.43-4.24,13.01-0.82
			c0.69,0.52,1.34,1.1,2.01,1.66c15.12,12.77,30.25,25.54,45.36,38.32c25.06,21.19,50.11,42.39,75.16,63.57
			c9.26,7.83,18.73,8,27.19,0.51c8.42-7.45,9.95-18.62,3.33-28.15c-19.41-27.94-39-55.74-58.51-83.61
			c-5.11-7.3-5.15-12.47-0.17-15.86c4.92-3.35,9.74-1.46,14.85,5.84c19.61,28.01,39.45,55.86,58.75,84.08
			c15.09,22.07,4.49,51.27-21.01,59.33C683.9,692.23,678.21,691.94,666.23,688.25z"/>
	</g>
	<g>
		<path class="st3" d="M611.65,718.19c-0.56,12.76-5.68,23-15.37,30.89c-4.25,3.46-9.27,3.07-12.58-0.67
			c-3.28-3.7-2.95-8.67,0.87-12.57c0.97-0.99,2.05-1.87,3-2.89c9.12-9.79,8.34-21.51-2.12-29.84
			c-31.49-25.07-63.03-50.09-94.54-75.14c-1.9-1.51-3.9-2.96-5.51-4.74c-3.04-3.35-3.12-8.25-0.27-11.42
			c3.03-3.37,6.77-4.01,10.85-2.08c1.24,0.58,2.35,1.47,3.43,2.33c32.89,26.11,65.76,52.23,98.64,78.34
			C607.07,697.58,611.27,707.07,611.65,718.19z"/>
	</g>
</g>
</svg>
