<?xml version="1.0" encoding="utf-8"?>
<!-- Generator: Adobe Illustrator 23.0.5, SVG Export Plug-In . SVG Version: 6.00 Build 0)  -->
<svg version="1.1" id="Capa_1" xmlns="http://www.w3.org/2000/svg" xmlns:xlink="http://www.w3.org/1999/xlink" x="0px" y="0px"
	 viewBox="0 0 700 400" style="enable-background:new 0 0 700 400;" xml:space="preserve">
<style type="text/css">
	.st0{fill:#D8E1EF;}
	.st1{fill:#B0358A;}
	.st2{fill:#808080;}
</style>
<g id="Card_Cancel">
	<path class="st0" d="M253.71,107h175.05c14.5,0,26.26,11.76,26.26,26.26v105.03c0,14.5-11.76,26.26-26.26,26.26H253.71
		c-14.5,0-26.26-11.76-26.26-26.26V133.26C227.45,118.76,239.21,107,253.71,107z"/>
	<rect x="227.45" y="142.01" class="st1" width="227.56" height="26.26"/>
	<path class="st1" d="M297.47,229.53h-26.26c-4.83,0-8.75-3.92-8.75-8.75s3.92-8.75,8.75-8.75h26.26c4.83,0,8.75,3.92,8.75,8.75
		S302.3,229.53,297.47,229.53z"/>
	<path class="st1" d="M458.6,255.79l11.38-11.29c3.43-3.43,3.43-9,0-12.43c-3.43-3.43-9-3.43-12.43,0l-11.29,11.38l-11.29-11.38
		c-3.43-3.43-9-3.43-12.43,0c-3.43,3.43-3.43,9,0,12.43l11.38,11.29l-11.38,11.29c-3.43,3.43-3.43,9,0,12.43
		c3.43,3.43,9,3.43,12.43,0l11.29-11.38l11.29,11.38c3.43,3.43,9,3.43,12.43,0c3.43-3.43,3.43-9,0-12.43L458.6,255.79z"/>
</g>
<g>
	<path class="st1" d="M201.72,49.31c0,0.63-0.04,1.19-0.13,1.68c-1.12,6.63-4.26,9.95-9.43,9.95c-2.64,0-5.01-0.67-7.11-2.02v0.9
		c-0.03,1.92,0.14,3.24,0.52,3.96c0.54,1.01,0.82,1.58,0.82,1.72c0,0.57-0.22,1.08-0.67,1.51c-0.45,0.43-0.96,0.65-1.53,0.65
		c-1.29,0-2.17-0.46-2.63-1.38c-0.26-0.54-0.43-1.56-0.52-3.06c-0.06-0.98-0.09-2.1-0.09-3.36c0-0.49,0.07-1.22,0.19-2.2
		c0.13-0.98,0.19-1.72,0.19-2.24V52.5c-0.03-0.86,0.03-2.13,0.17-3.81c0.14-1.68,0.21-2.92,0.21-3.73v-3.88
		c0-0.06-0.13-0.83-0.39-2.33c0.74-0.69,1.44-1.03,2.09-1.03c0.77,0,1.38,0.28,1.83,0.84c0.46,0.56,0.68,1.24,0.68,2.05
		c0,0.2,0,0.4,0,0.6c1.9-2.5,4.29-3.75,7.19-3.75c2.73,0,4.88,1.02,6.46,3.06c1.41,1.84,2.11,4.16,2.11,6.98c0,0.2,0,0.5,0,0.9
		C201.72,48.81,201.72,49.11,201.72,49.31z M197.8,48.62c0-1.98-0.3-3.67-0.9-5.08c-0.83-1.89-2.11-2.84-3.83-2.84
		c-2.21,0-4.11,1.35-5.68,4.05c-1.41,2.35-2.11,4.72-2.11,7.11c0,3.99,2.01,5.99,6.03,5.99c2.15,0,3.73-0.93,4.74-2.8
		c0.57-1.03,1.12-2.91,1.64-5.64C197.76,48.85,197.8,48.59,197.8,48.62z"/>
	<path class="st1" d="M227.64,59.51c0,1.38-0.62,2.08-1.85,2.11c0.14,0.66,0.46,1.55,0.95,2.67c-0.03,0.63-0.29,1.15-0.78,1.55
		c-0.49,0.4-1.06,0.6-1.72,0.6c-0.52,0-1.12-0.16-1.81-0.47c-0.37-0.75-0.56-1.64-0.56-2.67c0-0.26,0.01-0.63,0.04-1.12
		c0.03-0.49,0.04-0.85,0.04-1.08c0,0.2-0.47,0.3-1.42,0.3c-1.61,0-3.52,0.07-5.73,0.22c-3.16,0.17-4.87,0.42-5.15,0.73
		c-0.27,0.32-0.45,1.85-0.54,4.61c-0.37,0.54-0.85,0.82-1.42,0.82c-0.6,0-1.22-0.25-1.85-0.75c-0.63-0.5-0.95-1.04-0.95-1.62
		c0-0.2,0.26-1,0.78-2.41c0.57-2.04,1.51-5.1,2.8-9.17c3.85-10.54,7.05-15.8,9.6-15.8c2.5,0,4.42,2.78,5.77,8.35
		c0.6,2.5,1.16,6.33,1.68,11.5c0.75,0.17,1.22,0.32,1.42,0.43C227.41,58.57,227.64,58.97,227.64,59.51z M221.61,57.88
		c-1.26-10.02-2.4-15.03-3.4-15.03c-0.8,0-2.21,2.35-4.22,7.06c-1.44,3.39-2.57,6.33-3.4,8.83c0.92-0.2,2.28-0.44,4.09-0.73
		C216.32,57.81,218.63,57.76,221.61,57.88z"/>
	<path class="st1" d="M251.46,58.44c0,2.5-1.09,4.72-3.27,6.67c-2.18,1.95-4.54,2.93-7.06,2.93c-3.65,0-6.34-1.42-8.1-4.27
		c-1.41-2.33-2.11-5.45-2.11-9.36c0-3.97,0.85-7.56,2.54-10.78c2.04-3.94,4.85-5.91,8.44-5.91c1.78,0,3.33,0.42,4.65,1.25
		c1.46,0.95,2.37,2.25,2.71,3.89c0.29,1.35,0.43,2,0.43,1.94c0,3.8-0.86,5.7-2.58,5.7c-0.52,0-0.99-0.17-1.42-0.52
		c-0.43-0.35-0.65-0.78-0.65-1.3c0-0.29,0.15-0.71,0.45-1.25c0.3-0.55,0.45-0.98,0.45-1.3c0-1.64-0.2-2.77-0.6-3.38
		c-0.52-0.84-1.53-1.25-3.04-1.25c-1.54,0-2.97,0.96-4.29,2.89c-1.09,1.61-1.8,3.29-2.14,5.05c-0.34,1.87-0.51,3.6-0.51,5.18
		c0,2.7,0.21,4.66,0.64,5.87c0.69,1.96,2.07,3.24,4.16,3.84c0.63,0.17,1.14,0.26,1.54,0.26c1.03,0,2.12-0.43,3.26-1.29
		c1-0.8,1.77-1.71,2.32-2.71c0.31-0.6,0.5-1.36,0.56-2.28l-0.17-0.13c-2.04,0-3.62,0.24-4.74,0.73c-0.34,0.17-0.69,0.36-1.03,0.56
		c-0.46,0.2-0.82,0.3-1.08,0.3c-0.72,0-1.28-0.3-1.68-0.9c-0.4-0.6-0.6-1.28-0.6-2.02c0-0.63,0.33-1.15,0.99-1.55
		c0.43-0.23,1.78-0.5,4.05-0.82c2.07-0.26,3.52-0.39,4.35-0.39C250.28,54.09,251.46,55.54,251.46,58.44z"/>
	<path class="st1" d="M278.41,52.58c0,4.13-1.02,7.64-3.06,10.51c-2.27,3.24-5.38,4.87-9.34,4.87c-1.12,0-2.33-0.22-3.62-0.65
		c-2.87-0.92-4.92-2.51-6.16-4.78c-1.06-1.95-1.59-4.56-1.59-7.84c0-4.25,1.02-7.99,3.06-11.24c2.35-3.82,5.54-5.73,9.56-5.73
		c3.53,0,6.34,1.65,8.44,4.95C277.51,45.52,278.41,48.82,278.41,52.58z M274.28,52.19c0-5.97-1.92-9.54-5.77-10.72
		c-0.4-0.11-0.86-0.17-1.38-0.17c-1.61,0-3.22,0.72-4.82,2.15c-2.55,2.33-3.83,6.47-3.83,12.44c0,0.55,0.11,1.31,0.34,2.28
		c0.49,2.21,1.22,3.8,2.2,4.78c1.12,1.15,2.76,1.72,4.91,1.72c2.93,0,5.14-1.42,6.63-4.26C273.7,58.18,274.28,55.44,274.28,52.19z"
		/>
	<path class="st1" d="M313.03,66.4v0.22c-0.43,0.63-0.96,0.95-1.59,0.95c-0.49,0-0.9-0.22-1.25-0.65c-0.26-1.03-2.16-2.71-5.71-5.04
		c-3.55-2.33-5.89-3.49-7.04-3.49c-0.2,0-0.46,0-0.77,0c-0.4,0.03-0.68,0.04-0.82,0.04v1.68c0,0.57,0.07,1.33,0.21,2.28
		c0.14,1.15,0.3,1.85,0.47,2.11c0.52,0.69,0.78,1.12,0.78,1.29c0,0.52-0.2,0.94-0.6,1.27c-0.4,0.33-0.86,0.5-1.38,0.5
		c-1.09,0-1.94-0.39-2.54-1.16c-0.57-0.69-0.86-3.53-0.86-8.53c-0.6,0-1.23-0.19-1.89-0.56c-0.75-0.46-1.12-0.95-1.12-1.46
		c0-1.06,0.96-1.82,2.89-2.28c0.11-0.89,0.21-2.11,0.3-3.66c0.06-1.75,0.13-2.97,0.22-3.66c0.17-0.92,0.39-2.3,0.65-4.13h-0.34
		c-1.15,0.03-1.72-0.47-1.72-1.51c0-0.89,0.34-1.45,1.03-1.68c0.49-0.14,0.98-0.29,1.46-0.43c0.57-0.52,1.03-0.85,1.36-1.01
		c0.33-0.16,0.85-0.24,1.57-0.24c0.52,0,0.77,0.23,0.77,0.69c0,0.14,0.36,0.22,1.08,0.22c3.36,0,6.21,0.68,8.57,2.02
		c2.9,1.64,4.35,4,4.35,7.11c0,2.38-0.75,4.35-2.24,5.9c-1,1.06-2.78,2.25-5.34,3.57c2.04,1.29,4.06,2.58,6.07,3.88
		C311.91,62.38,313.06,64.31,313.03,66.4z M307.18,47.11c0-1.84-0.94-3.23-2.81-4.18c-1.5-0.77-3.26-1.16-5.27-1.16
		c-0.26,0-0.88,0.04-1.86,0.13c0.03,1.03-0.25,2.81-0.82,5.34c-0.32,1.52-0.53,3.75-0.65,6.67c1.67,0.57,2.71,0.86,3.11,0.86
		c0.35,0,0.85-0.1,1.51-0.3c1.9-0.57,3.46-1.45,4.67-2.63C306.47,50.5,307.18,48.92,307.18,47.11z"/>
	<path class="st1" d="M336.33,63.93c0,0.48-0.1,0.91-0.3,1.28c-0.26,0.48-0.6,0.72-1.03,0.72c-0.12,0-0.28-0.02-0.5-0.06
		c-0.21-0.04-0.38-0.06-0.5-0.06c-1.23,0-3.02,0.37-5.36,1.12c-2.34,0.75-4.13,1.12-5.36,1.12c-4.62,0-6.93-3.5-6.93-10.51
		c0-5.51,0.14-9.88,0.43-13.09c0.03-0.43,0.04-0.66,0.04-0.69c0-0.2-0.03-0.5-0.09-0.88s-0.09-0.67-0.09-0.84
		c0-1.32,0.72-2.09,2.15-2.33c2.21-0.4,4.42-0.82,6.63-1.25c2.9-0.54,5.07-0.82,6.5-0.82c0.83,0,1.56,0.14,2.2,0.43
		c0.86,0.4,1.29,0.96,1.29,1.68c0,1.06-0.7,1.59-2.11,1.59c-0.17,0-0.44-0.02-0.8-0.06c-0.36-0.04-0.62-0.06-0.8-0.06
		c-2.33,0-5.5,0.52-9.52,1.55c-0.23,0.03-0.45,0.07-0.65,0.13c-0.2,0.06-0.34,0.27-0.43,0.65c-0.32,1.38-0.47,4.08-0.47,8.1
		c0,0.6,0.27,0.9,0.82,0.9c0.75,0,1.82-0.19,3.23-0.56c1.41-0.37,2.48-0.56,3.23-0.56c0.83,0,1.79,0.26,2.88,0.77
		c0.29,0.92,0.43,1.48,0.43,1.68c0,0.72-0.21,1.11-0.65,1.16c-0.43,0.06-0.89,0.11-1.38,0.17c-0.23-0.14-0.55-0.21-0.95-0.21
		c-1.01,0-2.21,0.13-3.62,0.39c-1.18,0.26-2.37,0.5-3.57,0.73c-0.17,0.03-0.32,0.06-0.45,0.09c-0.13,0.03-0.22,0.2-0.28,0.52
		c-0.06,0.52-0.09,0.93-0.09,1.25c0,2.21,0.04,3.53,0.13,3.96c0.29,1.67,1.08,2.5,2.37,2.5c1.09,0,2.68-0.33,4.78-0.99
		c2.1-0.66,3.76-0.99,5-0.99C334.49,62.44,335.75,62.94,336.33,63.93z"/>
	<path class="st1" d="M360.53,60.07c0,0.54-0.14,1.2-0.43,1.97c-0.72,1.89-2.07,3.37-4.05,4.46c-1.81,0.97-3.79,1.46-5.94,1.46
		c-3.53,0-6.24-1.33-8.14-4c-1.64-2.32-2.46-5.32-2.46-8.99c0-3.04,0.47-5.89,1.42-8.56c1.06-3.04,2.63-5.42,4.69-7.14
		c1.64-1.35,3.3-2.02,5-2.02c2.44,0,4.29,1.06,5.55,3.19c1.03,1.72,1.55,3.89,1.55,6.5c0,1.18-0.3,2.66-0.9,4.44
		c-0.72,2.18-1.52,3.27-2.41,3.27c-1,0-1.77-0.63-2.28-1.89c0.29-0.2,0.69-0.53,1.21-0.99c0.57-0.63,0.86-1.87,0.86-3.7
		c0-1.78-0.19-3.29-0.56-4.52c-0.58-1.87-1.52-2.8-2.84-2.8c-0.92,0-1.92,0.59-3.01,1.76c-0.83,0.89-1.54,1.88-2.11,2.97
		c-1.41,2.75-2.11,6.18-2.11,10.27c0,5.96,2.24,8.94,6.72,8.94c1.92,0,3.45-0.54,4.56-1.63c0.46-0.48,1.13-1.5,2.02-3.04
		c0.6-1.11,1.25-1.67,1.94-1.67c0.46,0,0.86,0.18,1.21,0.54C360.36,59.24,360.53,59.64,360.53,60.07z"/>
	<path class="st1" d="M387.61,40.61c0,0.26-0.2,0.55-0.6,0.86c-0.4,0.32-0.63,0.55-0.69,0.69c-0.75,1.41-1.09,4.18-1.03,8.31
		l0.04,1.68c0.09-0.03,0.19-0.04,0.3-0.04c0.43,0,0.84,0.24,1.23,0.73c0.39,0.49,0.58,0.96,0.58,1.42c0,0.34-0.27,0.59-0.82,0.73
		c-0.43,0.09-0.86,0.17-1.29,0.26c0.03,1.35,0.06,2.71,0.09,4.09c0.06,1.75,0.24,3.06,0.56,3.92c0.23,0.72,0.34,1.19,0.34,1.42
		c0,0.57-0.21,1.1-0.65,1.57s-0.93,0.71-1.51,0.71c-1.09,0-1.81-0.57-2.15-1.72c-0.06-0.23-0.19-1.23-0.39-3.01
		c-0.06-0.63-0.09-1.39-0.09-2.28v-1.77c-0.03-1.18-0.1-2.14-0.22-2.89c-1.67,0.06-3.65,0.3-5.94,0.73
		c-1.98,0.37-3.95,0.75-5.9,1.12c0.11,0.37,0.17,1.92,0.17,4.65c0,2.18,0.33,3.62,0.99,4.31c0.09,0.14,0.13,0.29,0.13,0.43
		c0,0.75-0.57,1.12-1.72,1.12c-1.06,0-1.89-0.33-2.5-0.99c-0.37-0.4-0.73-3.39-1.08-8.96c-0.54-0.11-0.98-0.44-1.29-0.99
		c-0.32-0.54-0.47-1.12-0.47-1.72c0-0.34,0.19-0.58,0.56-0.71c0.37-0.13,0.73-0.25,1.08-0.37c0.03-0.37,0.09-1.05,0.17-2.02
		c0.09-0.83,0.13-1.49,0.13-1.98c0-5.05,0.27-8.27,0.82-9.65c0.46-1.12,1.25-1.68,2.37-1.68c0.69,0,1.33,0.22,1.94,0.67
		c0.6,0.45,0.9,1,0.9,1.66c0,0.34-0.12,0.77-0.34,1.29c-0.32,0.69-0.49,1.09-0.52,1.21c-0.78,2.41-1.16,5.28-1.16,8.61
		c0,0.55,0,0.88,0,0.99c0.26-0.03,0.93-0.14,2.02-0.34c3.39-0.69,6.57-1.03,9.56-1.03c0.09-4.22,0.2-6.95,0.34-8.18
		c0.49-4.13,1.48-6.2,2.97-6.2c0.89,0,1.62,0.34,2.2,1.01C387.33,38.94,387.61,39.72,387.61,40.61z"/>
	<path class="st1" d="M413.67,59.51c0,1.38-0.62,2.08-1.85,2.11c0.14,0.66,0.46,1.55,0.95,2.67c-0.03,0.63-0.29,1.15-0.78,1.55
		c-0.49,0.4-1.06,0.6-1.72,0.6c-0.52,0-1.12-0.16-1.81-0.47c-0.37-0.75-0.56-1.64-0.56-2.67c0-0.26,0.01-0.63,0.04-1.12
		c0.03-0.49,0.04-0.85,0.04-1.08c0,0.2-0.47,0.3-1.42,0.3c-1.61,0-3.52,0.07-5.73,0.22c-3.16,0.17-4.87,0.42-5.15,0.73
		c-0.27,0.32-0.45,1.85-0.54,4.61c-0.37,0.54-0.85,0.82-1.42,0.82c-0.6,0-1.22-0.25-1.85-0.75c-0.63-0.5-0.95-1.04-0.95-1.62
		c0-0.2,0.26-1,0.78-2.41c0.57-2.04,1.51-5.1,2.8-9.17c3.85-10.54,7.05-15.8,9.6-15.8c2.5,0,4.42,2.78,5.77,8.35
		c0.6,2.5,1.16,6.33,1.68,11.5c0.75,0.17,1.22,0.32,1.42,0.43C413.44,58.57,413.67,58.97,413.67,59.51z M407.64,57.88
		c-1.26-10.02-2.4-15.03-3.4-15.03c-0.8,0-2.21,2.35-4.22,7.06c-1.44,3.39-2.57,6.33-3.4,8.83c0.92-0.2,2.28-0.44,4.09-0.73
		C402.34,57.81,404.65,57.76,407.64,57.88z"/>
	<path class="st1" d="M441.53,41.08c0,1.67-1.77,4.06-5.3,7.19c-3.27,2.73-6.54,5.45-9.82,8.18c-3.53,3.07-5.3,5.33-5.3,6.76
		c0,0.57,0.66,0.86,1.98,0.86s3.28-0.16,5.88-0.47c2.6-0.32,4.56-0.47,5.88-0.47c0.95,0,1.89,0.23,2.84,0.69
		c1.12,0.55,1.77,1.23,1.94,2.07c-0.46,0.83-1.08,1.25-1.85,1.25c-0.2,0-0.51-0.07-0.93-0.22c-0.42-0.14-0.74-0.22-0.97-0.22h-0.26
		c-0.72,0.06-2.7,0.23-5.94,0.52c-2.44,0.23-4.44,0.34-5.99,0.34c-2.18,0-3.73-0.2-4.65-0.6c-1.41-0.63-2.11-1.91-2.11-3.83
		c0-2.12,1.78-4.82,5.34-8.1c3.33-2.7,6.66-5.4,9.99-8.1c3.56-2.96,5.34-5.15,5.34-6.59c0-0.6-0.53-0.9-1.59-0.9
		c-1.87,0-3.95,0.31-6.26,0.93c-2.31,0.62-4.29,1.39-5.92,2.3c-0.75,0.46-1.49,0.92-2.24,1.38c-1.15,0.69-1.88,1.03-2.2,1.03
		c-1.29,0-1.94-0.95-1.94-2.84c0-0.52,0.19-0.92,0.56-1.21c0.11-0.09,0.53-0.3,1.25-0.65c6.46-3.01,11.91-4.52,16.36-4.52
		c1.52,0,2.77,0.39,3.75,1.16c0.54,0.43,1.04,1.05,1.49,1.85S441.53,40.42,441.53,41.08z"/>
	<path class="st1" d="M466.98,59.51c0,1.38-0.62,2.08-1.85,2.11c0.14,0.66,0.46,1.55,0.95,2.67c-0.03,0.63-0.29,1.15-0.78,1.55
		c-0.49,0.4-1.06,0.6-1.72,0.6c-0.52,0-1.12-0.16-1.81-0.47c-0.37-0.75-0.56-1.64-0.56-2.67c0-0.26,0.01-0.63,0.04-1.12
		c0.03-0.49,0.04-0.85,0.04-1.08c0,0.2-0.47,0.3-1.42,0.3c-1.61,0-3.52,0.07-5.73,0.22c-3.16,0.17-4.87,0.42-5.15,0.73
		c-0.27,0.32-0.45,1.85-0.54,4.61c-0.37,0.54-0.85,0.82-1.42,0.82c-0.6,0-1.22-0.25-1.85-0.75c-0.63-0.5-0.95-1.04-0.95-1.62
		c0-0.2,0.26-1,0.78-2.41c0.57-2.04,1.51-5.1,2.8-9.17c3.85-10.54,7.05-15.8,9.6-15.8c2.5,0,4.42,2.78,5.77,8.35
		c0.6,2.5,1.16,6.33,1.68,11.5c0.75,0.17,1.22,0.32,1.42,0.43C466.75,58.57,466.98,58.97,466.98,59.51z M460.95,57.88
		c-1.26-10.02-2.4-15.03-3.4-15.03c-0.8,0-2.21,2.35-4.22,7.06c-1.44,3.39-2.57,6.33-3.4,8.83c0.92-0.2,2.28-0.44,4.09-0.73
		C455.65,57.81,457.96,57.76,460.95,57.88z"/>
	<path class="st1" d="M491,49.28c0,4.51-1.03,8.58-3.1,12.2c-2.47,4.31-5.79,6.47-9.95,6.47c-1.49,0-2.78-0.32-3.88-0.95
		c-0.6,0.63-1.19,0.95-1.77,0.95c-0.34,0-0.75-0.19-1.21-0.56c-0.57-1.61-0.86-3.76-0.86-6.44c0-2.31,0.07-5.77,0.19-10.38
		c0.13-4.61,0.19-8.07,0.19-10.38c0-0.06-0.01-0.16-0.04-0.3s-0.04-0.26-0.04-0.35c0-0.52,0.19-0.94,0.56-1.25
		c0.37-0.32,0.82-0.48,1.33-0.48c0.72,0,1.36,0.26,1.92,0.77c0.56,0.52,0.77,1.12,0.62,1.81c1.46-2.15,3.54-3.23,6.24-3.23
		c3.27,0,5.78,1.24,7.54,3.71C490.26,43.06,491,45.86,491,49.28z M486.74,49.11c0-5.87-1.72-8.8-5.17-8.8
		c-1.41,0-2.8,0.72-4.18,2.16c-1.21,1.27-2.03,2.64-2.48,4.12c-0.45,1.48-0.67,3.11-0.67,4.9v9.27c0,2.7,1.13,4.06,3.4,4.06
		c2.04,0,3.89-1.05,5.55-3.15c1.38-1.78,2.33-3.81,2.84-6.08C486.51,53.54,486.74,51.38,486.74,49.11z"/>
	<path class="st1" d="M517.96,52.58c0,4.13-1.02,7.64-3.06,10.51c-2.27,3.24-5.38,4.87-9.34,4.87c-1.12,0-2.33-0.22-3.62-0.65
		c-2.87-0.92-4.92-2.51-6.16-4.78c-1.06-1.95-1.59-4.56-1.59-7.84c0-4.25,1.02-7.99,3.06-11.24c2.35-3.82,5.54-5.73,9.56-5.73
		c3.53,0,6.34,1.65,8.44,4.95C517.06,45.52,517.96,48.82,517.96,52.58z M513.83,52.19c0-5.97-1.92-9.54-5.77-10.72
		c-0.4-0.11-0.86-0.17-1.38-0.17c-1.61,0-3.22,0.72-4.82,2.15c-2.55,2.33-3.83,6.47-3.83,12.44c0,0.55,0.11,1.31,0.34,2.28
		c0.49,2.21,1.22,3.8,2.2,4.78c1.12,1.15,2.76,1.72,4.91,1.72c2.93,0,5.14-1.42,6.63-4.26C513.25,58.18,513.83,55.44,513.83,52.19z"
		/>
</g>
<g>
	<path class="st1" d="M219.45,338.99c0,1.2-0.54,1.81-1.61,1.83c0.12,0.57,0.4,1.34,0.82,2.32c-0.03,0.55-0.25,1-0.67,1.34
		c-0.42,0.35-0.92,0.52-1.5,0.52c-0.45,0-0.97-0.14-1.57-0.41c-0.32-0.65-0.49-1.42-0.49-2.32c0-0.22,0.01-0.55,0.04-0.97
		c0.02-0.42,0.04-0.73,0.04-0.93c0,0.17-0.41,0.26-1.23,0.26c-1.39,0-3.05,0.06-4.97,0.19c-2.74,0.15-4.23,0.36-4.46,0.63
		c-0.24,0.27-0.39,1.61-0.47,4c-0.32,0.47-0.74,0.71-1.23,0.71c-0.52,0-1.06-0.22-1.61-0.65c-0.55-0.44-0.82-0.9-0.82-1.4
		c0-0.17,0.22-0.87,0.67-2.09c0.5-1.77,1.31-4.42,2.43-7.96c3.34-9.14,6.11-13.71,8.33-13.71c2.17,0,3.84,2.42,5.01,7.25
		c0.52,2.17,1.01,5.49,1.46,9.98c0.65,0.15,1.06,0.27,1.23,0.37C219.25,338.17,219.45,338.52,219.45,338.99z M214.22,337.57
		c-1.1-8.69-2.08-13.04-2.95-13.04c-0.7,0-1.92,2.04-3.66,6.13c-1.25,2.94-2.23,5.49-2.95,7.66c0.8-0.17,1.98-0.39,3.55-0.63
		C209.63,337.51,211.63,337.47,214.22,337.57z"/>
	<path class="st1" d="M226.37,344.6c0,0.45-0.18,0.83-0.54,1.14c-0.36,0.31-0.78,0.47-1.25,0.47c-1.57,0-2.35-2.05-2.35-6.17
		c0-1.87,0.02-4.67,0.06-8.41s0.06-6.54,0.06-8.41c0-0.3-0.04-0.73-0.11-1.31s-0.11-1-0.11-1.27c0.82-0.55,1.47-0.82,1.94-0.82
		c0.55,0,1.07,0.18,1.57,0.54s0.75,0.82,0.75,1.36c0,0.27-0.06,0.6-0.19,0.97c-0.17,0.6-0.27,0.92-0.3,0.97
		c-0.32,1.54-0.49,3.74-0.49,6.58c0,4.51,0,6.83,0,6.95c0.08,3.14,0.34,5.33,0.78,6.58C226.3,344.12,226.37,344.4,226.37,344.6z"/>
	<path class="st1" d="M241.2,334.51c-0.05,0.62-0.21,1.72-0.49,3.29c-0.25,1.37-0.37,2.47-0.37,3.29c0,0.75,0.04,1.87,0.11,3.36
		c0.07,1.49,0.11,2.62,0.11,3.36c0,1.54-0.15,2.69-0.45,3.44c-0.35,0.95-1.01,1.71-1.98,2.3c-0.97,0.58-1.98,0.88-3.03,0.88
		c-1.1,0-2.45-0.3-4.07-0.9c-1.94-0.7-2.91-1.47-2.91-2.32c0-1.1,0.51-1.64,1.53-1.64c0.47,0,0.8,0.14,0.97,0.41
		c0.32,0.5,0.54,0.8,0.65,0.9c0.11,0.1,0.52,0.22,1.21,0.35s1.18,0.21,1.46,0.21c2.24,0,3.36-1.41,3.36-4.22
		c0-0.82-0.04-1.52-0.11-2.09c-1.07,0.92-2.35,1.38-3.85,1.38c-0.62,0-1.32-0.17-2.09-0.52c-0.77-0.35-1.36-0.76-1.76-1.23
		c-0.77-0.9-1.16-2.23-1.16-4c0-2.12,0.49-4.45,1.46-6.99c1.2-3.11,2.65-4.67,4.37-4.67c1.05,0,2.04,0.49,2.99,1.46
		c0.7,0.92,1.4,1.83,2.09,2.73c0.2,0.25,0.51,0.47,0.93,0.67C240.71,334.2,241.05,334.38,241.2,334.51z M237.42,336.75
		c0-0.37-0.17-0.68-0.52-0.93c-0.15-2.29-0.95-3.44-2.39-3.44c-0.82,0-1.51,1.16-2.05,3.47c-0.4,1.77-0.6,3.3-0.6,4.6
		c0,2.44,0.63,3.66,1.91,3.66c1.2,0,2.14-0.97,2.84-2.92C237.15,339.7,237.42,338.22,237.42,336.75z"/>
	<path class="st1" d="M256.67,338.24c0,2.24-0.56,4.16-1.68,5.75c-1.3,1.82-3.01,2.73-5.16,2.73c-2.19,0-3.85-0.75-4.97-2.24
		c-1.02-1.32-1.53-3.11-1.53-5.38c0-2.24,0.56-4.36,1.68-6.35c1.29-2.37,2.98-3.55,5.04-3.55c0.65,0,1.46,0.29,2.43,0.86
		C255.27,331.73,256.67,334.46,256.67,338.24z M253.38,338.17c0-3.81-0.92-5.72-2.76-5.72c-1.32,0-2.32,0.81-2.99,2.43
		c-0.5,1.22-0.75,2.6-0.75,4.15c0,3.31,0.98,4.97,2.95,4.97c1.27,0,2.22-0.68,2.84-2.06C253.14,340.9,253.38,339.64,253.38,338.17z"
		/>
	<path class="st1" d="M278.41,338.24c0,2.24-0.56,4.16-1.68,5.75c-1.29,1.82-3.01,2.73-5.16,2.73c-2.19,0-3.85-0.75-4.97-2.24
		c-1.02-1.32-1.53-3.11-1.53-5.38c0-2.24,0.56-4.36,1.68-6.35c1.29-2.37,2.98-3.55,5.04-3.55c0.65,0,1.46,0.29,2.43,0.86
		C277.02,331.73,278.41,334.46,278.41,338.24z M275.12,338.17c0-3.81-0.92-5.72-2.76-5.72c-1.32,0-2.32,0.81-2.99,2.43
		c-0.5,1.22-0.75,2.6-0.75,4.15c0,3.31,0.98,4.97,2.95,4.97c1.27,0,2.22-0.68,2.84-2.06C274.89,340.9,275.12,339.64,275.12,338.17z"
		/>
	<path class="st1" d="M293.62,341.38c0,0.77-0.59,1.68-1.76,2.73c-1.05,0.97-1.99,1.58-2.82,1.83s-1.63,0.37-2.37,0.37
		c-1.97,0-3.51-0.62-4.62-1.87s-1.66-2.85-1.66-4.82c0-1.92,0.51-4.06,1.53-6.43c1.22-2.84,2.64-4.26,4.26-4.26
		c0.9,0,1.98,0.35,3.25,1.05c1.34,0.77,2.13,1.54,2.35,2.32c0.2,0.67,0.3,1.43,0.3,2.28c0,0.77-0.16,1.64-0.49,2.62
		c-0.4,1.25-0.9,1.87-1.49,1.87c-0.42,0-0.82-0.12-1.2-0.37c-0.45-0.27-0.67-0.61-0.67-1c0-0.02,0.11-0.31,0.34-0.85
		c0.12-0.25,0.19-0.93,0.19-2.04c0-0.92-0.04-1.51-0.11-1.78c-0.15-0.77-0.5-1.15-1.05-1.15c-1.22,0-2.17,1.06-2.84,3.17
		c-0.5,1.56-0.75,3.14-0.75,4.73c0,2.66,0.85,3.99,2.54,3.99c0.67,0,1.45-0.35,2.32-1.05c0.8-0.65,1.36-1.31,1.68-1.98
		c0.4-0.8,0.88-1.2,1.46-1.2c0.37,0,0.73,0.22,1.08,0.65C293.45,340.6,293.62,341.01,293.62,341.38z"/>
	<path class="st1" d="M307.37,332.26c0,0.77-0.09,1.93-0.28,3.49c-0.19,1.55-0.28,2.73-0.28,3.52c0,0.7,0.03,1.73,0.09,3.11
		c0.06,1.38,0.09,2.4,0.09,3.08c0,0.57-0.49,0.86-1.46,0.86c-1,0-1.63-0.47-1.9-1.42c-0.95,0.62-1.87,0.93-2.77,0.93
		c-0.72,0-1.54-0.19-2.47-0.58c-0.92-0.39-1.57-0.85-1.94-1.4c-0.72-1.05-1.08-2.73-1.08-5.04c0-0.8,0.03-2.19,0.08-4.18
		c0.08-1.77,0.1-3.15,0.08-4.15c0.75-0.55,1.38-0.82,1.89-0.82c1.21,0,1.81,0.58,1.81,1.76c0,0.4-0.06,1-0.19,1.79
		c-0.12,0.8-0.19,1.4-0.19,1.79v5.27c0,0.6,0.16,1.22,0.49,1.87c0.4,0.75,0.87,1.12,1.42,1.12c1.07,0,1.87-0.69,2.39-2.06
		c0.35-0.95,0.52-2.09,0.52-3.44v-4.48c0-0.57-0.15-1.28-0.45-2.13c0.62-0.57,1.22-0.86,1.79-0.86c0.6,0,1.14,0.19,1.63,0.56
		C307.13,331.22,307.37,331.69,307.37,332.26z"/>
	<path class="st1" d="M319.06,332.75c0,0.17-0.03,0.45-0.08,0.82c-0.52,0.75-1.07,1.12-1.64,1.12c-0.47,0-0.9-0.27-1.27-0.82
		c-0.05-1.12-0.45-1.68-1.2-1.68c-0.45,0-1,1.18-1.64,3.55c-0.3,1.05-0.45,2.5-0.45,4.37c0,1.77,0.08,2.84,0.24,3.21
		c0.19,0.47,0.28,0.8,0.28,0.97c0,0.42-0.19,0.77-0.57,1.03s-0.81,0.39-1.28,0.39c-1.33,0-2-0.62-2-1.87c0-0.12,0.03-0.3,0.09-0.52
		c0.06-0.22,0.09-0.39,0.09-0.49c0-1.27-0.06-3.16-0.19-5.66c-0.12-2.5-0.19-4.38-0.19-5.62c0-1.12,0.67-1.68,2.02-1.68
		c0.8,0,1.35,0.24,1.64,0.71c0.7-0.77,1.48-1.16,2.35-1.16c0.6,0,1.17,0.16,1.72,0.49c0.37,0.2,0.81,0.63,1.31,1.29
		C318.81,331.86,319.06,332.38,319.06,332.75z"/>
	<path class="st1" d="M331.02,332.75c0,0.17-0.03,0.45-0.07,0.82c-0.52,0.75-1.07,1.12-1.64,1.12c-0.47,0-0.9-0.27-1.27-0.82
		c-0.05-1.12-0.45-1.68-1.2-1.68c-0.45,0-1,1.18-1.64,3.55c-0.3,1.05-0.45,2.5-0.45,4.37c0,1.77,0.08,2.84,0.24,3.21
		c0.19,0.47,0.28,0.8,0.28,0.97c0,0.42-0.19,0.77-0.57,1.03c-0.38,0.26-0.81,0.39-1.28,0.39c-1.33,0-2-0.62-2-1.87
		c0-0.12,0.03-0.3,0.09-0.52c0.06-0.22,0.09-0.39,0.09-0.49c0-1.27-0.06-3.16-0.19-5.66c-0.12-2.5-0.19-4.38-0.19-5.62
		c0-1.12,0.67-1.68,2.02-1.68c0.8,0,1.35,0.24,1.64,0.71c0.7-0.77,1.48-1.16,2.35-1.16c0.6,0,1.17,0.16,1.72,0.49
		c0.37,0.2,0.81,0.63,1.31,1.29C330.77,331.86,331.02,332.38,331.02,332.75z"/>
	<path class="st1" d="M337.37,331.22c0,0.45-0.1,1.08-0.3,1.91s-0.3,1.46-0.3,1.91v7.7c0,0.47,0.15,1.22,0.45,2.24
		c-0.38,0.57-0.79,0.86-1.25,0.86c-1.58,0-2.45-0.79-2.6-2.35c-0.25-2.91-0.37-5.11-0.37-6.58c0-2.47,0.1-4.53,0.3-6.2
		c0-0.12,0-0.25,0-0.37c0-0.45,0.35-0.67,1.04-0.67c0.62,0,1.23,0.12,1.85,0.37C336.98,330.3,337.37,330.7,337.37,331.22z
		 M337.71,325.99c0,0.55-0.19,1-0.56,1.34c-0.37,0.35-0.83,0.52-1.38,0.52c-0.65,0-1.25-0.22-1.81-0.67s-0.84-1-0.84-1.64
		c0-0.55,0.19-1,0.58-1.35c0.39-0.35,0.87-0.52,1.44-0.52c0.67,0,1.27,0.22,1.79,0.65C337.45,324.76,337.71,325.32,337.71,325.99z"
		/>
	<path class="st1" d="M352.62,338.24c0,2.24-0.56,4.16-1.68,5.75c-1.3,1.82-3.01,2.73-5.16,2.73c-2.19,0-3.85-0.75-4.97-2.24
		c-1.02-1.32-1.53-3.11-1.53-5.38c0-2.24,0.56-4.36,1.68-6.35c1.29-2.37,2.98-3.55,5.04-3.55c0.65,0,1.46,0.29,2.43,0.86
		C351.22,331.73,352.62,334.46,352.62,338.24z M349.33,338.17c0-3.81-0.92-5.72-2.77-5.72c-1.32,0-2.32,0.81-2.99,2.43
		c-0.5,1.22-0.75,2.6-0.75,4.15c0,3.31,0.98,4.97,2.95,4.97c1.27,0,2.22-0.68,2.84-2.06C349.09,340.9,349.33,339.64,349.33,338.17z"
		/>
	<path class="st1" d="M374.06,341.38c0,0.77-0.59,1.68-1.76,2.73c-1.05,0.97-1.99,1.58-2.82,1.83c-0.83,0.25-1.62,0.37-2.37,0.37
		c-1.97,0-3.51-0.62-4.61-1.87c-1.11-1.25-1.66-2.85-1.66-4.82c0-1.92,0.51-4.06,1.53-6.43c1.22-2.84,2.64-4.26,4.26-4.26
		c0.9,0,1.98,0.35,3.25,1.05c1.35,0.77,2.13,1.54,2.35,2.32c0.2,0.67,0.3,1.43,0.3,2.28c0,0.77-0.16,1.64-0.49,2.62
		c-0.4,1.25-0.9,1.87-1.5,1.87c-0.42,0-0.82-0.12-1.2-0.37c-0.45-0.27-0.67-0.61-0.67-1c0-0.02,0.11-0.31,0.34-0.85
		c0.12-0.25,0.19-0.93,0.19-2.04c0-0.92-0.04-1.51-0.11-1.78c-0.15-0.77-0.5-1.15-1.05-1.15c-1.22,0-2.17,1.06-2.84,3.17
		c-0.5,1.56-0.75,3.14-0.75,4.73c0,2.66,0.85,3.99,2.54,3.99c0.67,0,1.45-0.35,2.32-1.05c0.8-0.65,1.36-1.31,1.68-1.98
		c0.4-0.8,0.88-1.2,1.46-1.2c0.37,0,0.73,0.22,1.08,0.65C373.89,340.6,374.06,341.01,374.06,341.38z"/>
	<path class="st1" d="M389.34,338.24c0,2.24-0.56,4.16-1.68,5.75c-1.29,1.82-3.01,2.73-5.16,2.73c-2.19,0-3.85-0.75-4.97-2.24
		c-1.02-1.32-1.53-3.11-1.53-5.38c0-2.24,0.56-4.36,1.68-6.35c1.29-2.37,2.98-3.55,5.04-3.55c0.65,0,1.46,0.29,2.43,0.86
		C387.95,331.73,389.34,334.46,389.34,338.24z M386.06,338.17c0-3.81-0.92-5.72-2.76-5.72c-1.32,0-2.32,0.81-2.99,2.43
		c-0.5,1.22-0.75,2.6-0.75,4.15c0,3.31,0.98,4.97,2.95,4.97c1.27,0,2.22-0.68,2.84-2.06C385.82,340.9,386.06,339.64,386.06,338.17z"
		/>
	<path class="st1" d="M405.04,345.34c-0.37,0.57-0.83,0.86-1.38,0.86c-0.42,0-1.12-0.25-2.09-0.75v-0.45c0-0.55,0.01-1.36,0.04-2.43
		c0.02-1.07,0.04-1.86,0.04-2.35c0-5.33-0.79-8-2.38-8c-0.45,0-0.95,0.35-1.52,1.05c-1.76,2.14-2.64,4.72-2.64,7.73
		c0,0.42,0.08,1.05,0.24,1.89c0.16,0.83,0.24,1.46,0.24,1.89c0,0.35-0.16,0.64-0.49,0.86c-0.32,0.22-0.67,0.34-1.05,0.34
		c-1.49,0-2.24-0.95-2.24-2.84v-7.81c0-0.2,0.02-0.49,0.07-0.88c0.05-0.39,0.08-0.68,0.08-0.88c0-0.3-0.04-0.73-0.13-1.31
		c-0.09-0.57-0.13-1-0.13-1.27c0-0.4,0.23-0.78,0.69-1.14c0.46-0.36,0.88-0.54,1.25-0.54c0.55,0,1.11,0.31,1.68,0.93l-0.11,1.49
		c0.92-1.47,2.06-2.2,3.4-2.2c0.87,0,1.79,0.3,2.76,0.9c0.97,0.6,1.68,1.27,2.13,2.02c1.02,1.89,1.53,4.38,1.53,7.47V345.34z"/>
	<path class="st1" d="M425.92,342.32c0,1.25-0.85,2.22-2.54,2.91c-1.32,0.55-2.7,0.82-4.15,0.82c-3.84,0-5.75-2.18-5.75-6.54
		c0-1.79,0.44-3.79,1.31-5.98c1.07-2.69,2.37-4.04,3.89-4.04c1.37,0,2.85,0.61,4.43,1.83c1.58,1.22,2.37,2.49,2.37,3.81
		c0,1.64-0.74,2.95-2.2,3.92c-1.3,0.87-2.84,1.31-4.63,1.31c-0.35,0-0.91-0.21-1.68-0.63c0.1,2.37,0.8,3.55,2.09,3.55
		c1.1,0,2.17-0.31,3.23-0.93c1.06-0.62,1.74-0.93,2.04-0.93C425.39,341.42,425.92,341.72,425.92,342.32z M421.85,335.25
		c0-0.62-0.18-1.21-0.54-1.78c-0.36-0.56-0.84-0.84-1.44-0.84c-0.82,0-1.46,0.36-1.91,1.08c-0.37,0.62-0.56,1.36-0.56,2.2
		c0,0.47,0.16,0.86,0.49,1.16c0.32,0.3,0.73,0.45,1.23,0.45C420.94,337.53,421.85,336.77,421.85,335.25z"/>
	<path class="st1" d="M432.12,344.6c0,0.45-0.18,0.83-0.54,1.14s-0.78,0.47-1.25,0.47c-1.57,0-2.35-2.05-2.35-6.17
		c0-1.87,0.02-4.67,0.06-8.41c0.04-3.74,0.06-6.54,0.06-8.41c0-0.3-0.04-0.73-0.11-1.31c-0.07-0.57-0.11-1-0.11-1.27
		c0.82-0.55,1.47-0.82,1.94-0.82c0.55,0,1.07,0.18,1.57,0.54c0.5,0.36,0.75,0.82,0.75,1.36c0,0.27-0.06,0.6-0.19,0.97
		c-0.17,0.6-0.27,0.92-0.3,0.97c-0.32,1.54-0.49,3.74-0.49,6.58c0,4.51,0,6.83,0,6.95c0.08,3.14,0.34,5.33,0.79,6.58
		C432.06,344.12,432.12,344.4,432.12,344.6z"/>
	<path class="st1" d="M453.01,336.71c0,2.54-0.45,4.7-1.35,6.46c-1.12,2.29-2.82,3.44-5.08,3.44c-1.22,0-2.27-0.35-3.14-1.05
		c0,0.27,0,0.65,0,1.12c0,0.55,0,0.92,0,1.12c0,2.39,0.27,4.27,0.82,5.64c0.25,0.55,0.37,0.9,0.37,1.05c0,0.85-0.5,1.27-1.49,1.27
		c-0.75,0-1.31-0.14-1.68-0.41c-0.27-0.17-0.55-0.8-0.82-1.87c-0.22-0.95-0.34-1.67-0.34-2.17v-9c0-0.82,0.05-1.94,0.15-3.36
		c0.1-1.59,0.16-2.7,0.19-3.33c0.02-0.62,0.02-1.44,0-2.47c0-1.29,0-2.13,0-2.5c0-2.12,0.69-3.18,2.07-3.18
		c0.34,0,0.67,0.12,0.96,0.36c0.3,0.24,0.44,0.52,0.44,0.84c0,0.55-0.06,1.54-0.19,2.99c0.97-1.37,2.14-2.06,3.51-2.06
		c1.84,0,3.26,0.75,4.26,2.24C452.57,333.15,453.01,334.77,453.01,336.71z M449.68,336.38c0-2.69-0.58-4.04-1.73-4.04
		c-0.5,0-1.15,0.49-1.96,1.46c-1.55,1.87-2.41,4.45-2.56,7.73c0.28,0.15,0.76,0.67,1.47,1.57c0.55,0.67,1.1,1.01,1.65,1.01
		C448.64,344.11,449.68,341.53,449.68,336.38z"/>
	<path class="st1" d="M468.93,339.25c0,3.21-0.1,5.48-0.3,6.8c-0.12,0.77-0.65,1.16-1.57,1.16c-1.39,0-2.02-0.7-1.87-2.09
		c-1.25,0.6-2.54,0.9-3.89,0.9c-1.29,0-2.53-0.32-3.7-0.97c-1.39-0.77-2.09-1.76-2.09-2.95c0-1.17,0.8-2.27,2.39-3.29
		c1.45-0.92,2.8-1.38,4.07-1.38h3.18v-0.89c0.02-2.6-0.75-3.89-2.32-3.89c-1.97,0-2.95,0.91-2.95,2.74c0,0.62-0.35,0.92-1.05,0.92
		c-0.42,0-0.87-0.19-1.33-0.58c-0.46-0.39-0.69-0.79-0.69-1.21c0-1.39,0.5-2.54,1.49-3.44c1-0.9,2.19-1.34,3.59-1.34
		C466.59,329.72,468.93,332.9,468.93,339.25z M465.15,340.6c0-0.5-0.37-0.75-1.12-0.75c-3.11,0-4.67,0.73-4.67,2.2
		c0,0.8,0.68,1.2,2.05,1.2c0.85,0,1.64-0.24,2.39-0.71C464.71,342.02,465.15,341.37,465.15,340.6z"/>
	<path class="st1" d="M484.4,334.51c-0.05,0.62-0.21,1.72-0.49,3.29c-0.25,1.37-0.37,2.47-0.37,3.29c0,0.75,0.04,1.87,0.11,3.36
		c0.07,1.49,0.11,2.62,0.11,3.36c0,1.54-0.15,2.69-0.45,3.44c-0.35,0.95-1.01,1.71-1.98,2.3c-0.97,0.58-1.98,0.88-3.03,0.88
		c-1.1,0-2.45-0.3-4.07-0.9c-1.94-0.7-2.92-1.47-2.92-2.32c0-1.1,0.51-1.64,1.53-1.64c0.47,0,0.8,0.14,0.97,0.41
		c0.32,0.5,0.54,0.8,0.65,0.9c0.11,0.1,0.52,0.22,1.21,0.35s1.18,0.21,1.46,0.21c2.24,0,3.36-1.41,3.36-4.22
		c0-0.82-0.04-1.52-0.11-2.09c-1.07,0.92-2.35,1.38-3.85,1.38c-0.62,0-1.32-0.17-2.09-0.52c-0.77-0.35-1.36-0.76-1.76-1.23
		c-0.77-0.9-1.16-2.23-1.16-4c0-2.12,0.49-4.45,1.46-6.99c1.2-3.11,2.65-4.67,4.37-4.67c1.05,0,2.04,0.49,2.99,1.46
		c0.7,0.92,1.39,1.83,2.09,2.73c0.2,0.25,0.51,0.47,0.93,0.67C483.91,334.2,484.25,334.38,484.4,334.51z M480.62,336.75
		c0-0.37-0.17-0.68-0.52-0.93c-0.15-2.29-0.95-3.44-2.39-3.44c-0.82,0-1.51,1.16-2.05,3.47c-0.4,1.77-0.6,3.3-0.6,4.6
		c0,2.44,0.63,3.66,1.91,3.66c1.2,0,2.14-0.97,2.84-2.92C480.35,339.7,480.62,338.22,480.62,336.75z"/>
	<path class="st1" d="M499.87,338.24c0,2.24-0.56,4.16-1.68,5.75c-1.3,1.82-3.01,2.73-5.16,2.73c-2.19,0-3.85-0.75-4.97-2.24
		c-1.02-1.32-1.53-3.11-1.53-5.38c0-2.24,0.56-4.36,1.68-6.35c1.29-2.37,2.98-3.55,5.04-3.55c0.65,0,1.46,0.29,2.43,0.86
		C498.47,331.73,499.87,334.46,499.87,338.24z M496.58,338.17c0-3.81-0.92-5.72-2.77-5.72c-1.32,0-2.32,0.81-2.99,2.43
		c-0.5,1.22-0.75,2.6-0.75,4.15c0,3.31,0.98,4.97,2.95,4.97c1.27,0,2.22-0.68,2.84-2.06C496.34,340.9,496.58,339.64,496.58,338.17z"
		/>
</g>
<g>
	<path class="st2" d="M181.53,379.76c-0.82,0-1.22-0.43-1.22-1.28v-9.69c0-0.43,0.11-0.76,0.31-0.99c0.21-0.23,0.49-0.34,0.84-0.34
		c0.29,0,0.53,0.06,0.7,0.18c0.17,0.12,0.36,0.32,0.58,0.59l5.51,7.02v-6.53c0-0.84,0.41-1.26,1.22-1.26c0.82,0,1.22,0.42,1.22,1.26
		v9.81c0,0.37-0.1,0.67-0.29,0.89c-0.19,0.22-0.45,0.33-0.78,0.33c-0.32,0-0.57-0.06-0.76-0.19c-0.19-0.12-0.39-0.32-0.6-0.59
		l-5.51-7.02v6.53C182.76,379.33,182.35,379.76,181.53,379.76z"/>
	<path class="st2" d="M196.9,379.79c-0.89,0-1.67-0.18-2.34-0.54c-0.66-0.36-1.18-0.86-1.54-1.51c-0.36-0.65-0.54-1.42-0.54-2.32
		c0-0.88,0.18-1.65,0.54-2.3c0.36-0.65,0.88-1.15,1.54-1.5c0.66-0.35,1.44-0.53,2.34-0.53c0.9,0,1.67,0.18,2.34,0.53
		c0.66,0.35,1.18,0.85,1.55,1.5s0.55,1.42,0.55,2.3c0,0.9-0.18,1.67-0.55,2.32s-0.88,1.16-1.55,1.51
		C198.58,379.61,197.8,379.79,196.9,379.79z M196.9,377.87c0.54,0,0.99-0.2,1.33-0.59s0.52-1.01,0.52-1.85
		c0-0.83-0.17-1.44-0.52-1.83c-0.35-0.39-0.79-0.59-1.33-0.59c-0.54,0-0.99,0.2-1.33,0.59c-0.34,0.39-0.51,1-0.51,1.83
		c0,0.84,0.17,1.46,0.51,1.85C195.92,377.67,196.36,377.87,196.9,377.87z"/>
	<path class="st2" d="M210.84,379.79c-0.5,0-1.01-0.04-1.54-0.14c-0.53-0.09-1.01-0.24-1.44-0.46c-0.28-0.15-0.47-0.33-0.55-0.56
		c-0.08-0.23-0.09-0.45-0.01-0.66c0.08-0.21,0.22-0.38,0.42-0.48s0.44-0.1,0.71,0.01c0.46,0.19,0.89,0.33,1.28,0.41
		c0.39,0.08,0.77,0.12,1.13,0.12c0.48,0,0.83-0.08,1.05-0.23s0.34-0.35,0.34-0.6c0-0.4-0.29-0.65-0.87-0.75l-1.79-0.32
		c-0.71-0.12-1.26-0.38-1.63-0.76c-0.37-0.38-0.56-0.89-0.56-1.51c0-0.57,0.16-1.05,0.48-1.46c0.32-0.41,0.75-0.73,1.31-0.95
		c0.56-0.23,1.2-0.34,1.92-0.34c1,0,1.88,0.19,2.65,0.58c0.26,0.12,0.42,0.3,0.48,0.53c0.06,0.23,0.05,0.45-0.04,0.66
		c-0.09,0.22-0.24,0.38-0.44,0.48c-0.2,0.11-0.45,0.1-0.73-0.03c-0.37-0.17-0.71-0.29-1.02-0.37c-0.31-0.07-0.6-0.11-0.87-0.11
		c-0.51,0-0.88,0.08-1.11,0.25s-0.34,0.37-0.34,0.62c0,0.4,0.27,0.65,0.8,0.75l1.79,0.32c0.74,0.12,1.3,0.37,1.68,0.74
		c0.38,0.37,0.58,0.87,0.58,1.5c0,0.87-0.34,1.55-1.02,2.04C212.85,379.55,211.95,379.79,210.84,379.79z"/>
	<path class="st2" d="M220.34,379.79c-0.99,0-1.83-0.18-2.54-0.54c-0.71-0.36-1.25-0.86-1.63-1.51c-0.38-0.65-0.57-1.42-0.57-2.3
		c0-0.86,0.18-1.62,0.55-2.27c0.37-0.65,0.87-1.16,1.51-1.53c0.64-0.37,1.38-0.55,2.22-0.55c1.21,0,2.18,0.38,2.89,1.15
		c0.71,0.76,1.07,1.8,1.07,3.1c0,0.43-0.27,0.65-0.8,0.65h-5c0.09,0.66,0.33,1.14,0.72,1.44c0.39,0.3,0.93,0.45,1.62,0.45
		c0.27,0,0.58-0.03,0.93-0.09s0.68-0.17,1-0.33c0.33-0.16,0.61-0.19,0.83-0.09c0.23,0.1,0.38,0.26,0.47,0.49
		c0.09,0.23,0.09,0.46,0,0.71c-0.08,0.24-0.27,0.45-0.57,0.6c-0.4,0.22-0.84,0.38-1.32,0.48
		C221.25,379.74,220.79,379.79,220.34,379.79z M219.99,372.79c-0.54,0-0.98,0.17-1.32,0.49c-0.33,0.33-0.54,0.79-0.62,1.38h3.67
		C221.65,373.41,221.07,372.79,219.99,372.79z"/>
	<path class="st2" d="M231.38,379.76c-0.86,0-1.29-0.44-1.29-1.31v-9.67c0-0.87,0.43-1.31,1.29-1.31c0.85,0,1.28,0.44,1.28,1.31
		v3.62c0.29-0.43,0.67-0.76,1.14-0.98s0.98-0.33,1.55-0.33c1.96,0,2.94,1.17,2.94,3.5v3.86c0,0.87-0.43,1.31-1.29,1.31
		c-0.41,0-0.72-0.11-0.94-0.34c-0.22-0.23-0.33-0.55-0.33-0.97v-3.74c0-0.58-0.11-0.99-0.32-1.25c-0.22-0.25-0.53-0.38-0.95-0.38
		c-0.54,0-0.98,0.17-1.3,0.51c-0.32,0.34-0.48,0.79-0.48,1.36v3.5C232.65,379.32,232.23,379.76,231.38,379.76z"/>
	<path class="st2" d="M243.02,379.79c-0.62,0-1.17-0.12-1.65-0.36s-0.85-0.56-1.13-0.97c-0.28-0.41-0.42-0.87-0.42-1.38
		c0-0.6,0.16-1.08,0.48-1.45s0.83-0.62,1.55-0.77c0.71-0.15,1.66-0.23,2.84-0.23h0.61v-0.29c0-0.5-0.11-0.85-0.34-1.06
		s-0.61-0.31-1.16-0.31c-0.31,0-0.64,0.04-1,0.11c-0.36,0.07-0.75,0.2-1.17,0.37c-0.32,0.14-0.58,0.14-0.8,0.03
		c-0.22-0.12-0.36-0.3-0.43-0.54c-0.07-0.24-0.05-0.49,0.06-0.74c0.11-0.25,0.32-0.43,0.64-0.54c0.53-0.2,1.03-0.35,1.5-0.43
		c0.47-0.08,0.9-0.13,1.3-0.13c1.29,0,2.26,0.29,2.89,0.88c0.63,0.58,0.95,1.49,0.95,2.71v3.77c0,0.87-0.4,1.31-1.19,1.31
		c-0.8,0-1.21-0.44-1.21-1.31v-0.1c-0.17,0.44-0.46,0.79-0.86,1.05S243.6,379.79,243.02,379.79z M243.6,378.07
		c0.47,0,0.88-0.16,1.21-0.49c0.33-0.33,0.49-0.75,0.49-1.27v-0.34h-0.59c-0.87,0-1.49,0.08-1.85,0.23
		c-0.36,0.15-0.54,0.42-0.54,0.79c0,0.32,0.11,0.58,0.33,0.78S243.18,378.07,243.6,378.07z"/>
	<path class="st2" d="M257.23,379.79c-0.62,0-1.17-0.12-1.65-0.36c-0.48-0.24-0.85-0.56-1.13-0.97c-0.28-0.41-0.42-0.87-0.42-1.38
		c0-0.6,0.16-1.08,0.48-1.45s0.83-0.62,1.55-0.77s1.66-0.23,2.84-0.23h0.61v-0.29c0-0.5-0.11-0.85-0.34-1.06
		c-0.23-0.21-0.61-0.31-1.16-0.31c-0.31,0-0.64,0.04-1,0.11c-0.36,0.07-0.75,0.2-1.17,0.37c-0.32,0.14-0.58,0.14-0.8,0.03
		c-0.22-0.12-0.36-0.3-0.42-0.54c-0.07-0.24-0.05-0.49,0.06-0.74c0.11-0.25,0.32-0.43,0.64-0.54c0.53-0.2,1.03-0.35,1.5-0.43
		s0.9-0.13,1.3-0.13c1.29,0,2.25,0.29,2.89,0.88c0.63,0.58,0.95,1.49,0.95,2.71v3.77c0,0.87-0.4,1.31-1.19,1.31
		c-0.81,0-1.21-0.44-1.21-1.31v-0.1c-0.17,0.44-0.46,0.79-0.86,1.05S257.81,379.79,257.23,379.79z M257.81,378.07
		c0.48,0,0.88-0.16,1.21-0.49c0.33-0.33,0.49-0.75,0.49-1.27v-0.34h-0.59c-0.87,0-1.49,0.08-1.85,0.23
		c-0.36,0.15-0.54,0.42-0.54,0.79c0,0.32,0.11,0.58,0.33,0.78C257.07,377.97,257.39,378.07,257.81,378.07z"/>
	<path class="st2" d="M265.17,382.82c-0.86,0-1.29-0.44-1.29-1.31v-9.1c0-0.86,0.42-1.29,1.26-1.29c0.85,0,1.27,0.43,1.27,1.29v0.05
		c0.24-0.42,0.59-0.75,1.05-1c0.46-0.25,0.99-0.37,1.56-0.37c0.72,0,1.36,0.18,1.91,0.53c0.55,0.35,0.98,0.85,1.28,1.5
		c0.31,0.65,0.46,1.42,0.46,2.31s-0.15,1.67-0.46,2.32s-0.73,1.16-1.28,1.51c-0.55,0.36-1.19,0.54-1.91,0.54
		c-0.56,0-1.06-0.12-1.52-0.36s-0.81-0.56-1.06-0.95v3.03C266.45,382.38,266.02,382.82,265.17,382.82z M268.27,377.87
		c0.54,0,0.99-0.2,1.33-0.59s0.51-1.01,0.51-1.85c0-0.83-0.17-1.44-0.51-1.83c-0.34-0.39-0.78-0.59-1.33-0.59
		c-0.56,0-1,0.2-1.34,0.59c-0.34,0.39-0.51,1-0.51,1.83c0,0.84,0.17,1.46,0.51,1.85C267.26,377.67,267.71,377.87,268.27,377.87z"/>
	<path class="st2" d="M277.26,379.79c-2.01,0-3.01-1.12-3.01-3.35v-7.67c0-0.87,0.43-1.31,1.29-1.31c0.85,0,1.28,0.44,1.28,1.31
		v7.57c0,0.46,0.1,0.81,0.3,1.03c0.2,0.22,0.46,0.33,0.79,0.33c0.09,0,0.18,0,0.26-0.02c0.08-0.01,0.17-0.02,0.25-0.02
		c0.18-0.01,0.31,0.05,0.38,0.17c0.07,0.12,0.11,0.38,0.11,0.76c0,0.66-0.28,1.03-0.83,1.12c-0.11,0.01-0.24,0.03-0.39,0.04
		C277.54,379.78,277.39,379.79,277.26,379.79z"/>
	<path class="st2" d="M281.2,369.73c-0.48,0-0.84-0.11-1.1-0.33c-0.25-0.22-0.38-0.54-0.38-0.94c0-0.42,0.13-0.74,0.38-0.96
		c0.26-0.22,0.62-0.33,1.1-0.33c0.97,0,1.46,0.43,1.46,1.29C282.66,369.3,282.18,369.73,281.2,369.73z M281.2,379.74
		c-0.42,0-0.74-0.12-0.96-0.37s-0.33-0.59-0.33-1.03v-5.81c0-0.94,0.43-1.41,1.29-1.41c0.41,0,0.72,0.12,0.94,0.37
		c0.22,0.24,0.33,0.59,0.33,1.04v5.81c0,0.44-0.11,0.79-0.32,1.03S281.62,379.74,281.2,379.74z"/>
	<path class="st2" d="M288.53,379.79c-0.91,0-1.7-0.18-2.37-0.54c-0.68-0.36-1.19-0.86-1.56-1.52c-0.36-0.66-0.54-1.43-0.54-2.33
		c0-0.89,0.18-1.67,0.54-2.31c0.36-0.65,0.88-1.14,1.56-1.49c0.67-0.35,1.46-0.52,2.37-0.52c0.35,0,0.73,0.04,1.13,0.13
		c0.4,0.08,0.79,0.23,1.16,0.43c0.28,0.14,0.46,0.33,0.53,0.57c0.07,0.24,0.05,0.48-0.04,0.72c-0.1,0.24-0.25,0.41-0.46,0.52
		c-0.21,0.11-0.46,0.09-0.74-0.06c-0.45-0.24-0.89-0.36-1.33-0.36c-0.67,0-1.19,0.21-1.56,0.62c-0.37,0.41-0.55,1-0.55,1.76
		c0,0.75,0.18,1.33,0.55,1.76c0.37,0.43,0.89,0.64,1.56,0.64c0.2,0,0.42-0.03,0.65-0.08s0.45-0.14,0.68-0.26
		c0.28-0.15,0.53-0.16,0.74-0.05c0.21,0.11,0.35,0.29,0.43,0.52c0.08,0.23,0.08,0.47,0.02,0.72c-0.07,0.25-0.24,0.44-0.51,0.58
		c-0.39,0.19-0.77,0.33-1.16,0.42S288.88,379.79,288.53,379.79z"/>
	<path class="st2" d="M295.41,379.79c-0.62,0-1.17-0.12-1.65-0.36c-0.48-0.24-0.85-0.56-1.13-0.97c-0.28-0.41-0.42-0.87-0.42-1.38
		c0-0.6,0.16-1.08,0.48-1.45c0.32-0.36,0.83-0.62,1.55-0.77c0.71-0.15,1.66-0.23,2.84-0.23h0.61v-0.29c0-0.5-0.11-0.85-0.34-1.06
		s-0.61-0.31-1.16-0.31c-0.3,0-0.64,0.04-1,0.11c-0.36,0.07-0.75,0.2-1.17,0.37c-0.32,0.14-0.58,0.14-0.8,0.03
		c-0.21-0.12-0.36-0.3-0.42-0.54c-0.07-0.24-0.05-0.49,0.06-0.74c0.11-0.25,0.32-0.43,0.64-0.54c0.53-0.2,1.03-0.35,1.5-0.43
		c0.47-0.08,0.9-0.13,1.3-0.13c1.29,0,2.25,0.29,2.89,0.88c0.63,0.58,0.95,1.49,0.95,2.71v3.77c0,0.87-0.4,1.31-1.19,1.31
		c-0.81,0-1.21-0.44-1.21-1.31v-0.1c-0.17,0.44-0.46,0.79-0.86,1.05S295.99,379.79,295.41,379.79z M295.99,378.07
		c0.48,0,0.88-0.16,1.21-0.49c0.33-0.33,0.49-0.75,0.49-1.27v-0.34h-0.59c-0.87,0-1.49,0.08-1.85,0.23
		c-0.36,0.15-0.54,0.42-0.54,0.79c0,0.32,0.11,0.58,0.33,0.78S295.57,378.07,295.99,378.07z"/>
	<path class="st2" d="M305.31,379.79c-0.73,0-1.36-0.18-1.91-0.54c-0.55-0.36-0.98-0.86-1.28-1.51c-0.31-0.65-0.46-1.42-0.46-2.32
		s0.15-1.67,0.46-2.31c0.31-0.65,0.73-1.14,1.28-1.5c0.55-0.35,1.19-0.53,1.91-0.53c0.56,0,1.07,0.12,1.53,0.36s0.82,0.56,1.05,0.95
		v-3.62c0-0.87,0.42-1.31,1.27-1.31c0.86,0,1.29,0.44,1.29,1.31v9.67c0,0.87-0.43,1.31-1.28,1.31s-1.28-0.44-1.28-1.31v-0.05
		c-0.23,0.43-0.57,0.77-1.04,1.02C306.39,379.67,305.88,379.79,305.31,379.79z M306.07,377.87c0.54,0,0.99-0.2,1.33-0.59
		s0.52-1.01,0.52-1.85c0-0.83-0.17-1.44-0.52-1.83c-0.35-0.39-0.79-0.59-1.33-0.59c-0.54,0-0.99,0.2-1.33,0.59
		c-0.34,0.39-0.51,1-0.51,1.83c0,0.84,0.17,1.46,0.51,1.85C305.09,377.67,305.53,377.87,306.07,377.87z"/>
	<path class="st2" d="M316.44,379.79c-0.9,0-1.67-0.18-2.34-0.54c-0.66-0.36-1.18-0.86-1.54-1.51c-0.36-0.65-0.54-1.42-0.54-2.32
		c0-0.88,0.18-1.65,0.54-2.3c0.36-0.65,0.88-1.15,1.54-1.5c0.66-0.35,1.44-0.53,2.34-0.53s1.67,0.18,2.34,0.53
		c0.66,0.35,1.18,0.85,1.55,1.5c0.37,0.65,0.55,1.42,0.55,2.3c0,0.9-0.18,1.67-0.55,2.32c-0.37,0.65-0.88,1.16-1.55,1.51
		C318.12,379.61,317.34,379.79,316.44,379.79z M316.44,377.87c0.54,0,0.99-0.2,1.33-0.59s0.52-1.01,0.52-1.85
		c0-0.83-0.17-1.44-0.52-1.83c-0.35-0.39-0.79-0.59-1.33-0.59s-0.99,0.2-1.33,0.59c-0.34,0.39-0.51,1-0.51,1.83
		c0,0.84,0.17,1.46,0.51,1.85C315.46,377.67,315.9,377.87,316.44,377.87z"/>
	<path class="st2" d="M328.48,379.76c-0.86,0-1.29-0.44-1.29-1.31v-6.04c0-0.86,0.42-1.29,1.26-1.29s1.26,0.43,1.26,1.29v0.07
		c0.28-0.45,0.66-0.8,1.14-1.04c0.48-0.24,1.01-0.36,1.6-0.36c0.99,0,1.72,0.29,2.21,0.86s0.73,1.45,0.73,2.64v3.86
		c0,0.87-0.43,1.31-1.29,1.31c-0.41,0-0.72-0.11-0.94-0.34c-0.22-0.23-0.33-0.55-0.33-0.97v-3.74c0-0.58-0.11-0.99-0.32-1.25
		s-0.53-0.38-0.95-0.38c-0.54,0-0.98,0.17-1.3,0.51c-0.32,0.34-0.48,0.79-0.48,1.36v3.5C329.75,379.32,329.33,379.76,328.48,379.76z
		"/>
	<path class="st2" d="M338.59,369.73c-0.48,0-0.84-0.11-1.1-0.33c-0.25-0.22-0.38-0.54-0.38-0.94c0-0.42,0.13-0.74,0.38-0.96
		c0.26-0.22,0.62-0.33,1.1-0.33c0.97,0,1.46,0.43,1.46,1.29C340.05,369.3,339.57,369.73,338.59,369.73z M338.59,379.74
		c-0.42,0-0.74-0.12-0.96-0.37s-0.33-0.59-0.33-1.03v-5.81c0-0.94,0.43-1.41,1.29-1.41c0.41,0,0.72,0.12,0.94,0.37
		c0.22,0.24,0.33,0.59,0.33,1.04v5.81c0,0.44-0.11,0.79-0.32,1.03S339.01,379.74,338.59,379.74z"/>
	<path class="st2" d="M343.15,379.76c-0.86,0-1.29-0.44-1.29-1.31v-6.04c0-0.86,0.42-1.29,1.26-1.29c0.84,0,1.26,0.43,1.26,1.29
		v0.07c0.28-0.45,0.66-0.8,1.14-1.04s1.01-0.36,1.6-0.36c0.99,0,1.72,0.29,2.21,0.86c0.49,0.57,0.73,1.45,0.73,2.64v3.86
		c0,0.87-0.43,1.31-1.29,1.31c-0.41,0-0.72-0.11-0.94-0.34c-0.22-0.23-0.33-0.55-0.33-0.97v-3.74c0-0.58-0.11-0.99-0.32-1.25
		c-0.21-0.25-0.53-0.38-0.95-0.38c-0.54,0-0.98,0.17-1.3,0.51c-0.32,0.34-0.48,0.79-0.48,1.36v3.5
		C344.42,379.32,344,379.76,343.15,379.76z"/>
	<path class="st2" d="M355.98,382.85c-0.61,0-1.2-0.05-1.75-0.15c-0.56-0.1-1.05-0.25-1.5-0.46c-0.33-0.14-0.54-0.33-0.63-0.58
		c-0.09-0.25-0.09-0.49,0.01-0.73c0.1-0.24,0.25-0.42,0.46-0.54c0.21-0.12,0.45-0.12,0.71-0.01c0.5,0.23,0.96,0.37,1.39,0.44
		c0.42,0.07,0.79,0.1,1.1,0.1c1.45,0,2.18-0.67,2.18-2.01v-0.95c-0.23,0.43-0.58,0.78-1.07,1.04s-1.02,0.39-1.6,0.39
		c-0.75,0-1.4-0.17-1.96-0.52c-0.56-0.35-0.99-0.83-1.29-1.45s-0.46-1.35-0.46-2.19c0-0.83,0.15-1.55,0.46-2.18s0.74-1.11,1.29-1.45
		c0.55-0.35,1.21-0.52,1.96-0.52c0.58,0,1.11,0.12,1.58,0.37c0.48,0.25,0.83,0.58,1.05,0.99v-0.03c0-0.42,0.11-0.74,0.33-0.96
		c0.22-0.22,0.54-0.33,0.94-0.33c0.84,0,1.26,0.43,1.26,1.29v6.22c0,1.41-0.38,2.46-1.14,3.16
		C358.54,382.5,357.43,382.85,355.98,382.85z M356.03,377.48c0.57,0,1.02-0.2,1.37-0.59s0.52-0.95,0.52-1.65
		c0-0.7-0.17-1.25-0.52-1.64c-0.35-0.39-0.8-0.59-1.37-0.59c-0.58,0-1.04,0.2-1.38,0.59c-0.34,0.39-0.51,0.94-0.51,1.64
		c0,0.7,0.17,1.25,0.51,1.65C355,377.28,355.46,377.48,356.03,377.48z"/>
	<path class="st2" d="M365.5,379.79c-1.07,0-1.85-0.29-2.36-0.88c-0.5-0.59-0.76-1.47-0.76-2.65v-3.84c0-0.86,0.42-1.29,1.28-1.29
		c0.86,0,1.29,0.43,1.29,1.29v3.91c0,0.99,0.43,1.48,1.28,1.48c0.49,0,0.89-0.17,1.2-0.52c0.31-0.35,0.47-0.8,0.47-1.37v-3.5
		c0-0.86,0.42-1.29,1.28-1.29c0.86,0,1.29,0.43,1.29,1.29v6.04c0,0.87-0.41,1.31-1.24,1.31c-0.41,0-0.72-0.11-0.94-0.34
		c-0.21-0.23-0.32-0.54-0.32-0.95C367.41,379.35,366.59,379.79,365.5,379.79z M367.37,370.03c-0.14,0.18-0.3,0.29-0.48,0.31
		c-0.19,0.03-0.37,0-0.54-0.1s-0.29-0.23-0.37-0.41c-0.07-0.18-0.06-0.37,0.04-0.57l1.21-2.4c0.12-0.25,0.28-0.41,0.48-0.48
		c0.19-0.07,0.39-0.07,0.6-0.02c0.21,0.06,0.39,0.16,0.54,0.31c0.15,0.15,0.25,0.32,0.28,0.52s-0.03,0.41-0.19,0.62L367.37,370.03z"
		/>
	<path class="st2" d="M373.75,379.76c-0.86,0-1.29-0.44-1.29-1.31v-6.04c0-0.86,0.42-1.29,1.26-1.29c0.84,0,1.26,0.43,1.26,1.29
		v0.07c0.28-0.45,0.66-0.8,1.14-1.04s1.01-0.36,1.6-0.36c0.99,0,1.72,0.29,2.21,0.86c0.49,0.57,0.73,1.45,0.73,2.64v3.86
		c0,0.87-0.43,1.31-1.29,1.31c-0.41,0-0.72-0.11-0.94-0.34c-0.22-0.23-0.33-0.55-0.33-0.97v-3.74c0-0.58-0.11-0.99-0.32-1.25
		c-0.21-0.25-0.53-0.38-0.95-0.38c-0.54,0-0.98,0.17-1.3,0.51c-0.32,0.34-0.48,0.79-0.48,1.36v3.5
		C375.02,379.32,374.6,379.76,373.75,379.76z"/>
	<path class="st2" d="M391.38,379.79c-0.91,0-1.7-0.18-2.37-0.54c-0.67-0.36-1.19-0.86-1.56-1.52s-0.54-1.43-0.54-2.33
		c0-0.89,0.18-1.67,0.54-2.31c0.36-0.65,0.88-1.14,1.56-1.49c0.67-0.35,1.46-0.52,2.37-0.52c0.35,0,0.73,0.04,1.13,0.13
		s0.79,0.23,1.16,0.43c0.28,0.14,0.46,0.33,0.53,0.57c0.07,0.24,0.05,0.48-0.04,0.72c-0.1,0.24-0.25,0.41-0.46,0.52
		s-0.46,0.09-0.74-0.06c-0.45-0.24-0.9-0.36-1.33-0.36c-0.67,0-1.19,0.21-1.55,0.62c-0.37,0.41-0.55,1-0.55,1.76
		c0,0.75,0.18,1.33,0.55,1.76c0.37,0.43,0.89,0.64,1.55,0.64c0.2,0,0.42-0.03,0.65-0.08s0.45-0.14,0.68-0.26
		c0.28-0.15,0.53-0.16,0.74-0.05s0.35,0.29,0.43,0.52s0.08,0.47,0.02,0.72c-0.07,0.25-0.24,0.44-0.51,0.58
		c-0.38,0.19-0.77,0.33-1.16,0.42C392.1,379.75,391.73,379.79,391.38,379.79z"/>
	<path class="st2" d="M398.26,379.79c-0.62,0-1.17-0.12-1.65-0.36c-0.48-0.24-0.85-0.56-1.13-0.97c-0.28-0.41-0.42-0.87-0.42-1.38
		c0-0.6,0.16-1.08,0.48-1.45s0.83-0.62,1.55-0.77s1.66-0.23,2.84-0.23h0.61v-0.29c0-0.5-0.11-0.85-0.34-1.06s-0.61-0.31-1.16-0.31
		c-0.31,0-0.64,0.04-1,0.11c-0.36,0.07-0.75,0.2-1.17,0.37c-0.32,0.14-0.58,0.14-0.8,0.03c-0.22-0.12-0.36-0.3-0.42-0.54
		c-0.07-0.24-0.05-0.49,0.06-0.74c0.11-0.25,0.32-0.43,0.64-0.54c0.53-0.2,1.03-0.35,1.5-0.43c0.47-0.08,0.9-0.13,1.3-0.13
		c1.29,0,2.25,0.29,2.89,0.88c0.63,0.58,0.95,1.49,0.95,2.71v3.77c0,0.87-0.4,1.31-1.19,1.31c-0.8,0-1.21-0.44-1.21-1.31v-0.1
		c-0.17,0.44-0.46,0.79-0.86,1.05S398.84,379.79,398.26,379.79z M398.84,378.07c0.48,0,0.88-0.16,1.21-0.49
		c0.33-0.33,0.49-0.75,0.49-1.27v-0.34h-0.59c-0.87,0-1.49,0.08-1.85,0.23c-0.36,0.15-0.54,0.42-0.54,0.79
		c0,0.32,0.11,0.58,0.33,0.78C398.1,377.97,398.42,378.07,398.84,378.07z"/>
	<path class="st2" d="M406.23,379.76c-0.88,0-1.33-0.44-1.33-1.31v-6.04c0-0.86,0.42-1.29,1.26-1.29s1.26,0.43,1.26,1.29v0.31
		c0.41-1.01,1.25-1.55,2.53-1.63c0.28-0.02,0.5,0.05,0.65,0.21c0.15,0.17,0.24,0.43,0.25,0.81c0.02,0.35-0.05,0.63-0.21,0.83
		c-0.17,0.2-0.44,0.33-0.82,0.37l-0.39,0.03c-1.27,0.12-1.9,0.77-1.9,1.94v3.16C407.53,379.32,407.1,379.76,406.23,379.76z"/>
	<path class="st2" d="M415.92,382.85c-0.61,0-1.2-0.05-1.75-0.15c-0.56-0.1-1.05-0.25-1.5-0.46c-0.33-0.14-0.54-0.33-0.63-0.58
		c-0.09-0.25-0.09-0.49,0.01-0.73c0.1-0.24,0.25-0.42,0.46-0.54c0.21-0.12,0.44-0.12,0.71-0.01c0.5,0.23,0.96,0.37,1.39,0.44
		c0.42,0.07,0.79,0.1,1.1,0.1c1.45,0,2.18-0.67,2.18-2.01v-0.95c-0.23,0.43-0.58,0.78-1.07,1.04s-1.02,0.39-1.6,0.39
		c-0.75,0-1.4-0.17-1.96-0.52c-0.56-0.35-0.99-0.83-1.29-1.45s-0.46-1.35-0.46-2.19c0-0.83,0.15-1.55,0.46-2.18s0.74-1.11,1.29-1.45
		c0.55-0.35,1.21-0.52,1.96-0.52c0.58,0,1.1,0.12,1.58,0.37c0.48,0.25,0.83,0.58,1.05,0.99v-0.03c0-0.42,0.11-0.74,0.33-0.96
		c0.22-0.22,0.54-0.33,0.94-0.33c0.84,0,1.26,0.43,1.26,1.29v6.22c0,1.41-0.38,2.46-1.14,3.16
		C418.48,382.5,417.38,382.85,415.92,382.85z M415.98,377.48c0.57,0,1.02-0.2,1.37-0.59c0.34-0.4,0.52-0.95,0.52-1.65
		c0-0.7-0.17-1.25-0.52-1.64c-0.35-0.39-0.8-0.59-1.37-0.59c-0.58,0-1.04,0.2-1.38,0.59c-0.34,0.39-0.51,0.94-0.51,1.64
		c0,0.7,0.17,1.25,0.51,1.65S415.4,377.48,415.98,377.48z"/>
	<path class="st2" d="M426.38,379.79c-0.9,0-1.67-0.18-2.34-0.54c-0.66-0.36-1.18-0.86-1.54-1.51c-0.36-0.65-0.54-1.42-0.54-2.32
		c0-0.88,0.18-1.65,0.54-2.3c0.36-0.65,0.88-1.15,1.54-1.5c0.66-0.35,1.44-0.53,2.34-0.53s1.67,0.18,2.34,0.53
		c0.66,0.35,1.18,0.85,1.55,1.5c0.37,0.65,0.55,1.42,0.55,2.3c0,0.9-0.18,1.67-0.55,2.32c-0.37,0.65-0.88,1.16-1.55,1.51
		C428.05,379.61,427.28,379.79,426.38,379.79z M426.38,377.87c0.54,0,0.99-0.2,1.33-0.59s0.52-1.01,0.52-1.85
		c0-0.83-0.17-1.44-0.52-1.83c-0.35-0.39-0.79-0.59-1.33-0.59s-0.99,0.2-1.33,0.59c-0.34,0.39-0.51,1-0.51,1.83
		c0,0.84,0.17,1.46,0.51,1.85S425.84,377.87,426.38,377.87z"/>
	<path class="st2" d="M435.2,379.79c-0.62,0-1.17-0.12-1.65-0.36c-0.48-0.24-0.85-0.56-1.13-0.97c-0.28-0.41-0.42-0.87-0.42-1.38
		c0-0.6,0.16-1.08,0.48-1.45s0.83-0.62,1.55-0.77s1.66-0.23,2.84-0.23h0.61v-0.29c0-0.5-0.11-0.85-0.34-1.06s-0.61-0.31-1.16-0.31
		c-0.31,0-0.64,0.04-1,0.11c-0.36,0.07-0.75,0.2-1.17,0.37c-0.32,0.14-0.58,0.14-0.8,0.03c-0.22-0.12-0.36-0.3-0.42-0.54
		c-0.07-0.24-0.05-0.49,0.06-0.74c0.11-0.25,0.32-0.43,0.64-0.54c0.53-0.2,1.03-0.35,1.5-0.43c0.47-0.08,0.9-0.13,1.3-0.13
		c1.29,0,2.25,0.29,2.89,0.88c0.63,0.58,0.95,1.49,0.95,2.71v3.77c0,0.87-0.4,1.31-1.19,1.31c-0.8,0-1.21-0.44-1.21-1.31v-0.1
		c-0.17,0.44-0.46,0.79-0.86,1.05S435.78,379.79,435.2,379.79z M435.78,378.07c0.48,0,0.88-0.16,1.21-0.49
		c0.33-0.33,0.49-0.75,0.49-1.27v-0.34h-0.59c-0.87,0-1.49,0.08-1.85,0.23c-0.36,0.15-0.54,0.42-0.54,0.79
		c0,0.32,0.11,0.58,0.33,0.78C435.04,377.97,435.36,378.07,435.78,378.07z"/>
	<path class="st2" d="M450.69,379.79c-2.35,0-3.52-1.14-3.52-3.42v-3.2h-0.71c-0.67,0-1-0.32-1-0.95c0-0.65,0.33-0.97,1-0.97h0.71
		v-1.29c0-0.87,0.43-1.31,1.29-1.31c0.85,0,1.27,0.44,1.27,1.31v1.29h1.62c0.66,0,0.99,0.32,0.99,0.97c0,0.63-0.33,0.95-0.99,0.95
		h-1.62v3.09c0,0.48,0.11,0.83,0.33,1.07c0.22,0.24,0.57,0.36,1.06,0.36c0.17,0,0.33-0.02,0.48-0.05s0.28-0.06,0.41-0.07
		c0.16-0.01,0.29,0.04,0.39,0.15c0.1,0.11,0.15,0.35,0.15,0.7c0,0.28-0.05,0.52-0.14,0.72c-0.09,0.2-0.25,0.34-0.48,0.43
		c-0.15,0.06-0.35,0.1-0.6,0.14C451.09,379.77,450.87,379.79,450.69,379.79z"/>
	<path class="st2" d="M456.54,379.79c-1.07,0-1.85-0.29-2.35-0.88c-0.5-0.59-0.76-1.47-0.76-2.65v-3.84c0-0.86,0.42-1.29,1.27-1.29
		c0.86,0,1.29,0.43,1.29,1.29v3.91c0,0.99,0.43,1.48,1.28,1.48c0.49,0,0.89-0.17,1.2-0.52s0.47-0.8,0.47-1.37v-3.5
		c0-0.86,0.42-1.29,1.28-1.29c0.86,0,1.29,0.43,1.29,1.29v6.04c0,0.87-0.41,1.31-1.24,1.31c-0.41,0-0.72-0.11-0.94-0.34
		c-0.21-0.23-0.32-0.54-0.32-0.95C458.45,379.35,457.62,379.79,456.54,379.79z"/>
	<path class="st2" d="M472.33,379.79c-2.35,0-3.52-1.14-3.52-3.42v-3.2h-0.71c-0.67,0-1-0.32-1-0.95c0-0.65,0.33-0.97,1-0.97h0.71
		v-1.29c0-0.87,0.43-1.31,1.29-1.31c0.85,0,1.27,0.44,1.27,1.31v1.29h1.62c0.66,0,0.99,0.32,0.99,0.97c0,0.63-0.33,0.95-0.99,0.95
		h-1.62v3.09c0,0.48,0.11,0.83,0.33,1.07c0.22,0.24,0.57,0.36,1.06,0.36c0.17,0,0.33-0.02,0.48-0.05s0.28-0.06,0.41-0.07
		c0.16-0.01,0.29,0.04,0.39,0.15c0.1,0.11,0.15,0.35,0.15,0.7c0,0.28-0.05,0.52-0.14,0.72c-0.09,0.2-0.25,0.34-0.48,0.43
		c-0.15,0.06-0.35,0.1-0.6,0.14C472.73,379.77,472.51,379.79,472.33,379.79z"/>
	<path class="st2" d="M477.92,379.79c-0.62,0-1.17-0.12-1.65-0.36c-0.48-0.24-0.85-0.56-1.13-0.97c-0.28-0.41-0.42-0.87-0.42-1.38
		c0-0.6,0.16-1.08,0.48-1.45s0.83-0.62,1.55-0.77s1.66-0.23,2.84-0.23h0.61v-0.29c0-0.5-0.11-0.85-0.34-1.06s-0.61-0.31-1.16-0.31
		c-0.31,0-0.64,0.04-1,0.11c-0.36,0.07-0.75,0.2-1.17,0.37c-0.32,0.14-0.58,0.14-0.8,0.03c-0.22-0.12-0.36-0.3-0.42-0.54
		c-0.07-0.24-0.05-0.49,0.06-0.74c0.11-0.25,0.32-0.43,0.64-0.54c0.53-0.2,1.03-0.35,1.5-0.43c0.47-0.08,0.9-0.13,1.3-0.13
		c1.29,0,2.25,0.29,2.89,0.88c0.63,0.58,0.95,1.49,0.95,2.71v3.77c0,0.87-0.4,1.31-1.19,1.31c-0.8,0-1.21-0.44-1.21-1.31v-0.1
		c-0.17,0.44-0.46,0.79-0.86,1.05S478.5,379.79,477.92,379.79z M478.5,378.07c0.48,0,0.88-0.16,1.21-0.49
		c0.33-0.33,0.49-0.75,0.49-1.27v-0.34h-0.59c-0.87,0-1.49,0.08-1.85,0.23c-0.36,0.15-0.54,0.42-0.54,0.79
		c0,0.32,0.11,0.58,0.33,0.78C477.76,377.97,478.08,378.07,478.5,378.07z"/>
	<path class="st2" d="M485.89,379.76c-0.88,0-1.33-0.44-1.33-1.31v-6.04c0-0.86,0.42-1.29,1.26-1.29s1.26,0.43,1.26,1.29v0.31
		c0.41-1.01,1.25-1.55,2.53-1.63c0.28-0.02,0.5,0.05,0.65,0.21c0.15,0.17,0.24,0.43,0.25,0.81c0.02,0.35-0.05,0.63-0.21,0.83
		c-0.17,0.2-0.44,0.33-0.82,0.37l-0.39,0.03c-1.27,0.12-1.9,0.77-1.9,1.94v3.16C487.19,379.32,486.76,379.76,485.89,379.76z"/>
	<path class="st2" d="M490.83,382.8c-0.37,0.02-0.66-0.05-0.85-0.23c-0.19-0.18-0.3-0.38-0.32-0.62c-0.02-0.24,0.03-0.45,0.16-0.65
		c0.13-0.19,0.33-0.31,0.59-0.34c0.44-0.03,0.76-0.16,0.96-0.37s0.3-0.53,0.3-0.96v-7.23c0-0.86,0.43-1.29,1.29-1.29
		c0.85,0,1.27,0.43,1.27,1.29v6.99c0,1.12-0.27,1.96-0.82,2.5S491.99,382.74,490.83,382.8z M492.93,369.73
		c-0.46,0-0.82-0.11-1.08-0.33c-0.25-0.22-0.38-0.54-0.38-0.94c0-0.42,0.13-0.74,0.38-0.96c0.25-0.22,0.61-0.33,1.08-0.33
		c0.97,0,1.46,0.43,1.46,1.29C494.39,369.3,493.91,369.73,492.93,369.73z"/>
	<path class="st2" d="M500.55,379.79c-0.99,0-1.83-0.18-2.54-0.54c-0.71-0.36-1.25-0.86-1.63-1.51s-0.57-1.42-0.57-2.3
		c0-0.86,0.18-1.62,0.55-2.27c0.37-0.65,0.87-1.16,1.51-1.53c0.64-0.37,1.38-0.55,2.22-0.55c1.21,0,2.18,0.38,2.89,1.15
		c0.71,0.76,1.07,1.8,1.07,3.1c0,0.43-0.27,0.65-0.8,0.65h-5c0.09,0.66,0.33,1.14,0.72,1.44c0.39,0.3,0.93,0.45,1.62,0.45
		c0.27,0,0.58-0.03,0.93-0.09s0.68-0.17,0.99-0.33c0.33-0.16,0.61-0.19,0.83-0.09c0.23,0.1,0.38,0.26,0.47,0.49s0.08,0.46,0,0.71
		c-0.08,0.24-0.28,0.45-0.57,0.6c-0.4,0.22-0.84,0.38-1.32,0.48C501.45,379.74,500.99,379.79,500.55,379.79z M500.19,372.79
		c-0.54,0-0.98,0.17-1.32,0.49c-0.33,0.33-0.54,0.79-0.62,1.38h3.67C501.86,373.41,501.28,372.79,500.19,372.79z"/>
	<path class="st2" d="M509.64,379.79c-2.35,0-3.52-1.14-3.52-3.42v-3.2h-0.71c-0.67,0-1-0.32-1-0.95c0-0.65,0.33-0.97,1-0.97h0.71
		v-1.29c0-0.87,0.43-1.31,1.29-1.31c0.85,0,1.27,0.44,1.27,1.31v1.29h1.62c0.66,0,0.99,0.32,0.99,0.97c0,0.63-0.33,0.95-0.99,0.95
		h-1.62v3.09c0,0.48,0.11,0.83,0.33,1.07c0.22,0.24,0.57,0.36,1.06,0.36c0.17,0,0.33-0.02,0.48-0.05s0.28-0.06,0.41-0.07
		c0.16-0.01,0.29,0.04,0.39,0.15c0.1,0.11,0.15,0.35,0.15,0.7c0,0.28-0.05,0.52-0.14,0.72c-0.09,0.2-0.25,0.34-0.48,0.43
		c-0.15,0.06-0.35,0.1-0.6,0.14C510.04,379.77,509.82,379.79,509.64,379.79z"/>
	<path class="st2" d="M515.24,379.79c-0.62,0-1.17-0.12-1.65-0.36c-0.48-0.24-0.85-0.56-1.13-0.97c-0.28-0.41-0.42-0.87-0.42-1.38
		c0-0.6,0.16-1.08,0.48-1.45s0.83-0.62,1.55-0.77s1.66-0.23,2.84-0.23h0.61v-0.29c0-0.5-0.11-0.85-0.34-1.06s-0.61-0.31-1.16-0.31
		c-0.31,0-0.64,0.04-1,0.11c-0.36,0.07-0.75,0.2-1.17,0.37c-0.32,0.14-0.58,0.14-0.8,0.03c-0.22-0.12-0.36-0.3-0.42-0.54
		c-0.07-0.24-0.05-0.49,0.06-0.74c0.11-0.25,0.32-0.43,0.64-0.54c0.53-0.2,1.03-0.35,1.5-0.43c0.47-0.08,0.9-0.13,1.3-0.13
		c1.29,0,2.25,0.29,2.89,0.88c0.63,0.58,0.95,1.49,0.95,2.71v3.77c0,0.87-0.4,1.31-1.19,1.31c-0.8,0-1.21-0.44-1.21-1.31v-0.1
		c-0.17,0.44-0.46,0.79-0.86,1.05S515.81,379.79,515.24,379.79z M515.81,378.07c0.48,0,0.88-0.16,1.21-0.49
		c0.33-0.33,0.49-0.75,0.49-1.27v-0.34h-0.59c-0.87,0-1.49,0.08-1.85,0.23c-0.36,0.15-0.54,0.42-0.54,0.79
		c0,0.32,0.11,0.58,0.33,0.78C515.08,377.97,515.4,378.07,515.81,378.07z"/>
</g>
</svg>
