<?xml version="1.0" encoding="utf-8"?>
<!-- Generator: Adobe Illustrator 23.0.5, SVG Export Plug-In . SVG Version: 6.00 Build 0)  -->
<svg version="1.1" id="Capa_1" xmlns="http://www.w3.org/2000/svg" xmlns:xlink="http://www.w3.org/1999/xlink" x="0px" y="0px"
	 viewBox="0 0 700 400" style="enable-background:new 0 0 700 400;" xml:space="preserve">
<style type="text/css">
	.st0{fill:#D8E1EF;}
	.st1{fill:#B0358A;}
	.st2{fill:#808080;}
</style>
<g id="Card_Yes_1_">
	<path class="st0" d="M253.71,107.24h175.05c14.5,0,26.26,11.76,26.26,26.26v105.03c0,14.5-11.76,26.26-26.26,26.26H253.71
		c-14.5,0-26.26-11.76-26.26-26.26V133.49C227.45,118.99,239.21,107.24,253.71,107.24z"/>
	<rect x="227.45" y="142.25" class="st1" width="227.56" height="26.26"/>
	<path class="st1" d="M297.47,229.77h-26.26c-4.83,0-8.75-3.92-8.75-8.75s3.92-8.75,8.75-8.75h26.26c4.83,0,8.75,3.92,8.75,8.75
		S302.3,229.77,297.47,229.77z"/>
	<path class="st1" d="M428.75,282.28c-2.33,0.01-4.56-0.9-6.21-2.54l-17.5-17.5c-3.43-3.43-3.43-9,0-12.43c3.43-3.43,9-3.43,12.43,0
		l11.29,11.38l28.79-28.88c3.43-3.43,9-3.43,12.43,0c3.43,3.43,3.43,9,0,12.43l-35.01,35.01
		C433.31,281.38,431.08,282.3,428.75,282.28z"/>
</g>
<g>
	<path class="st1" d="M219.46,48.31c0,0.63-0.04,1.19-0.13,1.68c-1.12,6.63-4.26,9.95-9.43,9.95c-2.64,0-5.01-0.67-7.11-2.02v0.9
		c-0.03,1.92,0.14,3.24,0.52,3.96c0.54,1.01,0.82,1.58,0.82,1.72c0,0.57-0.22,1.08-0.67,1.51c-0.45,0.43-0.96,0.65-1.53,0.65
		c-1.29,0-2.17-0.46-2.63-1.38c-0.26-0.54-0.43-1.56-0.52-3.06c-0.06-0.98-0.09-2.1-0.09-3.36c0-0.49,0.07-1.22,0.19-2.2
		c0.13-0.98,0.19-1.72,0.19-2.24V51.5c-0.03-0.86,0.03-2.13,0.17-3.81c0.14-1.68,0.21-2.92,0.21-3.73v-3.88
		c0-0.06-0.13-0.83-0.39-2.33c0.74-0.69,1.44-1.03,2.09-1.03c0.77,0,1.38,0.28,1.83,0.84c0.46,0.56,0.68,1.24,0.68,2.05
		c0,0.2,0,0.4,0,0.6c1.9-2.5,4.29-3.75,7.19-3.75c2.73,0,4.88,1.02,6.46,3.06c1.41,1.84,2.11,4.16,2.11,6.98c0,0.2,0,0.5,0,0.9
		C219.46,47.81,219.46,48.11,219.46,48.31z M215.54,47.62c0-1.98-0.3-3.67-0.9-5.08c-0.83-1.89-2.11-2.84-3.83-2.84
		c-2.21,0-4.11,1.35-5.68,4.05c-1.41,2.35-2.11,4.72-2.11,7.11c0,3.99,2.01,5.99,6.03,5.99c2.15,0,3.73-0.93,4.74-2.8
		c0.57-1.03,1.12-2.91,1.64-5.64C215.5,47.85,215.54,47.59,215.54,47.62z"/>
	<path class="st1" d="M245.38,58.51c0,1.38-0.62,2.08-1.85,2.11c0.14,0.66,0.46,1.55,0.95,2.67c-0.03,0.63-0.29,1.15-0.78,1.55
		c-0.49,0.4-1.06,0.6-1.72,0.6c-0.52,0-1.12-0.16-1.81-0.47c-0.37-0.75-0.56-1.64-0.56-2.67c0-0.26,0.01-0.63,0.04-1.12
		c0.03-0.49,0.04-0.85,0.04-1.08c0,0.2-0.47,0.3-1.42,0.3c-1.61,0-3.52,0.07-5.73,0.22c-3.16,0.17-4.87,0.42-5.15,0.73
		c-0.27,0.32-0.45,1.85-0.54,4.61c-0.37,0.54-0.85,0.82-1.42,0.82c-0.6,0-1.22-0.25-1.85-0.75c-0.63-0.5-0.95-1.04-0.95-1.62
		c0-0.2,0.26-1,0.78-2.41c0.57-2.04,1.51-5.1,2.8-9.17c3.85-10.54,7.05-15.8,9.6-15.8c2.5,0,4.42,2.78,5.77,8.35
		c0.6,2.5,1.16,6.33,1.68,11.5c0.75,0.17,1.22,0.32,1.42,0.43C245.15,57.57,245.38,57.97,245.38,58.51z M239.36,56.88
		c-1.26-10.02-2.4-15.03-3.4-15.03c-0.8,0-2.21,2.35-4.22,7.06c-1.44,3.39-2.57,6.33-3.4,8.83c0.92-0.2,2.28-0.44,4.09-0.73
		C234.06,56.81,236.37,56.76,239.36,56.88z"/>
	<path class="st1" d="M269.2,57.44c0,2.5-1.09,4.72-3.27,6.67c-2.18,1.95-4.54,2.93-7.06,2.93c-3.65,0-6.34-1.42-8.1-4.27
		c-1.41-2.33-2.11-5.45-2.11-9.36c0-3.97,0.85-7.56,2.54-10.78c2.04-3.94,4.85-5.91,8.44-5.91c1.78,0,3.33,0.42,4.65,1.25
		c1.46,0.95,2.37,2.25,2.71,3.89c0.29,1.35,0.43,2,0.43,1.94c0,3.8-0.86,5.7-2.58,5.7c-0.52,0-0.99-0.17-1.42-0.52
		c-0.43-0.35-0.65-0.78-0.65-1.3c0-0.29,0.15-0.71,0.45-1.25c0.3-0.55,0.45-0.98,0.45-1.3c0-1.64-0.2-2.77-0.6-3.38
		c-0.52-0.84-1.53-1.25-3.04-1.25c-1.54,0-2.97,0.96-4.29,2.89c-1.09,1.61-1.8,3.29-2.14,5.05c-0.34,1.87-0.51,3.6-0.51,5.18
		c0,2.7,0.21,4.66,0.64,5.87c0.69,1.96,2.07,3.24,4.16,3.84c0.63,0.17,1.14,0.26,1.54,0.26c1.03,0,2.12-0.43,3.26-1.29
		c1-0.8,1.77-1.71,2.32-2.71c0.31-0.6,0.5-1.36,0.56-2.28l-0.17-0.13c-2.04,0-3.62,0.24-4.74,0.73c-0.34,0.17-0.69,0.36-1.03,0.56
		c-0.46,0.2-0.82,0.3-1.08,0.3c-0.72,0-1.28-0.3-1.68-0.9c-0.4-0.6-0.6-1.28-0.6-2.02c0-0.63,0.33-1.15,0.99-1.55
		c0.43-0.23,1.78-0.5,4.05-0.82c2.07-0.26,3.52-0.39,4.35-0.39C268.02,53.09,269.2,54.54,269.2,57.44z"/>
	<path class="st1" d="M296.15,51.58c0,4.13-1.02,7.64-3.06,10.51c-2.27,3.24-5.38,4.87-9.34,4.87c-1.12,0-2.33-0.22-3.62-0.65
		c-2.87-0.92-4.92-2.51-6.16-4.78c-1.06-1.95-1.59-4.56-1.59-7.84c0-4.25,1.02-7.99,3.06-11.24c2.35-3.82,5.54-5.73,9.56-5.73
		c3.53,0,6.34,1.65,8.44,4.95C295.25,44.52,296.15,47.82,296.15,51.58z M292.02,51.19c0-5.97-1.92-9.54-5.77-10.72
		c-0.4-0.11-0.86-0.17-1.38-0.17c-1.61,0-3.22,0.72-4.82,2.15c-2.55,2.33-3.83,6.47-3.83,12.44c0,0.55,0.11,1.31,0.34,2.28
		c0.49,2.21,1.22,3.8,2.2,4.78c1.12,1.15,2.76,1.72,4.91,1.72c2.93,0,5.14-1.42,6.63-4.26C291.44,57.18,292.02,54.44,292.02,51.19z"
		/>
	<path class="st1" d="M329.4,58.51c0,1.38-0.62,2.08-1.85,2.11c0.14,0.66,0.46,1.55,0.95,2.67c-0.03,0.63-0.29,1.15-0.78,1.55
		c-0.49,0.4-1.06,0.6-1.72,0.6c-0.52,0-1.12-0.16-1.81-0.47c-0.37-0.75-0.56-1.64-0.56-2.67c0-0.26,0.01-0.63,0.04-1.12
		c0.03-0.49,0.04-0.85,0.04-1.08c0,0.2-0.47,0.3-1.42,0.3c-1.61,0-3.52,0.07-5.73,0.22c-3.16,0.17-4.87,0.42-5.15,0.73
		c-0.27,0.32-0.45,1.85-0.54,4.61c-0.37,0.54-0.85,0.82-1.42,0.82c-0.6,0-1.22-0.25-1.85-0.75c-0.63-0.5-0.95-1.04-0.95-1.62
		c0-0.2,0.26-1,0.78-2.41c0.57-2.04,1.51-5.1,2.8-9.17c3.85-10.54,7.05-15.8,9.6-15.8c2.5,0,4.42,2.78,5.77,8.35
		c0.6,2.5,1.16,6.33,1.68,11.5c0.75,0.17,1.22,0.32,1.42,0.43C329.17,57.57,329.4,57.97,329.4,58.51z M323.37,56.88
		c-1.26-10.02-2.4-15.03-3.4-15.03c-0.8,0-2.21,2.35-4.22,7.06c-1.44,3.39-2.57,6.33-3.4,8.83c0.92-0.2,2.28-0.44,4.09-0.73
		C318.07,56.81,320.38,56.76,323.37,56.88z"/>
	<path class="st1" d="M353.68,59.07c0,0.54-0.14,1.2-0.43,1.97c-0.72,1.89-2.07,3.37-4.05,4.46c-1.81,0.97-3.79,1.46-5.94,1.46
		c-3.53,0-6.24-1.33-8.14-4c-1.64-2.32-2.46-5.32-2.46-8.99c0-3.04,0.47-5.89,1.42-8.56c1.06-3.04,2.63-5.42,4.69-7.14
		c1.64-1.35,3.3-2.02,5-2.02c2.44,0,4.29,1.06,5.55,3.19c1.03,1.72,1.55,3.89,1.55,6.5c0,1.18-0.3,2.66-0.9,4.44
		c-0.72,2.18-1.52,3.27-2.41,3.27c-1,0-1.77-0.63-2.28-1.89c0.29-0.2,0.69-0.53,1.21-0.99c0.57-0.63,0.86-1.87,0.86-3.7
		c0-1.78-0.19-3.29-0.56-4.52c-0.58-1.87-1.52-2.8-2.84-2.8c-0.92,0-1.92,0.59-3.01,1.76c-0.83,0.89-1.54,1.88-2.11,2.97
		c-1.41,2.75-2.11,6.18-2.11,10.27c0,5.96,2.24,8.94,6.72,8.94c1.92,0,3.45-0.54,4.56-1.63c0.46-0.48,1.13-1.5,2.02-3.04
		c0.6-1.11,1.25-1.67,1.94-1.67c0.46,0,0.86,0.18,1.21,0.54C353.51,58.24,353.68,58.64,353.68,59.07z"/>
	<path class="st1" d="M376.85,62.93c0,0.48-0.1,0.91-0.3,1.28c-0.26,0.48-0.6,0.72-1.03,0.72c-0.12,0-0.28-0.02-0.5-0.06
		c-0.21-0.04-0.38-0.06-0.5-0.06c-1.23,0-3.02,0.37-5.36,1.12c-2.34,0.75-4.13,1.12-5.36,1.12c-4.62,0-6.93-3.5-6.93-10.51
		c0-5.51,0.14-9.88,0.43-13.09c0.03-0.43,0.04-0.66,0.04-0.69c0-0.2-0.03-0.5-0.09-0.88s-0.09-0.67-0.09-0.84
		c0-1.32,0.72-2.09,2.15-2.33c2.21-0.4,4.42-0.82,6.63-1.25c2.9-0.54,5.07-0.82,6.5-0.82c0.83,0,1.56,0.14,2.2,0.43
		c0.86,0.4,1.29,0.96,1.29,1.68c0,1.06-0.7,1.59-2.11,1.59c-0.17,0-0.44-0.02-0.8-0.06c-0.36-0.04-0.62-0.06-0.8-0.06
		c-2.33,0-5.5,0.52-9.52,1.55c-0.23,0.03-0.45,0.07-0.65,0.13c-0.2,0.06-0.34,0.27-0.43,0.65c-0.32,1.38-0.47,4.08-0.47,8.1
		c0,0.6,0.27,0.9,0.82,0.9c0.75,0,1.82-0.19,3.23-0.56c1.41-0.37,2.48-0.56,3.23-0.56c0.83,0,1.79,0.26,2.88,0.77
		c0.29,0.92,0.43,1.48,0.43,1.68c0,0.72-0.21,1.11-0.65,1.16c-0.43,0.06-0.89,0.11-1.38,0.17c-0.23-0.14-0.55-0.21-0.95-0.21
		c-1.01,0-2.21,0.13-3.62,0.39c-1.18,0.26-2.37,0.5-3.57,0.73c-0.17,0.03-0.32,0.06-0.45,0.09c-0.13,0.03-0.22,0.2-0.28,0.52
		c-0.06,0.52-0.09,0.93-0.09,1.25c0,2.21,0.04,3.53,0.13,3.96c0.29,1.67,1.08,2.5,2.37,2.5c1.09,0,2.68-0.33,4.78-0.99
		c2.1-0.66,3.76-0.99,5-0.99C375.01,61.44,376.27,61.94,376.85,62.93z"/>
	<path class="st1" d="M400.79,48.31c0,0.63-0.04,1.19-0.13,1.68c-1.12,6.63-4.26,9.95-9.43,9.95c-2.64,0-5.01-0.67-7.11-2.02v0.9
		c-0.03,1.92,0.14,3.24,0.52,3.96c0.54,1.01,0.82,1.58,0.82,1.72c0,0.57-0.22,1.08-0.67,1.51c-0.45,0.43-0.96,0.65-1.53,0.65
		c-1.29,0-2.17-0.46-2.63-1.38c-0.26-0.54-0.43-1.56-0.52-3.06c-0.06-0.98-0.09-2.1-0.09-3.36c0-0.49,0.07-1.22,0.19-2.2
		c0.13-0.98,0.19-1.72,0.19-2.24V51.5c-0.03-0.86,0.03-2.13,0.17-3.81c0.14-1.68,0.21-2.92,0.21-3.73v-3.88
		c0-0.06-0.13-0.83-0.39-2.33c0.74-0.69,1.44-1.03,2.09-1.03c0.77,0,1.38,0.28,1.83,0.84c0.46,0.56,0.68,1.24,0.68,2.05
		c0,0.2,0,0.4,0,0.6c1.9-2.5,4.29-3.75,7.19-3.75c2.73,0,4.88,1.02,6.46,3.06c1.41,1.84,2.11,4.16,2.11,6.98c0,0.2,0,0.5,0,0.9
		C400.79,47.81,400.79,48.11,400.79,48.31z M396.87,47.62c0-1.98-0.3-3.67-0.9-5.08c-0.83-1.89-2.11-2.84-3.83-2.84
		c-2.21,0-4.11,1.35-5.68,4.05c-1.41,2.35-2.11,4.72-2.11,7.11c0,3.99,2.01,5.99,6.03,5.99c2.15,0,3.73-0.93,4.74-2.8
		c0.57-1.03,1.12-2.91,1.64-5.64C396.83,47.85,396.87,47.59,396.87,47.62z"/>
	<path class="st1" d="M424.04,39.95c0,0.49-0.15,0.91-0.45,1.27c-0.3,0.36-0.68,0.54-1.14,0.54c-0.26,0-0.74-0.12-1.44-0.37
		c-0.7-0.24-1.29-0.37-1.74-0.37c-1.23,0-2.22,0-2.97,0c-0.43,0-0.67,0.04-0.71,0.11c-0.04,0.07-0.09,0.35-0.15,0.84
		c-0.12,0.72-0.29,1.79-0.52,3.23c-0.55,3.9-0.82,8.31-0.82,13.22c0,3.33,0.39,5.61,1.16,6.85v1.16c-0.54,0.29-0.98,0.43-1.29,0.43
		c-1.84,0-3.03-0.89-3.57-2.67c-0.26-0.86-0.39-2.51-0.39-4.95c0-2.84,0.06-5.05,0.17-6.63c0.03-0.69,0.19-2.34,0.47-4.95
		c0.23-2.04,0.34-3.69,0.34-4.95v-1.25c-0.4,0.03-1.18,0.13-2.34,0.3c-0.95,0.14-1.73,0.22-2.34,0.22c-1.99,0-2.99-0.59-2.99-1.77
		c0-0.49,0.14-0.78,0.43-0.86c0.43-0.63,2.68-1.18,6.76-1.64c3.16-0.34,5.71-0.52,7.67-0.52c1.38,0,2.58,0.17,3.62,0.52
		C423.3,38.2,424.04,38.95,424.04,39.95z"/>
	<path class="st1" d="M449.23,58.51c0,1.38-0.62,2.08-1.85,2.11c0.14,0.66,0.46,1.55,0.95,2.67c-0.03,0.63-0.29,1.15-0.78,1.55
		c-0.49,0.4-1.06,0.6-1.72,0.6c-0.52,0-1.12-0.16-1.81-0.47c-0.37-0.75-0.56-1.64-0.56-2.67c0-0.26,0.01-0.63,0.04-1.12
		c0.03-0.49,0.04-0.85,0.04-1.08c0,0.2-0.47,0.3-1.42,0.3c-1.61,0-3.52,0.07-5.73,0.22c-3.16,0.17-4.87,0.42-5.15,0.73
		c-0.27,0.32-0.45,1.85-0.54,4.61c-0.37,0.54-0.85,0.82-1.42,0.82c-0.6,0-1.22-0.25-1.85-0.75c-0.63-0.5-0.95-1.04-0.95-1.62
		c0-0.2,0.26-1,0.78-2.41c0.57-2.04,1.51-5.1,2.8-9.17c3.85-10.54,7.05-15.8,9.6-15.8c2.5,0,4.42,2.78,5.77,8.35
		c0.6,2.5,1.16,6.33,1.68,11.5c0.75,0.17,1.22,0.32,1.42,0.43C449,57.57,449.23,57.97,449.23,58.51z M443.21,56.88
		c-1.26-10.02-2.4-15.03-3.4-15.03c-0.8,0-2.21,2.35-4.22,7.06c-1.44,3.39-2.57,6.33-3.4,8.83c0.92-0.2,2.28-0.44,4.09-0.73
		C437.91,56.81,440.22,56.76,443.21,56.88z"/>
	<path class="st1" d="M473.26,48.28c0,4.51-1.03,8.58-3.1,12.2c-2.47,4.31-5.79,6.47-9.95,6.47c-1.49,0-2.78-0.32-3.88-0.95
		c-0.6,0.63-1.19,0.95-1.77,0.95c-0.34,0-0.75-0.19-1.21-0.56c-0.57-1.61-0.86-3.76-0.86-6.44c0-2.31,0.07-5.77,0.19-10.38
		c0.13-4.61,0.19-8.07,0.19-10.38c0-0.06-0.01-0.16-0.04-0.3s-0.04-0.26-0.04-0.35c0-0.52,0.19-0.94,0.56-1.25
		c0.37-0.32,0.82-0.48,1.33-0.48c0.72,0,1.36,0.26,1.92,0.77c0.56,0.52,0.77,1.12,0.62,1.81c1.46-2.15,3.54-3.23,6.24-3.23
		c3.27,0,5.78,1.24,7.54,3.71C472.51,42.06,473.26,44.86,473.26,48.28z M469,48.11c0-5.87-1.72-8.8-5.17-8.8
		c-1.41,0-2.8,0.72-4.18,2.16c-1.21,1.27-2.03,2.64-2.48,4.12c-0.45,1.48-0.67,3.11-0.67,4.9v9.27c0,2.7,1.13,4.06,3.4,4.06
		c2.04,0,3.89-1.05,5.55-3.15c1.38-1.78,2.33-3.81,2.84-6.08C468.77,52.54,469,50.38,469,48.11z"/>
	<path class="st1" d="M500.22,51.58c0,4.13-1.02,7.64-3.06,10.51c-2.27,3.24-5.38,4.87-9.34,4.87c-1.12,0-2.33-0.22-3.62-0.65
		c-2.87-0.92-4.92-2.51-6.16-4.78c-1.06-1.95-1.59-4.56-1.59-7.84c0-4.25,1.02-7.99,3.06-11.24c2.35-3.82,5.54-5.73,9.56-5.73
		c3.53,0,6.34,1.65,8.44,4.95C499.31,44.52,500.22,47.82,500.22,51.58z M496.08,51.19c0-5.97-1.92-9.54-5.77-10.72
		c-0.4-0.11-0.86-0.17-1.38-0.17c-1.61,0-3.22,0.72-4.82,2.15c-2.55,2.33-3.83,6.47-3.83,12.44c0,0.55,0.11,1.31,0.34,2.28
		c0.49,2.21,1.22,3.8,2.2,4.78c1.12,1.15,2.76,1.72,4.91,1.72c2.93,0,5.14-1.42,6.63-4.26C495.51,57.18,496.08,54.44,496.08,51.19z"
		/>
</g>
<g>
	<path class="st1" d="M114.07,340.94c0,1.52-0.88,2.69-2.65,3.52c-1.4,0.67-2.95,1.01-4.67,1.01c-1.57,0-3.41-0.35-5.53-1.05
		c-2.62-0.9-3.92-1.94-3.92-3.14c0-0.45,0.16-0.83,0.49-1.16c0.32-0.32,0.71-0.49,1.16-0.49c0.67,0,1.29,0.27,1.87,0.82
		c0.97,0.82,1.49,1.27,1.57,1.34c0.87,0.5,2.44,0.75,4.71,0.75c2.02,0,3.03-0.46,3.03-1.38c0-0.77-0.95-1.84-2.84-3.21
		c-1.32-0.85-2.64-1.69-3.96-2.54c-1.69-1.15-2.93-2.23-3.7-3.25c-1.02-1.34-1.53-2.89-1.53-4.63c0-2.19,0.67-4.15,2.02-5.87
		c1.44-1.89,3.24-2.84,5.38-2.84c1.84,0,3.4,0.5,4.67,1.51c1.27,1.01,2.08,2.42,2.43,4.24c0.07,0.7,0.22,1.73,0.45,3.1
		c0.1,0.4,0.15,0.7,0.15,0.9c0,0.9-0.15,1.66-0.45,2.28c-0.37,0.85-0.96,1.27-1.76,1.27c-0.45,0-0.88-0.21-1.29-0.62
		c-0.41-0.41-0.62-0.84-0.62-1.29c0-0.33,0.07-0.81,0.22-1.44s0.22-1.12,0.22-1.44c0-3.38-1.12-5.06-3.36-5.06
		c-1.25,0-2.29,0.53-3.14,1.59s-1.27,2.23-1.27,3.5c0,1.8,1.07,3.54,3.21,5.24c1.97,1.32,3.95,2.64,5.94,3.97
		C113.01,338.08,114.07,339.54,114.07,340.94z"/>
	<path class="st1" d="M128.27,341.32c0,1.25-0.85,2.22-2.54,2.91c-1.32,0.55-2.7,0.82-4.15,0.82c-3.84,0-5.75-2.18-5.75-6.54
		c0-1.79,0.44-3.79,1.31-5.98c1.07-2.69,2.37-4.04,3.89-4.04c1.37,0,2.85,0.61,4.43,1.83c1.58,1.22,2.37,2.49,2.37,3.81
		c0,1.64-0.73,2.95-2.2,3.92c-1.3,0.87-2.84,1.31-4.63,1.31c-0.35,0-0.91-0.21-1.68-0.63c0.1,2.37,0.8,3.55,2.09,3.55
		c1.1,0,2.17-0.31,3.23-0.93c1.06-0.62,1.74-0.93,2.04-0.93C127.73,340.42,128.27,340.72,128.27,341.32z M124.19,334.25
		c0-0.62-0.18-1.21-0.54-1.78c-0.36-0.56-0.84-0.84-1.44-0.84c-0.82,0-1.46,0.36-1.91,1.08c-0.37,0.62-0.56,1.36-0.56,2.2
		c0,0.47,0.16,0.86,0.49,1.16c0.32,0.3,0.73,0.45,1.23,0.45C123.29,336.53,124.19,335.77,124.19,334.25z"/>
	<path class="st1" d="M140,331.75c0,0.17-0.03,0.45-0.07,0.82c-0.52,0.75-1.07,1.12-1.64,1.12c-0.47,0-0.9-0.27-1.27-0.82
		c-0.05-1.12-0.45-1.68-1.2-1.68c-0.45,0-1,1.18-1.64,3.55c-0.3,1.05-0.45,2.5-0.45,4.37c0,1.77,0.08,2.84,0.24,3.21
		c0.19,0.47,0.28,0.8,0.28,0.97c0,0.42-0.19,0.77-0.57,1.03s-0.81,0.39-1.28,0.39c-1.33,0-2-0.62-2-1.87c0-0.12,0.03-0.3,0.09-0.52
		c0.06-0.22,0.09-0.39,0.09-0.49c0-1.27-0.06-3.16-0.19-5.66c-0.12-2.5-0.19-4.38-0.19-5.62c0-1.12,0.67-1.68,2.02-1.68
		c0.8,0,1.35,0.24,1.64,0.71c0.7-0.77,1.48-1.16,2.35-1.16c0.6,0,1.17,0.16,1.72,0.49c0.37,0.2,0.81,0.63,1.31,1.29
		C139.75,330.86,140,331.38,140,331.75z"/>
	<path class="st1" d="M155.73,338.25c0,3.21-0.1,5.48-0.3,6.8c-0.12,0.77-0.65,1.16-1.57,1.16c-1.4,0-2.02-0.7-1.87-2.09
		c-1.25,0.6-2.54,0.9-3.89,0.9c-1.3,0-2.53-0.32-3.7-0.97c-1.4-0.77-2.09-1.76-2.09-2.95c0-1.17,0.8-2.27,2.39-3.29
		c1.44-0.92,2.8-1.38,4.07-1.38h3.18v-0.9c0.02-2.62-0.75-3.92-2.32-3.92c-1.97,0-2.95,0.92-2.95,2.76c0,0.62-0.35,0.93-1.05,0.93
		c-0.42,0-0.87-0.19-1.33-0.58c-0.46-0.39-0.69-0.79-0.69-1.21c0-1.39,0.5-2.54,1.49-3.44c1-0.9,2.19-1.34,3.59-1.34
		C153.39,328.72,155.73,331.9,155.73,338.25z M151.96,339.6c0-0.5-0.37-0.75-1.12-0.75c-3.11,0-4.67,0.73-4.67,2.2
		c0,0.8,0.68,1.2,2.06,1.2c0.85,0,1.64-0.24,2.39-0.71C151.51,341.02,151.96,340.37,151.96,339.6z M153.71,323.12
		c-0.12,0.27-0.27,0.5-0.43,0.69c-0.16,0.19-0.34,0.32-0.54,0.39c-0.12,0.05-0.4,0.19-0.82,0.43c-0.42,0.24-1,0.58-1.72,1.03
		c-1.4,0.8-2.32,1.2-2.76,1.2c-0.35,0-0.64-0.1-0.86-0.3c-0.22-0.2-0.32-0.5-0.3-0.9v-0.45c0.37-0.45,0.76-0.88,1.16-1.29
		c0.4-0.41,0.81-0.83,1.23-1.25c1.29-1.22,2.28-1.83,2.95-1.83c0.22,0,0.45,0.06,0.69,0.17c0.24,0.11,0.45,0.26,0.65,0.45
		c0.2,0.19,0.37,0.39,0.52,0.62c0.15,0.22,0.25,0.45,0.3,0.67L153.71,323.12z"/>
	<path class="st1" d="M170.94,340.83c0,1.17-0.5,2.19-1.49,3.06c-1.1,0.95-2.57,1.42-4.41,1.42c-0.8,0.02-1.66-0.14-2.58-0.49
		c-2.99-1.12-4.48-2.03-4.48-2.73c0-1.1,0.78-1.64,2.35-1.64c0.22,0,0.46,0.01,0.71,0.04c0.07,0.75,0.67,1.35,1.79,1.79
		c0.97,0.4,1.91,0.56,2.8,0.49c0.72-0.05,1.08-0.31,1.08-0.78c0-0.08-0.02-0.19-0.06-0.34c-0.04-0.15-0.06-0.27-0.06-0.35
		c0-0.09-0.47-0.28-1.42-0.58c-1.07-0.32-1.67-0.51-1.79-0.56c-2.84-1.69-4.26-3.74-4.26-6.13c0-1.44,0.41-2.78,1.23-4
		c0.92-1.34,2.07-2.02,3.44-2.02c1.02,0,2.19,0.4,3.49,1.2c1.31,0.8,2.11,1.66,2.41,2.58c0.2,0.65,0.3,1.18,0.3,1.61
		c0,0.45-0.06,0.82-0.19,1.12c-0.15,0.37-0.3,0.75-0.45,1.12c-0.47,0.32-0.95,0.49-1.42,0.49c-0.25,0-0.67-0.16-1.25-0.47
		c-0.59-0.31-0.88-0.58-0.88-0.8c0-0.1,0.15-0.42,0.45-0.97c0.17-0.32,0.26-0.6,0.26-0.82c0-1.49-0.59-2.24-1.76-2.24
		c-0.7,0-1.23,0.45-1.61,1.34c-0.27,0.7-0.41,1.45-0.41,2.24c0,1,0.71,1.89,2.13,2.69c1.29,0.57,2.6,1.16,3.92,1.76
		C170.23,339.5,170.94,340.16,170.94,340.83z"/>
	<path class="st1" d="M188.91,331.75c0,0.17-0.03,0.45-0.07,0.82c-0.52,0.75-1.07,1.12-1.64,1.12c-0.47,0-0.9-0.27-1.27-0.82
		c-0.05-1.12-0.45-1.68-1.2-1.68c-0.45,0-1,1.18-1.64,3.55c-0.3,1.05-0.45,2.5-0.45,4.37c0,1.77,0.08,2.84,0.24,3.21
		c0.19,0.47,0.28,0.8,0.28,0.97c0,0.42-0.19,0.77-0.57,1.03s-0.81,0.39-1.28,0.39c-1.33,0-2-0.62-2-1.87c0-0.12,0.03-0.3,0.09-0.52
		c0.06-0.22,0.09-0.39,0.09-0.49c0-1.27-0.06-3.16-0.19-5.66c-0.12-2.5-0.19-4.38-0.19-5.62c0-1.12,0.67-1.68,2.02-1.68
		c0.8,0,1.35,0.24,1.64,0.71c0.7-0.77,1.48-1.16,2.35-1.16c0.6,0,1.17,0.16,1.72,0.49c0.37,0.2,0.81,0.63,1.31,1.29
		C188.66,330.86,188.91,331.38,188.91,331.75z"/>
	<path class="st1" d="M203.33,341.32c0,1.25-0.85,2.22-2.54,2.91c-1.32,0.55-2.7,0.82-4.15,0.82c-3.84,0-5.75-2.18-5.75-6.54
		c0-1.79,0.44-3.79,1.31-5.98c1.07-2.69,2.37-4.04,3.89-4.04c1.37,0,2.85,0.61,4.43,1.83c1.58,1.22,2.37,2.49,2.37,3.81
		c0,1.64-0.73,2.95-2.2,3.92c-1.3,0.87-2.84,1.31-4.63,1.31c-0.35,0-0.91-0.21-1.68-0.63c0.1,2.37,0.8,3.55,2.09,3.55
		c1.1,0,2.17-0.31,3.23-0.93c1.06-0.62,1.74-0.93,2.04-0.93C202.79,340.42,203.33,340.72,203.33,341.32z M199.26,334.25
		c0-0.62-0.18-1.21-0.54-1.78c-0.36-0.56-0.84-0.84-1.44-0.84c-0.82,0-1.46,0.36-1.91,1.08c-0.37,0.62-0.56,1.36-0.56,2.2
		c0,0.47,0.16,0.86,0.49,1.16c0.32,0.3,0.73,0.45,1.23,0.45C198.35,336.53,199.26,335.77,199.26,334.25z"/>
	<path class="st1" d="M218.43,321.89c0,0.55-0.07,1.26-0.22,2.13c-0.2,1.17-0.32,1.87-0.37,2.09c-0.07,0.77-0.19,3.05-0.35,6.84
		s-0.24,5.88-0.24,6.28c0,2.39,0.26,4.19,0.78,5.38c-0.42,0.7-0.91,1.05-1.46,1.05c-0.57,0-1.08-0.22-1.53-0.65s-0.7-0.94-0.75-1.51
		c-1.17,1.07-2.37,1.61-3.59,1.61c-1.82,0-3.23-0.63-4.22-1.91c-0.92-1.15-1.38-2.65-1.38-4.52c0-2.19,0.45-4.42,1.35-6.69
		c1.15-2.86,2.64-4.3,4.48-4.3c1.1,0,2.22,0.49,3.36,1.46c0.12-1.17,0.19-4.16,0.19-8.97c0-0.45,0.34-0.67,1.01-0.67
		c0.8,0,1.49,0.2,2.07,0.6C218.13,320.49,218.43,321.09,218.43,321.89z M214.09,334.55c0-0.85-0.19-1.62-0.56-2.32
		c-0.47-0.85-1.1-1.27-1.87-1.27c-1.12,0-1.98,1.11-2.58,3.33c-0.45,1.59-0.67,3.16-0.67,4.71c0,2.32,0.67,3.47,2.02,3.47
		c1.39,0,2.4-1.03,3.03-3.1C213.88,337.98,214.09,336.37,214.09,334.55z"/>
	<path class="st1" d="M224.55,330.22c0,0.45-0.1,1.08-0.3,1.91c-0.2,0.82-0.3,1.46-0.3,1.91v7.7c0,0.47,0.15,1.22,0.45,2.24
		c-0.38,0.57-0.79,0.86-1.25,0.86c-1.58,0-2.45-0.79-2.6-2.35c-0.25-2.91-0.37-5.11-0.37-6.58c0-2.47,0.1-4.53,0.3-6.2
		c0-0.12,0-0.25,0-0.37c0-0.45,0.35-0.67,1.04-0.67c0.62,0,1.23,0.12,1.85,0.37C224.16,329.3,224.55,329.7,224.55,330.22z
		 M224.89,324.99c0,0.55-0.19,1-0.56,1.34c-0.37,0.35-0.83,0.52-1.38,0.52c-0.65,0-1.25-0.22-1.81-0.67c-0.56-0.45-0.84-1-0.84-1.64
		c0-0.55,0.19-1,0.58-1.35c0.39-0.35,0.87-0.52,1.44-0.52c0.67,0,1.27,0.22,1.79,0.65C224.63,323.76,224.89,324.32,224.89,324.99z"
		/>
	<path class="st1" d="M236.25,331.75c0,0.17-0.03,0.45-0.07,0.82c-0.52,0.75-1.07,1.12-1.64,1.12c-0.47,0-0.9-0.27-1.27-0.82
		c-0.05-1.12-0.45-1.68-1.2-1.68c-0.45,0-1,1.18-1.64,3.55c-0.3,1.05-0.45,2.5-0.45,4.37c0,1.77,0.08,2.84,0.24,3.21
		c0.19,0.47,0.28,0.8,0.28,0.97c0,0.42-0.19,0.77-0.57,1.03s-0.81,0.39-1.28,0.39c-1.33,0-2-0.62-2-1.87c0-0.12,0.03-0.3,0.09-0.52
		c0.06-0.22,0.09-0.39,0.09-0.49c0-1.27-0.06-3.16-0.19-5.66c-0.12-2.5-0.19-4.38-0.19-5.62c0-1.12,0.67-1.68,2.02-1.68
		c0.8,0,1.35,0.24,1.64,0.71c0.7-0.77,1.48-1.16,2.35-1.16c0.6,0,1.17,0.16,1.72,0.49c0.37,0.2,0.81,0.63,1.31,1.29
		C236,330.86,236.25,331.38,236.25,331.75z"/>
	<path class="st1" d="M250.67,341.32c0,1.25-0.85,2.22-2.54,2.91c-1.32,0.55-2.7,0.82-4.15,0.82c-3.84,0-5.75-2.18-5.75-6.54
		c0-1.79,0.44-3.79,1.31-5.98c1.07-2.69,2.37-4.04,3.89-4.04c1.37,0,2.85,0.61,4.43,1.83c1.58,1.22,2.37,2.49,2.37,3.81
		c0,1.64-0.73,2.95-2.2,3.92c-1.3,0.87-2.84,1.31-4.63,1.31c-0.35,0-0.91-0.21-1.68-0.63c0.1,2.37,0.8,3.55,2.09,3.55
		c1.1,0,2.17-0.31,3.23-0.93c1.06-0.62,1.74-0.93,2.04-0.93C250.13,340.42,250.67,340.72,250.67,341.32z M246.6,334.25
		c0-0.62-0.18-1.21-0.54-1.78c-0.36-0.56-0.84-0.84-1.44-0.84c-0.82,0-1.46,0.36-1.91,1.08c-0.37,0.62-0.56,1.36-0.56,2.2
		c0,0.47,0.16,0.86,0.49,1.16c0.32,0.3,0.73,0.45,1.23,0.45C245.69,336.53,246.6,335.77,246.6,334.25z"/>
	<path class="st1" d="M265.65,340.38c0,0.77-0.59,1.68-1.76,2.73c-1.05,0.97-1.99,1.58-2.82,1.83c-0.83,0.25-1.63,0.37-2.37,0.37
		c-1.97,0-3.51-0.62-4.61-1.87c-1.11-1.25-1.66-2.85-1.66-4.82c0-1.92,0.51-4.06,1.53-6.43c1.22-2.84,2.64-4.26,4.26-4.26
		c0.9,0,1.98,0.35,3.25,1.05c1.34,0.77,2.13,1.54,2.35,2.32c0.2,0.67,0.3,1.43,0.3,2.28c0,0.77-0.16,1.64-0.49,2.62
		c-0.4,1.25-0.9,1.87-1.49,1.87c-0.42,0-0.82-0.12-1.2-0.37c-0.45-0.27-0.67-0.61-0.67-1c0-0.02,0.11-0.31,0.34-0.85
		c0.12-0.25,0.19-0.93,0.19-2.04c0-0.92-0.04-1.51-0.11-1.78c-0.15-0.77-0.5-1.15-1.05-1.15c-1.22,0-2.17,1.06-2.84,3.17
		c-0.5,1.56-0.75,3.14-0.75,4.73c0,2.66,0.85,3.99,2.54,3.99c0.67,0,1.44-0.35,2.32-1.05c0.8-0.65,1.36-1.31,1.68-1.98
		c0.4-0.8,0.88-1.2,1.46-1.2c0.37,0,0.73,0.22,1.08,0.65C265.48,339.6,265.65,340.01,265.65,340.38z"/>
	<path class="st1" d="M280.64,340.38c0,0.77-0.59,1.68-1.76,2.73c-1.05,0.97-1.99,1.58-2.82,1.83c-0.83,0.25-1.63,0.37-2.37,0.37
		c-1.97,0-3.51-0.62-4.61-1.87c-1.11-1.25-1.66-2.85-1.66-4.82c0-1.92,0.51-4.06,1.53-6.43c1.22-2.84,2.64-4.26,4.26-4.26
		c0.9,0,1.98,0.35,3.25,1.05c1.34,0.77,2.13,1.54,2.35,2.32c0.2,0.67,0.3,1.43,0.3,2.28c0,0.77-0.16,1.64-0.49,2.62
		c-0.4,1.25-0.9,1.87-1.49,1.87c-0.42,0-0.82-0.12-1.2-0.37c-0.45-0.27-0.67-0.61-0.67-1c0-0.02,0.11-0.31,0.34-0.85
		c0.12-0.25,0.19-0.93,0.19-2.04c0-0.92-0.04-1.51-0.11-1.78c-0.15-0.77-0.5-1.15-1.05-1.15c-1.22,0-2.17,1.06-2.84,3.17
		c-0.5,1.56-0.75,3.14-0.75,4.73c0,2.66,0.85,3.99,2.54,3.99c0.67,0,1.44-0.35,2.32-1.05c0.8-0.65,1.36-1.31,1.68-1.98
		c0.4-0.8,0.88-1.2,1.46-1.2c0.37,0,0.73,0.22,1.08,0.65C280.46,339.6,280.64,340.01,280.64,340.38z"/>
	<path class="st1" d="M286.76,330.22c0,0.45-0.1,1.08-0.3,1.91c-0.2,0.82-0.3,1.46-0.3,1.91v7.7c0,0.47,0.15,1.22,0.45,2.24
		c-0.38,0.57-0.79,0.86-1.25,0.86c-1.58,0-2.45-0.79-2.6-2.35c-0.25-2.91-0.37-5.11-0.37-6.58c0-2.47,0.1-4.53,0.3-6.2
		c0-0.12,0-0.25,0-0.37c0-0.45,0.35-0.67,1.04-0.67c0.62,0,1.23,0.12,1.85,0.37C286.37,329.3,286.76,329.7,286.76,330.22z
		 M287.1,324.99c0,0.55-0.19,1-0.56,1.34c-0.37,0.35-0.83,0.52-1.38,0.52c-0.65,0-1.25-0.22-1.81-0.67c-0.56-0.45-0.84-1-0.84-1.64
		c0-0.55,0.19-1,0.58-1.35c0.39-0.35,0.87-0.52,1.44-0.52c0.67,0,1.27,0.22,1.79,0.65C286.84,323.76,287.1,324.32,287.1,324.99z"/>
	<path class="st1" d="M302.01,337.24c0,2.24-0.56,4.16-1.68,5.75c-1.3,1.82-3.01,2.73-5.16,2.73c-2.19,0-3.85-0.75-4.97-2.24
		c-1.02-1.32-1.53-3.11-1.53-5.38c0-2.24,0.56-4.36,1.68-6.35c1.29-2.37,2.98-3.55,5.04-3.55c0.65,0,1.46,0.29,2.43,0.86
		C300.61,330.73,302.01,333.46,302.01,337.24z M298.72,337.17c0-3.81-0.92-5.72-2.76-5.72c-1.32,0-2.32,0.81-2.99,2.43
		c-0.5,1.22-0.75,2.6-0.75,4.15c0,3.31,0.98,4.97,2.95,4.97c1.27,0,2.22-0.68,2.84-2.06C298.48,339.9,298.72,338.64,298.72,337.17z"
		/>
	<path class="st1" d="M317.7,344.34c-0.37,0.57-0.83,0.86-1.38,0.86c-0.42,0-1.12-0.25-2.09-0.75v-0.45c0-0.55,0.01-1.36,0.04-2.43
		c0.02-1.07,0.04-1.86,0.04-2.35c0-5.33-0.79-8-2.38-8c-0.45,0-0.95,0.35-1.52,1.05c-1.76,2.14-2.64,4.72-2.64,7.73
		c0,0.42,0.08,1.05,0.24,1.89c0.16,0.83,0.24,1.46,0.24,1.89c0,0.35-0.16,0.64-0.49,0.86c-0.32,0.22-0.67,0.34-1.05,0.34
		c-1.49,0-2.24-0.95-2.24-2.84v-7.81c0-0.2,0.02-0.49,0.07-0.88c0.05-0.39,0.07-0.68,0.07-0.88c0-0.3-0.04-0.73-0.13-1.31
		s-0.13-1-0.13-1.27c0-0.4,0.23-0.78,0.69-1.14c0.46-0.36,0.88-0.54,1.25-0.54c0.55,0,1.11,0.31,1.68,0.93l-0.11,1.49
		c0.92-1.47,2.05-2.2,3.4-2.2c0.87,0,1.79,0.3,2.77,0.9c0.97,0.6,1.68,1.27,2.13,2.02c1.02,1.89,1.53,4.38,1.53,7.47V344.34z"/>
	<path class="st1" d="M333.69,338.25c0,3.21-0.1,5.48-0.3,6.8c-0.12,0.77-0.65,1.16-1.57,1.16c-1.4,0-2.02-0.7-1.87-2.09
		c-1.25,0.6-2.54,0.9-3.89,0.9c-1.3,0-2.53-0.32-3.7-0.97c-1.4-0.77-2.09-1.76-2.09-2.95c0-1.17,0.8-2.27,2.39-3.29
		c1.44-0.92,2.8-1.38,4.07-1.38h3.18v-0.89c0.02-2.6-0.75-3.89-2.32-3.89c-1.97,0-2.95,0.91-2.95,2.74c0,0.62-0.35,0.92-1.05,0.92
		c-0.42,0-0.87-0.19-1.33-0.58c-0.46-0.39-0.69-0.79-0.69-1.21c0-1.39,0.5-2.54,1.49-3.44c1-0.9,2.19-1.34,3.59-1.34
		C331.35,328.72,333.69,331.9,333.69,338.25z M329.92,339.6c0-0.5-0.37-0.75-1.12-0.75c-3.11,0-4.67,0.73-4.67,2.2
		c0,0.8,0.69,1.2,2.06,1.2c0.85,0,1.64-0.24,2.39-0.71C329.47,341.02,329.92,340.37,329.92,339.6z"/>
	<path class="st1" d="M349.23,321.89c0,0.55-0.07,1.26-0.22,2.13c-0.2,1.17-0.32,1.87-0.37,2.09c-0.07,0.77-0.19,3.05-0.35,6.84
		s-0.24,5.88-0.24,6.28c0,2.39,0.26,4.19,0.78,5.38c-0.42,0.7-0.91,1.05-1.46,1.05c-0.57,0-1.08-0.22-1.53-0.65s-0.7-0.94-0.75-1.51
		c-1.17,1.07-2.37,1.61-3.59,1.61c-1.82,0-3.23-0.63-4.22-1.91c-0.92-1.15-1.38-2.65-1.38-4.52c0-2.19,0.45-4.42,1.35-6.69
		c1.15-2.86,2.64-4.3,4.48-4.3c1.1,0,2.22,0.49,3.36,1.46c0.12-1.17,0.19-4.16,0.19-8.97c0-0.45,0.34-0.67,1.01-0.67
		c0.8,0,1.49,0.2,2.07,0.6C348.94,320.49,349.23,321.09,349.23,321.89z M344.9,334.55c0-0.85-0.19-1.62-0.56-2.32
		c-0.47-0.85-1.1-1.27-1.87-1.27c-1.12,0-1.98,1.11-2.58,3.33c-0.45,1.59-0.67,3.16-0.67,4.71c0,2.32,0.67,3.47,2.02,3.47
		c1.39,0,2.4-1.03,3.03-3.1C344.69,337.98,344.9,336.37,344.9,334.55z"/>
	<path class="st1" d="M364.52,337.24c0,2.24-0.56,4.16-1.68,5.75c-1.29,1.82-3.01,2.73-5.16,2.73c-2.19,0-3.85-0.75-4.97-2.24
		c-1.02-1.32-1.53-3.11-1.53-5.38c0-2.24,0.56-4.36,1.68-6.35c1.29-2.37,2.98-3.55,5.04-3.55c0.65,0,1.46,0.29,2.43,0.86
		C363.12,330.73,364.52,333.46,364.52,337.24z M361.23,337.17c0-3.81-0.92-5.72-2.76-5.72c-1.32,0-2.32,0.81-2.99,2.43
		c-0.5,1.22-0.75,2.6-0.75,4.15c0,3.31,0.98,4.97,2.95,4.97c1.27,0,2.22-0.68,2.84-2.06C360.99,339.9,361.23,338.64,361.23,337.17z"
		/>
	<path class="st1" d="M385.18,341.32c0,1.25-0.85,2.22-2.54,2.91c-1.32,0.55-2.7,0.82-4.15,0.82c-3.84,0-5.75-2.18-5.75-6.54
		c0-1.79,0.44-3.79,1.31-5.98c1.07-2.69,2.37-4.04,3.89-4.04c1.37,0,2.85,0.61,4.43,1.83c1.58,1.22,2.37,2.49,2.37,3.81
		c0,1.64-0.74,2.95-2.2,3.92c-1.3,0.87-2.84,1.31-4.63,1.31c-0.35,0-0.91-0.21-1.68-0.63c0.1,2.37,0.8,3.55,2.09,3.55
		c1.1,0,2.17-0.31,3.23-0.93c1.06-0.62,1.74-0.93,2.04-0.93C384.64,340.42,385.18,340.72,385.18,341.32z M381.11,334.25
		c0-0.62-0.18-1.21-0.54-1.78c-0.36-0.56-0.84-0.84-1.44-0.84c-0.82,0-1.46,0.36-1.91,1.08c-0.37,0.62-0.56,1.36-0.56,2.2
		c0,0.47,0.16,0.86,0.49,1.16c0.32,0.3,0.73,0.45,1.23,0.45C380.2,336.53,381.11,335.77,381.11,334.25z"/>
	<path class="st1" d="M400.65,344.34c-0.37,0.57-0.83,0.86-1.38,0.86c-0.42,0-1.12-0.25-2.09-0.75v-0.45c0-0.55,0.01-1.36,0.04-2.43
		c0.02-1.07,0.04-1.86,0.04-2.35c0-5.33-0.79-8-2.38-8c-0.45,0-0.95,0.35-1.52,1.05c-1.76,2.14-2.64,4.72-2.64,7.73
		c0,0.42,0.08,1.05,0.24,1.89c0.16,0.83,0.24,1.46,0.24,1.89c0,0.35-0.16,0.64-0.49,0.86c-0.32,0.22-0.67,0.34-1.05,0.34
		c-1.49,0-2.24-0.95-2.24-2.84v-7.81c0-0.2,0.02-0.49,0.07-0.88c0.05-0.39,0.07-0.68,0.07-0.88c0-0.3-0.04-0.73-0.13-1.31
		c-0.09-0.57-0.13-1-0.13-1.27c0-0.4,0.23-0.78,0.69-1.14c0.46-0.36,0.88-0.54,1.25-0.54c0.55,0,1.11,0.31,1.68,0.93l-0.11,1.49
		c0.92-1.47,2.06-2.2,3.4-2.2c0.87,0,1.79,0.3,2.76,0.9c0.97,0.6,1.68,1.27,2.13,2.02c1.02,1.89,1.53,4.38,1.53,7.47V344.34z"/>
	<path class="st1" d="M422.06,336.12c0,2.24-0.39,4.15-1.16,5.72c-1,2.02-2.5,3.03-4.52,3.03c-0.65,0-1.67-0.24-3.06-0.71
		c0.02,0.17,0.04,0.34,0.04,0.49c0,0.82-0.46,1.23-1.38,1.23c-0.67,0-1.22-0.25-1.64-0.75c-0.2-0.22-0.36-1-0.49-2.32
		c-0.12-1.1-0.19-1.96-0.19-2.58v-0.15l0.56-21.11c0.4-0.62,0.87-0.88,1.42-0.79c0.12-0.05,0.25-0.07,0.37-0.07
		c0.45,0,0.87,0.27,1.25,0.8c0.39,0.54,0.58,1.04,0.58,1.51c0,1.07-0.1,2.5-0.3,4.3c-0.25,2.07-0.39,3.49-0.41,4.26
		c0.72-0.87,1.66-1.31,2.8-1.31c1.37,0,2.6,0.49,3.7,1.48c1.1,0.98,1.81,2.17,2.13,3.57C421.96,333.57,422.06,334.7,422.06,336.12z
		 M418.58,335.86c0-3.39-0.71-5.08-2.12-5.08c-1.19,0-2.09,0.86-2.71,2.58c-0.47,1.3-0.71,2.68-0.71,4.15
		c0,3.14,0.94,4.71,2.82,4.71C417.68,342.21,418.58,340.1,418.58,335.86z"/>
	<path class="st1" d="M434.39,331.75c0,0.17-0.03,0.45-0.08,0.82c-0.52,0.75-1.07,1.12-1.64,1.12c-0.47,0-0.9-0.27-1.27-0.82
		c-0.05-1.12-0.45-1.68-1.2-1.68c-0.45,0-1,1.18-1.64,3.55c-0.3,1.05-0.45,2.5-0.45,4.37c0,1.77,0.08,2.84,0.24,3.21
		c0.19,0.47,0.28,0.8,0.28,0.97c0,0.42-0.19,0.77-0.57,1.03s-0.81,0.39-1.28,0.39c-1.33,0-2-0.62-2-1.87c0-0.12,0.03-0.3,0.09-0.52
		c0.06-0.22,0.09-0.39,0.09-0.49c0-1.27-0.06-3.16-0.19-5.66c-0.12-2.5-0.19-4.38-0.19-5.62c0-1.12,0.67-1.68,2.02-1.68
		c0.8,0,1.34,0.24,1.64,0.71c0.7-0.77,1.48-1.16,2.35-1.16c0.6,0,1.17,0.16,1.72,0.49c0.37,0.2,0.81,0.63,1.31,1.29
		C434.14,330.86,434.39,331.38,434.39,331.75z"/>
	<path class="st1" d="M448.81,341.32c0,1.25-0.85,2.22-2.54,2.91c-1.32,0.55-2.7,0.82-4.15,0.82c-3.84,0-5.75-2.18-5.75-6.54
		c0-1.79,0.44-3.79,1.31-5.98c1.07-2.69,2.37-4.04,3.89-4.04c1.37,0,2.85,0.61,4.43,1.83c1.58,1.22,2.37,2.49,2.37,3.81
		c0,1.64-0.74,2.95-2.2,3.92c-1.3,0.87-2.84,1.31-4.63,1.31c-0.35,0-0.91-0.21-1.68-0.63c0.1,2.37,0.8,3.55,2.09,3.55
		c1.1,0,2.17-0.31,3.23-0.93c1.06-0.62,1.74-0.93,2.04-0.93C448.27,340.42,448.81,340.72,448.81,341.32z M444.74,334.25
		c0-0.62-0.18-1.21-0.54-1.78c-0.36-0.56-0.84-0.84-1.44-0.84c-0.82,0-1.46,0.36-1.91,1.08c-0.37,0.62-0.56,1.36-0.56,2.2
		c0,0.47,0.16,0.86,0.49,1.16c0.32,0.3,0.73,0.45,1.23,0.45C443.83,336.53,444.74,335.77,444.74,334.25z"/>
	<path class="st1" d="M463.38,330.29c0,1.79-0.57,4.53-1.72,8.22c-1.35,4.24-2.65,6.35-3.92,6.35c-1.82,0-3.44-1.78-4.86-5.34
		c-0.87-2.22-1.58-4.81-2.13-7.77c-0.12-0.72-0.19-1.28-0.19-1.68c0-0.4,0.18-0.75,0.54-1.06c0.36-0.31,0.74-0.47,1.14-0.47
		c0.47,0,1.21,0.36,2.2,1.08c-0.17,0.57-0.26,1.06-0.26,1.46c0,1.34,0.33,3.1,0.99,5.27s1.38,3.8,2.15,4.9v0.11
		c0.91,0,1.62-1.69,2.12-5.08c0.35-2.32,0.53-4.43,0.53-6.35c0-0.37,0.19-0.7,0.57-0.97s0.76-0.41,1.13-0.41
		C462.81,328.54,463.38,329.12,463.38,330.29z"/>
	<path class="st1" d="M477.58,341.32c0,1.25-0.85,2.22-2.54,2.91c-1.32,0.55-2.7,0.82-4.15,0.82c-3.84,0-5.75-2.18-5.75-6.54
		c0-1.79,0.44-3.79,1.31-5.98c1.07-2.69,2.37-4.04,3.89-4.04c1.37,0,2.85,0.61,4.43,1.83c1.58,1.22,2.37,2.49,2.37,3.81
		c0,1.64-0.74,2.95-2.2,3.92c-1.3,0.87-2.84,1.31-4.63,1.31c-0.35,0-0.91-0.21-1.68-0.63c0.1,2.37,0.8,3.55,2.09,3.55
		c1.1,0,2.17-0.31,3.23-0.93c1.06-0.62,1.74-0.93,2.04-0.93C477.04,340.42,477.58,340.72,477.58,341.32z M473.5,334.25
		c0-0.62-0.18-1.21-0.54-1.78c-0.36-0.56-0.84-0.84-1.44-0.84c-0.82,0-1.46,0.36-1.91,1.08c-0.37,0.62-0.56,1.36-0.56,2.2
		c0,0.47,0.16,0.86,0.49,1.16c0.32,0.3,0.73,0.45,1.23,0.45C472.59,336.53,473.5,335.77,473.5,334.25z"/>
	<path class="st1" d="M499.36,338.25c0,3.21-0.1,5.48-0.3,6.8c-0.12,0.77-0.65,1.16-1.57,1.16c-1.39,0-2.02-0.7-1.87-2.09
		c-1.25,0.6-2.54,0.9-3.89,0.9c-1.29,0-2.53-0.32-3.7-0.97c-1.39-0.77-2.09-1.76-2.09-2.95c0-1.17,0.8-2.27,2.39-3.29
		c1.45-0.92,2.8-1.38,4.07-1.38h3.18v-0.89c0.02-2.6-0.75-3.89-2.32-3.89c-1.97,0-2.95,0.91-2.95,2.74c0,0.62-0.35,0.92-1.05,0.92
		c-0.42,0-0.87-0.19-1.33-0.58c-0.46-0.39-0.69-0.79-0.69-1.21c0-1.39,0.5-2.54,1.49-3.44c1-0.9,2.19-1.34,3.59-1.34
		C497.02,328.72,499.36,331.9,499.36,338.25z M495.59,339.6c0-0.5-0.37-0.75-1.12-0.75c-3.11,0-4.67,0.73-4.67,2.2
		c0,0.8,0.68,1.2,2.05,1.2c0.85,0,1.64-0.24,2.39-0.71C495.14,341.02,495.59,340.37,495.59,339.6z"/>
	<path class="st1" d="M517.29,331.23c0,0.67-1.02,1.15-3.06,1.42c-0.05,0.55-0.07,1.79-0.07,3.74v2.47c0,0.5,0.07,1.23,0.22,2.2
		s0.22,1.69,0.22,2.17c0,0.4-0.2,0.75-0.6,1.07c-0.4,0.31-0.8,0.47-1.2,0.47c-0.62,0-1.15-0.54-1.57-1.61
		c-0.32-0.82-0.49-1.62-0.49-2.39v-7.92c-1.15-0.17-1.81-0.29-1.98-0.34c-0.65-0.2-0.97-0.49-0.97-0.86c0-0.1,0.02-0.21,0.08-0.34
		c0.65-0.92,1.37-1.38,2.17-1.38c0.05,0,0.12,0,0.22,0c0.1,0.03,0.17,0.04,0.22,0.04c0.52,0,0.77-0.61,0.75-1.83v-2.73
		c-0.12-0.27-0.19-0.51-0.19-0.71c0-0.32,0.19-0.62,0.57-0.88s0.75-0.39,1.09-0.39c0.52,0,1.01,0.24,1.48,0.73s0.7,1,0.7,1.55
		c0,0.6-0.09,1.19-0.28,1.77c-0.19,0.59-0.27,1.19-0.24,1.81v0.15C516.32,329.63,517.29,330.23,517.29,331.23z"/>
	<path class="st1" d="M530.9,331.26c0,0.77-0.09,1.93-0.28,3.49c-0.19,1.55-0.28,2.73-0.28,3.52c0,0.7,0.03,1.73,0.09,3.11
		c0.06,1.38,0.09,2.4,0.09,3.08c0,0.57-0.49,0.86-1.46,0.86c-1,0-1.63-0.47-1.91-1.42c-0.95,0.62-1.87,0.93-2.76,0.93
		c-0.72,0-1.54-0.19-2.47-0.58c-0.92-0.39-1.57-0.85-1.94-1.4c-0.72-1.05-1.08-2.73-1.08-5.04c0-0.8,0.03-2.19,0.08-4.18
		c0.08-1.77,0.1-3.15,0.08-4.15c0.75-0.55,1.38-0.82,1.89-0.82c1.21,0,1.81,0.58,1.81,1.76c0,0.4-0.06,1-0.19,1.79
		c-0.12,0.8-0.19,1.4-0.19,1.79v5.27c0,0.6,0.16,1.22,0.49,1.87c0.4,0.75,0.87,1.12,1.42,1.12c1.07,0,1.87-0.69,2.39-2.06
		c0.35-0.95,0.52-2.09,0.52-3.44v-4.48c0-0.57-0.15-1.28-0.45-2.13c0.62-0.57,1.22-0.86,1.79-0.86c0.6,0,1.14,0.19,1.62,0.56
		C530.65,330.22,530.9,330.69,530.9,331.26z"/>
	<path class="st1" d="M551.93,335.71c0,2.54-0.45,4.7-1.35,6.46c-1.12,2.29-2.82,3.44-5.08,3.44c-1.22,0-2.27-0.35-3.14-1.05
		c0,0.27,0,0.65,0,1.12c0,0.55,0,0.92,0,1.12c0,2.39,0.27,4.27,0.82,5.64c0.25,0.55,0.37,0.9,0.37,1.05c0,0.85-0.5,1.27-1.49,1.27
		c-0.75,0-1.31-0.14-1.68-0.41c-0.27-0.17-0.55-0.8-0.82-1.87c-0.22-0.95-0.34-1.67-0.34-2.17v-9c0-0.82,0.05-1.94,0.15-3.36
		c0.1-1.59,0.16-2.7,0.19-3.33c0.02-0.62,0.02-1.44,0-2.47c0-1.29,0-2.13,0-2.5c0-2.12,0.69-3.18,2.07-3.18
		c0.34,0,0.67,0.12,0.96,0.36c0.3,0.24,0.44,0.52,0.44,0.84c0,0.55-0.06,1.54-0.19,2.99c0.97-1.37,2.14-2.06,3.51-2.06
		c1.84,0,3.26,0.75,4.26,2.24C551.49,332.15,551.93,333.77,551.93,335.71z M548.6,335.38c0-2.69-0.58-4.04-1.73-4.04
		c-0.5,0-1.15,0.49-1.96,1.46c-1.55,1.87-2.41,4.45-2.56,7.73c0.28,0.15,0.76,0.67,1.47,1.57c0.55,0.67,1.1,1.01,1.65,1.01
		C547.56,343.11,548.6,340.53,548.6,335.38z"/>
	<path class="st1" d="M566.5,341.32c0,1.25-0.85,2.22-2.54,2.91c-1.32,0.55-2.7,0.82-4.15,0.82c-3.84,0-5.75-2.18-5.75-6.54
		c0-1.79,0.44-3.79,1.31-5.98c1.07-2.69,2.37-4.04,3.89-4.04c1.37,0,2.85,0.61,4.43,1.83c1.58,1.22,2.37,2.49,2.37,3.81
		c0,1.64-0.74,2.95-2.2,3.92c-1.3,0.87-2.84,1.31-4.63,1.31c-0.35,0-0.91-0.21-1.68-0.63c0.1,2.37,0.8,3.55,2.09,3.55
		c1.1,0,2.17-0.31,3.23-0.93c1.06-0.62,1.74-0.93,2.04-0.93C565.97,340.42,566.5,340.72,566.5,341.32z M562.43,334.25
		c0-0.62-0.18-1.21-0.54-1.78c-0.36-0.56-0.84-0.84-1.44-0.84c-0.82,0-1.46,0.36-1.91,1.08c-0.37,0.62-0.56,1.36-0.56,2.2
		c0,0.47,0.16,0.86,0.49,1.16c0.32,0.3,0.73,0.45,1.23,0.45C561.52,336.53,562.43,335.77,562.43,334.25z"/>
	<path class="st1" d="M578.23,331.75c0,0.17-0.03,0.45-0.08,0.82c-0.52,0.75-1.07,1.12-1.64,1.12c-0.47,0-0.9-0.27-1.27-0.82
		c-0.05-1.12-0.45-1.68-1.2-1.68c-0.45,0-1,1.18-1.64,3.55c-0.3,1.05-0.45,2.5-0.45,4.37c0,1.77,0.08,2.84,0.24,3.21
		c0.19,0.47,0.28,0.8,0.28,0.97c0,0.42-0.19,0.77-0.57,1.03s-0.81,0.39-1.28,0.39c-1.33,0-2-0.62-2-1.87c0-0.12,0.03-0.3,0.09-0.52
		c0.06-0.22,0.09-0.39,0.09-0.49c0-1.27-0.06-3.16-0.19-5.66c-0.12-2.5-0.19-4.38-0.19-5.62c0-1.12,0.67-1.68,2.02-1.68
		c0.8,0,1.34,0.24,1.64,0.71c0.7-0.77,1.48-1.16,2.35-1.16c0.6,0,1.17,0.16,1.72,0.49c0.37,0.2,0.81,0.63,1.31,1.29
		C577.99,330.86,578.23,331.38,578.23,331.75z"/>
	<path class="st1" d="M593.07,322.3c0,0.42-0.21,0.77-0.62,1.05c-0.41,0.27-0.83,0.41-1.25,0.41c-0.32,0-0.67-0.15-1.05-0.45
		c-0.03-0.5-0.12-0.82-0.3-0.95c-0.17-0.14-0.54-0.21-1.08-0.21c-1.07,0-1.84,1.33-2.32,4c-0.25,1.53-0.39,3.3-0.41,5.3
		c0.12,0,0.27,0,0.45,0c0.22,0,0.39,0,0.49,0c1.05,0,1.79,0.41,2.24,1.23l-0.34,1.42c-0.47,0.25-1.3,0.37-2.47,0.37
		c-0.2,0-0.36,0.01-0.49,0.04c-0.07,0.82-0.11,1.72-0.11,2.69v3.4c0,1.32,0.2,2.68,0.6,4.07c-0.97,0.55-1.68,0.82-2.13,0.82
		c-0.6,0-1.07-0.46-1.42-1.38c-0.3-0.72-0.45-1.44-0.45-2.17c0-0.45,0.05-2.84,0.15-7.17c-0.82,0.08-1.21,0.11-1.16,0.11
		c-0.42,0-0.8-0.14-1.12-0.41c-0.32-0.27-0.49-0.63-0.49-1.08c0-0.77,0.32-1.27,0.97-1.49c0.35-0.1,1-0.15,1.94-0.15
		c0.07-0.25,0.11-1.01,0.11-2.27c0-2.56,0.41-4.78,1.23-6.67c1.12-2.48,2.8-3.73,5.04-3.73c1.12,0,2.04,0.25,2.77,0.75
		C592.67,320.43,593.07,321.25,593.07,322.3z"/>
	<path class="st1" d="M596.54,330.22c0,0.45-0.1,1.08-0.3,1.91c-0.2,0.82-0.3,1.46-0.3,1.91v7.7c0,0.47,0.15,1.22,0.45,2.24
		c-0.38,0.57-0.79,0.86-1.25,0.86c-1.58,0-2.45-0.79-2.6-2.35c-0.25-2.91-0.37-5.11-0.37-6.58c0-2.47,0.1-4.53,0.3-6.2
		c0-0.12,0-0.25,0-0.37c0-0.45,0.35-0.67,1.04-0.67c0.62,0,1.23,0.12,1.85,0.37C596.15,329.3,596.54,329.7,596.54,330.22z
		 M596.88,324.99c0,0.55-0.19,1-0.56,1.34c-0.37,0.35-0.83,0.52-1.38,0.52c-0.65,0-1.25-0.22-1.81-0.67s-0.84-1-0.84-1.64
		c0-0.55,0.19-1,0.58-1.35c0.39-0.35,0.87-0.52,1.44-0.52c0.67,0,1.27,0.22,1.79,0.65C596.62,323.76,596.88,324.32,596.88,324.99z"
		/>
	<path class="st1" d="M602.71,343.6c0,0.45-0.18,0.83-0.54,1.14s-0.78,0.47-1.25,0.47c-1.57,0-2.35-2.05-2.35-6.17
		c0-1.87,0.02-4.67,0.06-8.41c0.04-3.74,0.06-6.54,0.06-8.41c0-0.3-0.04-0.73-0.11-1.31c-0.07-0.57-0.11-1-0.11-1.27
		c0.82-0.55,1.47-0.82,1.94-0.82c0.55,0,1.07,0.18,1.57,0.54c0.5,0.36,0.75,0.82,0.75,1.36c0,0.27-0.06,0.6-0.19,0.97
		c-0.17,0.6-0.27,0.92-0.3,0.97c-0.32,1.54-0.49,3.74-0.49,6.58c0,4.51,0,6.83,0,6.95c0.08,3.14,0.34,5.33,0.79,6.58
		C602.64,343.12,602.71,343.4,602.71,343.6z"/>
</g>
<g>
	<path class="st2" d="M138.43,378.76c-0.43,0-0.76-0.12-0.99-0.36s-0.34-0.57-0.34-1v-9.57c0-0.91,0.44-1.36,1.33-1.36
		c0.87,0,1.31,0.45,1.31,1.36v3.6h5.58v-3.6c0-0.91,0.44-1.36,1.31-1.36c0.88,0,1.33,0.45,1.33,1.36v9.57c0,0.43-0.11,0.76-0.34,1
		s-0.56,0.36-0.99,0.36c-0.42,0-0.74-0.12-0.97-0.36s-0.34-0.57-0.34-1v-3.77h-5.58v3.77C139.74,378.3,139.3,378.76,138.43,378.76z"
		/>
	<path class="st2" d="M154.48,378.79c-0.99,0-1.83-0.18-2.54-0.54c-0.71-0.36-1.25-0.86-1.63-1.51c-0.38-0.65-0.57-1.42-0.57-2.3
		c0-0.86,0.18-1.62,0.55-2.27c0.37-0.65,0.87-1.16,1.51-1.53c0.64-0.37,1.38-0.55,2.22-0.55c1.21,0,2.18,0.38,2.89,1.15
		c0.71,0.76,1.07,1.8,1.07,3.1c0,0.43-0.27,0.65-0.8,0.65h-5c0.09,0.66,0.33,1.14,0.72,1.44c0.39,0.3,0.93,0.45,1.62,0.45
		c0.27,0,0.58-0.03,0.93-0.09s0.68-0.17,0.99-0.33c0.33-0.16,0.61-0.19,0.83-0.09c0.23,0.1,0.38,0.26,0.47,0.49
		c0.09,0.23,0.09,0.46,0,0.71c-0.08,0.24-0.27,0.45-0.57,0.6c-0.4,0.22-0.84,0.38-1.32,0.48
		C155.38,378.74,154.92,378.79,154.48,378.79z M154.12,371.79c-0.54,0-0.98,0.17-1.32,0.49c-0.33,0.33-0.54,0.79-0.62,1.38h3.67
		C155.79,372.41,155.21,371.79,154.12,371.79z"/>
	<path class="st2" d="M160.8,378.76c-0.86,0-1.29-0.44-1.29-1.31v-6.04c0-0.86,0.42-1.29,1.26-1.29s1.26,0.43,1.26,1.29v0.05
		c0.25-0.43,0.59-0.77,1.03-1.01c0.44-0.24,0.94-0.37,1.52-0.37c0.59,0,1.09,0.13,1.5,0.39s0.73,0.66,0.94,1.19
		c0.26-0.5,0.64-0.89,1.13-1.17c0.49-0.28,1.04-0.42,1.64-0.42c0.95,0,1.66,0.29,2.12,0.86c0.46,0.57,0.7,1.45,0.7,2.64v3.86
		c0,0.42-0.11,0.74-0.33,0.97c-0.22,0.23-0.54,0.34-0.94,0.34c-0.86,0-1.29-0.44-1.29-1.31v-3.77c0-0.56-0.09-0.96-0.26-1.22
		s-0.47-0.38-0.89-0.38c-0.49,0-0.87,0.17-1.14,0.51c-0.27,0.34-0.41,0.82-0.41,1.44v3.42c0,0.87-0.42,1.31-1.27,1.31
		c-0.41,0-0.73-0.11-0.95-0.34c-0.23-0.23-0.34-0.55-0.34-0.97v-3.77c0-0.56-0.09-0.96-0.27-1.22c-0.18-0.25-0.48-0.38-0.88-0.38
		c-0.49,0-0.87,0.17-1.14,0.51c-0.27,0.34-0.41,0.82-0.41,1.44v3.42C162.08,378.32,161.65,378.76,160.8,378.76z"/>
	<path class="st2" d="M178.6,378.79c-0.9,0-1.67-0.18-2.34-0.54c-0.66-0.36-1.18-0.86-1.54-1.51c-0.36-0.65-0.54-1.42-0.54-2.32
		c0-0.88,0.18-1.65,0.54-2.3c0.36-0.65,0.88-1.15,1.54-1.5c0.66-0.35,1.44-0.53,2.34-0.53c0.9,0,1.67,0.18,2.34,0.53
		c0.66,0.35,1.18,0.85,1.55,1.5s0.55,1.42,0.55,2.3c0,0.9-0.18,1.67-0.55,2.32s-0.88,1.16-1.55,1.51
		C180.27,378.61,179.5,378.79,178.6,378.79z M178.6,376.87c0.54,0,0.99-0.2,1.33-0.59s0.52-1.01,0.52-1.85
		c0-0.83-0.17-1.44-0.52-1.83c-0.35-0.39-0.79-0.59-1.33-0.59s-0.99,0.2-1.33,0.59c-0.34,0.39-0.51,1-0.51,1.83
		c0,0.84,0.17,1.46,0.51,1.85C177.61,376.67,178.06,376.87,178.6,376.87z"/>
	<path class="st2" d="M187.8,378.79c-0.5,0-1.01-0.04-1.54-0.14s-1.01-0.24-1.44-0.46c-0.28-0.15-0.47-0.33-0.55-0.56
		s-0.09-0.45-0.01-0.66c0.08-0.21,0.22-0.38,0.42-0.48c0.2-0.11,0.44-0.1,0.71,0.01c0.46,0.19,0.89,0.33,1.28,0.41
		c0.39,0.08,0.77,0.12,1.13,0.12c0.48,0,0.83-0.08,1.05-0.23s0.34-0.35,0.34-0.6c0-0.4-0.29-0.65-0.87-0.75l-1.79-0.32
		c-0.71-0.12-1.26-0.38-1.63-0.76c-0.37-0.38-0.56-0.89-0.56-1.51c0-0.57,0.16-1.05,0.48-1.46c0.32-0.41,0.75-0.73,1.31-0.95
		c0.56-0.23,1.2-0.34,1.92-0.34c1,0,1.88,0.19,2.65,0.58c0.26,0.12,0.42,0.3,0.48,0.53c0.06,0.23,0.05,0.45-0.04,0.66
		c-0.09,0.22-0.24,0.38-0.44,0.48c-0.2,0.11-0.45,0.1-0.73-0.03c-0.37-0.17-0.71-0.29-1.02-0.37c-0.31-0.07-0.6-0.11-0.87-0.11
		c-0.51,0-0.88,0.08-1.1,0.25s-0.34,0.37-0.34,0.62c0,0.4,0.27,0.65,0.8,0.75l1.79,0.32c0.74,0.12,1.3,0.37,1.68,0.74
		c0.39,0.37,0.58,0.87,0.58,1.5c0,0.87-0.34,1.55-1.02,2.04C189.8,378.55,188.91,378.79,187.8,378.79z"/>
	<path class="st2" d="M202.04,378.79c-0.99,0-1.83-0.18-2.54-0.54c-0.71-0.36-1.25-0.86-1.63-1.51c-0.38-0.65-0.57-1.42-0.57-2.3
		c0-0.86,0.18-1.62,0.55-2.27c0.37-0.65,0.87-1.16,1.51-1.53c0.64-0.37,1.38-0.55,2.22-0.55c1.21,0,2.18,0.38,2.89,1.15
		c0.71,0.76,1.07,1.8,1.07,3.1c0,0.43-0.27,0.65-0.8,0.65h-5c0.09,0.66,0.33,1.14,0.72,1.44c0.39,0.3,0.93,0.45,1.62,0.45
		c0.27,0,0.58-0.03,0.93-0.09s0.68-0.17,0.99-0.33c0.33-0.16,0.61-0.19,0.83-0.09c0.23,0.1,0.38,0.26,0.47,0.49
		c0.09,0.23,0.09,0.46,0,0.71c-0.08,0.24-0.27,0.45-0.57,0.6c-0.4,0.22-0.84,0.38-1.32,0.48
		C202.95,378.74,202.49,378.79,202.04,378.79z M201.69,371.79c-0.54,0-0.98,0.17-1.32,0.49c-0.33,0.33-0.54,0.79-0.62,1.38h3.67
		C203.35,372.41,202.77,371.79,201.69,371.79z"/>
	<path class="st2" d="M208.33,378.76c-0.86,0-1.29-0.44-1.29-1.31v-6.04c0-0.86,0.42-1.29,1.26-1.29c0.84,0,1.26,0.43,1.26,1.29
		v0.07c0.28-0.45,0.66-0.8,1.14-1.04s1.01-0.36,1.6-0.36c0.99,0,1.72,0.29,2.21,0.86c0.49,0.57,0.73,1.45,0.73,2.64v3.86
		c0,0.87-0.43,1.31-1.29,1.31c-0.41,0-0.72-0.11-0.94-0.34c-0.22-0.23-0.33-0.55-0.33-0.97v-3.74c0-0.58-0.11-0.99-0.32-1.25
		s-0.53-0.38-0.95-0.38c-0.54,0-0.98,0.17-1.3,0.51c-0.32,0.34-0.48,0.79-0.48,1.36v3.5C209.61,378.32,209.18,378.76,208.33,378.76z
		"/>
	<path class="st2" d="M220.69,378.76c-0.67,0-1.16-0.35-1.46-1.05l-2.57-5.92c-0.19-0.44-0.2-0.83-0.02-1.16
		c0.18-0.33,0.56-0.5,1.12-0.5c0.31,0,0.56,0.07,0.75,0.21c0.19,0.14,0.36,0.41,0.51,0.81l1.75,4.42l1.8-4.44
		c0.16-0.38,0.33-0.65,0.53-0.79c0.19-0.14,0.46-0.21,0.8-0.21c0.43,0,0.74,0.17,0.92,0.5s0.17,0.72-0.03,1.15l-2.62,5.93
		C221.88,378.41,221.38,378.76,220.69,378.76z"/>
	<path class="st2" d="M227.53,368.73c-0.48,0-0.84-0.11-1.1-0.33c-0.26-0.22-0.38-0.54-0.38-0.94c0-0.42,0.13-0.74,0.38-0.96
		c0.25-0.22,0.62-0.33,1.1-0.33c0.97,0,1.46,0.43,1.46,1.29C228.99,368.3,228.5,368.73,227.53,368.73z M227.53,378.74
		c-0.42,0-0.74-0.12-0.96-0.37c-0.22-0.24-0.33-0.59-0.33-1.03v-5.81c0-0.94,0.43-1.41,1.29-1.41c0.41,0,0.72,0.12,0.94,0.37
		c0.22,0.24,0.33,0.59,0.33,1.04v5.81c0,0.44-0.11,0.79-0.32,1.03S227.95,378.74,227.53,378.74z"/>
	<path class="st2" d="M233.61,378.79c-0.62,0-1.17-0.12-1.65-0.36c-0.48-0.24-0.85-0.56-1.13-0.97c-0.28-0.41-0.42-0.87-0.42-1.38
		c0-0.6,0.16-1.08,0.48-1.45s0.83-0.62,1.55-0.77c0.71-0.15,1.66-0.23,2.84-0.23h0.61v-0.29c0-0.5-0.11-0.85-0.34-1.06
		c-0.23-0.21-0.61-0.31-1.16-0.31c-0.31,0-0.64,0.04-1,0.11c-0.36,0.07-0.75,0.2-1.17,0.37c-0.32,0.14-0.58,0.14-0.8,0.03
		c-0.22-0.12-0.36-0.3-0.43-0.54c-0.07-0.24-0.05-0.49,0.06-0.74c0.11-0.25,0.32-0.43,0.64-0.54c0.53-0.2,1.03-0.35,1.5-0.43
		c0.47-0.08,0.9-0.13,1.3-0.13c1.29,0,2.26,0.29,2.89,0.88c0.63,0.58,0.95,1.49,0.95,2.71v3.77c0,0.87-0.4,1.31-1.19,1.31
		c-0.81,0-1.21-0.44-1.21-1.31v-0.1c-0.17,0.44-0.46,0.79-0.86,1.05S234.19,378.79,233.61,378.79z M234.19,377.07
		c0.48,0,0.88-0.16,1.21-0.49c0.33-0.33,0.49-0.75,0.49-1.27v-0.34h-0.59c-0.87,0-1.49,0.08-1.85,0.23
		c-0.36,0.15-0.54,0.42-0.54,0.79c0,0.32,0.11,0.58,0.33,0.78C233.45,376.97,233.77,377.07,234.19,377.07z"/>
	<path class="st2" d="M243.51,378.79c-0.73,0-1.36-0.18-1.91-0.54c-0.55-0.36-0.98-0.86-1.28-1.51c-0.31-0.65-0.46-1.42-0.46-2.32
		s0.15-1.67,0.46-2.31c0.31-0.65,0.73-1.14,1.28-1.5c0.55-0.35,1.19-0.53,1.91-0.53c0.56,0,1.07,0.12,1.53,0.36
		c0.46,0.24,0.82,0.56,1.05,0.95v-3.62c0-0.87,0.43-1.31,1.27-1.31c0.86,0,1.29,0.44,1.29,1.31v9.67c0,0.87-0.42,1.31-1.27,1.31
		s-1.27-0.44-1.27-1.31v-0.05c-0.23,0.43-0.58,0.77-1.05,1.02C244.59,378.67,244.07,378.79,243.51,378.79z M244.27,376.87
		c0.54,0,0.99-0.2,1.33-0.59s0.52-1.01,0.52-1.85c0-0.83-0.17-1.44-0.52-1.83c-0.35-0.39-0.79-0.59-1.33-0.59s-0.99,0.2-1.33,0.59
		c-0.34,0.39-0.51,1-0.51,1.83c0,0.84,0.17,1.46,0.51,1.85C243.28,376.67,243.73,376.87,244.27,376.87z"/>
	<path class="st2" d="M254.64,378.79c-0.9,0-1.67-0.18-2.34-0.54c-0.66-0.36-1.18-0.86-1.54-1.51c-0.36-0.65-0.54-1.42-0.54-2.32
		c0-0.88,0.18-1.65,0.54-2.3c0.36-0.65,0.88-1.15,1.54-1.5c0.66-0.35,1.44-0.53,2.34-0.53c0.9,0,1.67,0.18,2.34,0.53
		c0.66,0.35,1.18,0.85,1.55,1.5s0.55,1.42,0.55,2.3c0,0.9-0.18,1.67-0.55,2.32s-0.88,1.16-1.55,1.51
		C256.31,378.61,255.54,378.79,254.64,378.79z M254.64,376.87c0.54,0,0.99-0.2,1.33-0.59s0.52-1.01,0.52-1.85
		c0-0.83-0.17-1.44-0.52-1.83c-0.35-0.39-0.79-0.59-1.33-0.59s-0.99,0.2-1.33,0.59c-0.34,0.39-0.51,1-0.51,1.83
		c0,0.84,0.17,1.46,0.51,1.85C253.65,376.67,254.1,376.87,254.64,376.87z"/>
	<path class="st2" d="M268.46,378.79c-1.07,0-1.85-0.29-2.35-0.88c-0.5-0.59-0.76-1.47-0.76-2.65v-3.84c0-0.86,0.42-1.29,1.27-1.29
		c0.86,0,1.29,0.43,1.29,1.29v3.91c0,0.99,0.42,1.48,1.27,1.48c0.49,0,0.89-0.17,1.2-0.52c0.31-0.35,0.47-0.8,0.47-1.37v-3.5
		c0-0.86,0.42-1.29,1.27-1.29c0.86,0,1.29,0.43,1.29,1.29v6.04c0,0.87-0.41,1.31-1.24,1.31c-0.41,0-0.72-0.11-0.94-0.34
		c-0.22-0.23-0.32-0.54-0.32-0.95C270.37,378.35,269.55,378.79,268.46,378.79z"/>
	<path class="st2" d="M276.71,378.76c-0.86,0-1.29-0.44-1.29-1.31v-6.04c0-0.86,0.42-1.29,1.26-1.29c0.84,0,1.26,0.43,1.26,1.29
		v0.07c0.28-0.45,0.66-0.8,1.14-1.04s1.01-0.36,1.6-0.36c0.99,0,1.72,0.29,2.21,0.86c0.49,0.57,0.73,1.45,0.73,2.64v3.86
		c0,0.87-0.43,1.31-1.29,1.31c-0.41,0-0.72-0.11-0.94-0.34c-0.22-0.23-0.33-0.55-0.33-0.97v-3.74c0-0.58-0.11-0.99-0.32-1.25
		s-0.53-0.38-0.95-0.38c-0.54,0-0.98,0.17-1.3,0.51c-0.32,0.34-0.48,0.79-0.48,1.36v3.5C277.98,378.32,277.56,378.76,276.71,378.76z
		"/>
	<path class="st2" d="M294.33,378.79c-0.91,0-1.7-0.18-2.37-0.54c-0.67-0.36-1.19-0.86-1.56-1.52c-0.36-0.66-0.54-1.43-0.54-2.33
		c0-0.89,0.18-1.67,0.54-2.31c0.36-0.65,0.88-1.14,1.56-1.49c0.67-0.35,1.46-0.52,2.37-0.52c0.35,0,0.73,0.04,1.13,0.13
		c0.4,0.08,0.79,0.23,1.16,0.43c0.28,0.14,0.46,0.33,0.53,0.57c0.07,0.24,0.05,0.48-0.04,0.72c-0.1,0.24-0.25,0.41-0.46,0.52
		c-0.21,0.11-0.46,0.09-0.74-0.06c-0.45-0.24-0.9-0.36-1.33-0.36c-0.67,0-1.19,0.21-1.56,0.62c-0.37,0.41-0.55,1-0.55,1.76
		c0,0.75,0.18,1.33,0.55,1.76c0.37,0.43,0.89,0.64,1.56,0.64c0.2,0,0.42-0.03,0.65-0.08c0.23-0.05,0.45-0.14,0.68-0.26
		c0.28-0.15,0.53-0.16,0.74-0.05c0.21,0.11,0.35,0.29,0.43,0.52c0.08,0.23,0.08,0.47,0.02,0.72c-0.07,0.25-0.24,0.44-0.51,0.58
		c-0.39,0.19-0.77,0.33-1.16,0.42S294.69,378.79,294.33,378.79z"/>
	<path class="st2" d="M302.41,378.79c-0.9,0-1.67-0.18-2.34-0.54c-0.66-0.36-1.18-0.86-1.54-1.51c-0.36-0.65-0.54-1.42-0.54-2.32
		c0-0.88,0.18-1.65,0.54-2.3c0.36-0.65,0.88-1.15,1.54-1.5c0.66-0.35,1.44-0.53,2.34-0.53c0.9,0,1.67,0.18,2.34,0.53
		c0.66,0.35,1.18,0.85,1.55,1.5s0.55,1.42,0.55,2.3c0,0.9-0.18,1.67-0.55,2.32s-0.88,1.16-1.55,1.51
		C304.08,378.61,303.3,378.79,302.41,378.79z M302.41,376.87c0.54,0,0.99-0.2,1.33-0.59s0.52-1.01,0.52-1.85
		c0-0.83-0.17-1.44-0.52-1.83c-0.35-0.39-0.79-0.59-1.33-0.59s-0.99,0.2-1.33,0.59c-0.34,0.39-0.51,1-0.51,1.83
		c0,0.84,0.17,1.46,0.51,1.85C301.42,376.67,301.87,376.87,302.41,376.87z"/>
	<path class="st2" d="M309.74,378.76c-0.88,0-1.33-0.44-1.33-1.31v-6.04c0-0.86,0.42-1.29,1.26-1.29c0.84,0,1.26,0.43,1.26,1.29
		v0.31c0.41-1.01,1.25-1.55,2.53-1.63c0.28-0.02,0.5,0.05,0.65,0.21c0.15,0.17,0.24,0.43,0.25,0.81c0.02,0.35-0.05,0.63-0.21,0.83
		c-0.16,0.2-0.44,0.33-0.82,0.37l-0.39,0.03c-1.27,0.12-1.9,0.77-1.9,1.94v3.16C311.03,378.32,310.6,378.76,309.74,378.76z"/>
	<path class="st2" d="M316.74,378.76c-0.88,0-1.33-0.44-1.33-1.31v-6.04c0-0.86,0.42-1.29,1.26-1.29c0.84,0,1.26,0.43,1.26,1.29
		v0.31c0.41-1.01,1.25-1.55,2.53-1.63c0.28-0.02,0.5,0.05,0.65,0.21c0.15,0.17,0.24,0.43,0.25,0.81c0.02,0.35-0.05,0.63-0.21,0.83
		c-0.16,0.2-0.44,0.33-0.82,0.37l-0.39,0.03c-1.27,0.12-1.9,0.77-1.9,1.94v3.16C318.03,378.32,317.6,378.76,316.74,378.76z"/>
	<path class="st2" d="M326.75,378.79c-0.99,0-1.83-0.18-2.54-0.54c-0.71-0.36-1.25-0.86-1.63-1.51c-0.38-0.65-0.57-1.42-0.57-2.3
		c0-0.86,0.18-1.62,0.55-2.27c0.37-0.65,0.87-1.16,1.51-1.53c0.64-0.37,1.38-0.55,2.22-0.55c1.21,0,2.18,0.38,2.89,1.15
		c0.71,0.76,1.07,1.8,1.07,3.1c0,0.43-0.27,0.65-0.8,0.65h-5c0.09,0.66,0.33,1.14,0.72,1.44c0.39,0.3,0.93,0.45,1.62,0.45
		c0.27,0,0.58-0.03,0.93-0.09s0.68-0.17,0.99-0.33c0.33-0.16,0.61-0.19,0.83-0.09c0.23,0.1,0.38,0.26,0.47,0.49
		c0.09,0.23,0.09,0.46,0,0.71c-0.08,0.24-0.27,0.45-0.57,0.6c-0.4,0.22-0.84,0.38-1.32,0.48
		C327.66,378.74,327.19,378.79,326.75,378.79z M326.4,371.79c-0.54,0-0.98,0.17-1.32,0.49c-0.33,0.33-0.54,0.79-0.62,1.38h3.67
		C328.06,372.41,327.48,371.79,326.4,371.79z"/>
	<path class="st2" d="M335.76,378.79c-0.9,0-1.67-0.18-2.34-0.54c-0.66-0.36-1.18-0.86-1.54-1.51c-0.36-0.65-0.54-1.42-0.54-2.32
		c0-0.88,0.18-1.65,0.54-2.3c0.36-0.65,0.88-1.15,1.54-1.5c0.66-0.35,1.44-0.53,2.34-0.53c0.9,0,1.67,0.18,2.34,0.53
		c0.66,0.35,1.18,0.85,1.55,1.5s0.55,1.42,0.55,2.3c0,0.9-0.18,1.67-0.55,2.32s-0.88,1.16-1.55,1.51
		C337.44,378.61,336.66,378.79,335.76,378.79z M335.76,376.87c0.54,0,0.99-0.2,1.33-0.59s0.52-1.01,0.52-1.85
		c0-0.83-0.17-1.44-0.52-1.83c-0.35-0.39-0.79-0.59-1.33-0.59s-0.99,0.2-1.33,0.59c-0.34,0.39-0.51,1-0.51,1.83
		c0,0.84,0.17,1.46,0.51,1.85C334.78,376.67,335.22,376.87,335.76,376.87z"/>
	<path class="st2" d="M350.57,378.79c-0.91,0-1.7-0.18-2.37-0.54c-0.67-0.36-1.19-0.86-1.56-1.52c-0.36-0.66-0.54-1.43-0.54-2.33
		c0-0.89,0.18-1.67,0.54-2.31c0.36-0.65,0.88-1.14,1.56-1.49c0.67-0.35,1.46-0.52,2.37-0.52c0.35,0,0.73,0.04,1.13,0.13
		c0.4,0.08,0.79,0.23,1.17,0.43c0.28,0.14,0.46,0.33,0.53,0.57c0.07,0.24,0.05,0.48-0.04,0.72c-0.1,0.24-0.25,0.41-0.46,0.52
		c-0.21,0.11-0.46,0.09-0.74-0.06c-0.45-0.24-0.9-0.36-1.33-0.36c-0.67,0-1.19,0.21-1.56,0.62c-0.37,0.41-0.55,1-0.55,1.76
		c0,0.75,0.18,1.33,0.55,1.76c0.37,0.43,0.89,0.64,1.56,0.64c0.2,0,0.42-0.03,0.65-0.08s0.45-0.14,0.68-0.26
		c0.28-0.15,0.53-0.16,0.74-0.05c0.21,0.11,0.35,0.29,0.43,0.52c0.08,0.23,0.08,0.47,0.02,0.72c-0.07,0.25-0.24,0.44-0.51,0.58
		c-0.38,0.19-0.77,0.33-1.16,0.42C351.29,378.75,350.92,378.79,350.57,378.79z"/>
	<path class="st2" d="M358.64,378.79c-0.9,0-1.67-0.18-2.34-0.54c-0.66-0.36-1.18-0.86-1.54-1.51s-0.54-1.42-0.54-2.32
		c0-0.88,0.18-1.65,0.54-2.3s0.88-1.15,1.54-1.5c0.66-0.35,1.44-0.53,2.34-0.53c0.89,0,1.67,0.18,2.34,0.53
		c0.66,0.35,1.18,0.85,1.55,1.5c0.37,0.65,0.55,1.42,0.55,2.3c0,0.9-0.19,1.67-0.55,2.32c-0.37,0.65-0.88,1.16-1.55,1.51
		C360.32,378.61,359.54,378.79,358.64,378.79z M358.64,376.87c0.54,0,0.99-0.2,1.33-0.59s0.52-1.01,0.52-1.85
		c0-0.83-0.17-1.44-0.52-1.83c-0.35-0.39-0.79-0.59-1.33-0.59s-0.99,0.2-1.33,0.59c-0.34,0.39-0.51,1-0.51,1.83
		c0,0.84,0.17,1.46,0.51,1.85S358.1,376.87,358.64,376.87z"/>
	<path class="st2" d="M365.94,378.76c-0.86,0-1.29-0.44-1.29-1.31v-6.04c0-0.86,0.42-1.29,1.26-1.29s1.26,0.43,1.26,1.29v0.07
		c0.28-0.45,0.66-0.8,1.14-1.04c0.48-0.24,1.01-0.36,1.6-0.36c0.99,0,1.72,0.29,2.21,0.86s0.73,1.45,0.73,2.64v3.86
		c0,0.87-0.43,1.31-1.29,1.31c-0.41,0-0.72-0.11-0.94-0.34c-0.22-0.23-0.33-0.55-0.33-0.97v-3.74c0-0.58-0.11-0.99-0.32-1.25
		s-0.53-0.38-0.95-0.38c-0.54,0-0.98,0.17-1.3,0.51c-0.32,0.34-0.48,0.79-0.48,1.36v3.5C367.21,378.32,366.79,378.76,365.94,378.76z
		"/>
	<path class="st2" d="M383.84,378.79c-0.99,0-1.83-0.18-2.54-0.54c-0.71-0.36-1.25-0.86-1.63-1.51c-0.38-0.65-0.57-1.42-0.57-2.3
		c0-0.86,0.18-1.62,0.55-2.27c0.37-0.65,0.87-1.16,1.51-1.53c0.64-0.37,1.38-0.55,2.22-0.55c1.21,0,2.18,0.38,2.89,1.15
		c0.71,0.76,1.07,1.8,1.07,3.1c0,0.43-0.27,0.65-0.8,0.65h-5c0.09,0.66,0.33,1.14,0.72,1.44c0.39,0.3,0.93,0.45,1.62,0.45
		c0.27,0,0.58-0.03,0.93-0.09s0.68-0.17,1-0.33c0.33-0.16,0.61-0.19,0.83-0.09c0.23,0.1,0.38,0.26,0.47,0.49s0.08,0.46,0,0.71
		c-0.08,0.24-0.27,0.45-0.57,0.6c-0.4,0.22-0.84,0.38-1.32,0.48S384.28,378.79,383.84,378.79z M383.48,371.79
		c-0.54,0-0.98,0.17-1.32,0.49c-0.33,0.33-0.54,0.79-0.62,1.38h3.67C385.15,372.41,384.57,371.79,383.48,371.79z"/>
	<path class="st2" d="M391.84,378.79c-2.01,0-3.01-1.12-3.01-3.35v-7.67c0-0.87,0.43-1.31,1.29-1.31c0.85,0,1.27,0.44,1.27,1.31
		v7.57c0,0.46,0.1,0.81,0.3,1.03s0.46,0.33,0.79,0.33c0.09,0,0.18,0,0.26-0.02s0.17-0.02,0.25-0.02c0.18-0.01,0.31,0.05,0.38,0.17
		c0.07,0.12,0.11,0.38,0.11,0.76c0,0.66-0.28,1.03-0.83,1.12c-0.11,0.01-0.24,0.03-0.39,0.04
		C392.12,378.78,391.98,378.79,391.84,378.79z"/>
	<path class="st2" d="M402.49,378.79c-0.73,0-1.36-0.18-1.91-0.54c-0.55-0.36-0.98-0.86-1.28-1.51s-0.46-1.42-0.46-2.32
		s0.15-1.67,0.46-2.31c0.31-0.65,0.73-1.14,1.28-1.5c0.55-0.35,1.19-0.53,1.91-0.53c0.55,0,1.06,0.12,1.53,0.36s0.82,0.56,1.05,0.95
		v-3.62c0-0.87,0.42-1.31,1.27-1.31c0.86,0,1.29,0.44,1.29,1.31v9.67c0,0.87-0.42,1.31-1.27,1.31c-0.85,0-1.28-0.44-1.28-1.31v-0.05
		c-0.23,0.43-0.58,0.77-1.05,1.02C403.57,378.67,403.05,378.79,402.49,378.79z M403.25,376.87c0.54,0,0.99-0.2,1.33-0.59
		s0.52-1.01,0.52-1.85c0-0.83-0.17-1.44-0.52-1.83c-0.35-0.39-0.79-0.59-1.33-0.59s-0.99,0.2-1.33,0.59c-0.34,0.39-0.51,1-0.51,1.83
		c0,0.84,0.17,1.46,0.51,1.85S402.71,376.87,403.25,376.87z"/>
	<path class="st2" d="M413.94,378.79c-0.99,0-1.83-0.18-2.54-0.54c-0.71-0.36-1.25-0.86-1.63-1.51s-0.57-1.42-0.57-2.3
		c0-0.86,0.18-1.62,0.55-2.27c0.37-0.65,0.87-1.16,1.51-1.53c0.64-0.37,1.38-0.55,2.22-0.55c1.21,0,2.18,0.38,2.89,1.15
		c0.71,0.76,1.07,1.8,1.07,3.1c0,0.43-0.27,0.65-0.8,0.65h-5c0.09,0.66,0.33,1.14,0.72,1.44c0.39,0.3,0.93,0.45,1.62,0.45
		c0.27,0,0.58-0.03,0.93-0.09s0.68-0.17,0.99-0.33c0.33-0.16,0.61-0.19,0.83-0.09c0.23,0.1,0.38,0.26,0.47,0.49s0.08,0.46,0,0.71
		c-0.08,0.24-0.28,0.45-0.57,0.6c-0.4,0.22-0.84,0.38-1.32,0.48C414.85,378.74,414.39,378.79,413.94,378.79z M413.59,371.79
		c-0.54,0-0.98,0.17-1.32,0.49c-0.33,0.33-0.54,0.79-0.62,1.38h3.67C415.25,372.41,414.67,371.79,413.59,371.79z"/>
	<path class="st2" d="M423.04,378.79c-2.35,0-3.52-1.14-3.52-3.42v-3.2h-0.71c-0.67,0-1-0.32-1-0.95c0-0.65,0.33-0.97,1-0.97h0.71
		v-1.29c0-0.87,0.43-1.31,1.29-1.31c0.85,0,1.27,0.44,1.27,1.31v1.29h1.62c0.66,0,0.99,0.32,0.99,0.97c0,0.63-0.33,0.95-0.99,0.95
		h-1.62v3.09c0,0.48,0.11,0.83,0.33,1.07c0.22,0.24,0.57,0.36,1.06,0.36c0.17,0,0.33-0.02,0.48-0.05s0.28-0.06,0.41-0.07
		c0.16-0.01,0.29,0.04,0.39,0.15c0.1,0.11,0.15,0.35,0.15,0.7c0,0.28-0.05,0.52-0.14,0.72c-0.09,0.2-0.25,0.34-0.48,0.43
		c-0.15,0.06-0.35,0.1-0.6,0.14C423.44,378.77,423.22,378.79,423.04,378.79z"/>
	<path class="st2" d="M428.63,378.79c-0.62,0-1.17-0.12-1.65-0.36c-0.48-0.24-0.85-0.56-1.13-0.97c-0.28-0.41-0.42-0.87-0.42-1.38
		c0-0.6,0.16-1.08,0.48-1.45s0.83-0.62,1.55-0.77s1.66-0.23,2.84-0.23h0.61v-0.29c0-0.5-0.11-0.85-0.34-1.06s-0.61-0.31-1.16-0.31
		c-0.31,0-0.64,0.04-1,0.11c-0.36,0.07-0.75,0.2-1.17,0.37c-0.32,0.14-0.58,0.14-0.8,0.03c-0.22-0.12-0.36-0.3-0.42-0.54
		c-0.07-0.24-0.05-0.49,0.06-0.74c0.11-0.25,0.32-0.43,0.64-0.54c0.53-0.2,1.03-0.35,1.5-0.43c0.47-0.08,0.9-0.13,1.3-0.13
		c1.29,0,2.25,0.29,2.89,0.88c0.63,0.58,0.95,1.49,0.95,2.71v3.77c0,0.87-0.4,1.31-1.19,1.31c-0.8,0-1.21-0.44-1.21-1.31v-0.1
		c-0.17,0.44-0.46,0.79-0.86,1.05S429.21,378.79,428.63,378.79z M429.21,377.07c0.48,0,0.88-0.16,1.21-0.49
		c0.33-0.33,0.49-0.75,0.49-1.27v-0.34h-0.59c-0.87,0-1.49,0.08-1.85,0.23c-0.36,0.15-0.54,0.42-0.54,0.79
		c0,0.32,0.11,0.58,0.33,0.78C428.47,376.97,428.79,377.07,429.21,377.07z"/>
	<path class="st2" d="M438.29,378.79c-2.01,0-3.01-1.12-3.01-3.35v-7.67c0-0.87,0.43-1.31,1.29-1.31c0.85,0,1.27,0.44,1.27,1.31
		v7.57c0,0.46,0.1,0.81,0.3,1.03s0.46,0.33,0.79,0.33c0.09,0,0.18,0,0.26-0.02s0.17-0.02,0.25-0.02c0.18-0.01,0.31,0.05,0.38,0.17
		c0.07,0.12,0.11,0.38,0.11,0.76c0,0.66-0.28,1.03-0.83,1.12c-0.11,0.01-0.24,0.03-0.39,0.04
		C438.57,378.78,438.42,378.79,438.29,378.79z"/>
	<path class="st2" d="M443.95,378.79c-2.01,0-3.01-1.12-3.01-3.35v-7.67c0-0.87,0.43-1.31,1.29-1.31c0.85,0,1.27,0.44,1.27,1.31
		v7.57c0,0.46,0.1,0.81,0.3,1.03s0.46,0.33,0.79,0.33c0.09,0,0.18,0,0.26-0.02s0.17-0.02,0.25-0.02c0.18-0.01,0.31,0.05,0.38,0.17
		c0.07,0.12,0.11,0.38,0.11,0.76c0,0.66-0.28,1.03-0.83,1.12c-0.11,0.01-0.24,0.03-0.39,0.04
		C444.23,378.78,444.08,378.79,443.95,378.79z"/>
	<path class="st2" d="M450.94,378.79c-0.99,0-1.83-0.18-2.54-0.54c-0.71-0.36-1.25-0.86-1.63-1.51s-0.57-1.42-0.57-2.3
		c0-0.86,0.18-1.62,0.55-2.27c0.37-0.65,0.87-1.16,1.51-1.53c0.64-0.37,1.38-0.55,2.22-0.55c1.21,0,2.18,0.38,2.89,1.15
		c0.71,0.76,1.07,1.8,1.07,3.1c0,0.43-0.27,0.65-0.8,0.65h-5c0.09,0.66,0.33,1.14,0.72,1.44c0.39,0.3,0.93,0.45,1.62,0.45
		c0.27,0,0.58-0.03,0.93-0.09s0.68-0.17,0.99-0.33c0.33-0.16,0.61-0.19,0.83-0.09c0.23,0.1,0.38,0.26,0.47,0.49s0.08,0.46,0,0.71
		c-0.08,0.24-0.28,0.45-0.57,0.6c-0.4,0.22-0.84,0.38-1.32,0.48C451.84,378.74,451.38,378.79,450.94,378.79z M450.58,371.79
		c-0.54,0-0.98,0.17-1.32,0.49c-0.33,0.33-0.54,0.79-0.62,1.38h3.67C452.24,372.41,451.67,371.79,450.58,371.79z"/>
	<path class="st2" d="M463.92,378.79c-0.73,0-1.36-0.18-1.91-0.54c-0.55-0.36-0.98-0.86-1.28-1.51s-0.46-1.42-0.46-2.32
		s0.15-1.67,0.46-2.31c0.31-0.65,0.73-1.14,1.28-1.5c0.55-0.35,1.19-0.53,1.91-0.53c0.55,0,1.06,0.12,1.53,0.36s0.82,0.56,1.05,0.95
		v-3.62c0-0.87,0.42-1.31,1.27-1.31c0.86,0,1.29,0.44,1.29,1.31v9.67c0,0.87-0.42,1.31-1.27,1.31c-0.85,0-1.28-0.44-1.28-1.31v-0.05
		c-0.23,0.43-0.58,0.77-1.05,1.02C465.01,378.67,464.49,378.79,463.92,378.79z M464.69,376.87c0.54,0,0.99-0.2,1.33-0.59
		s0.52-1.01,0.52-1.85c0-0.83-0.17-1.44-0.52-1.83c-0.35-0.39-0.79-0.59-1.33-0.59s-0.99,0.2-1.33,0.59c-0.34,0.39-0.51,1-0.51,1.83
		c0,0.84,0.17,1.46,0.51,1.85S464.14,376.87,464.69,376.87z"/>
	<path class="st2" d="M475.38,378.79c-0.99,0-1.83-0.18-2.54-0.54c-0.71-0.36-1.25-0.86-1.63-1.51s-0.57-1.42-0.57-2.3
		c0-0.86,0.18-1.62,0.55-2.27c0.37-0.65,0.87-1.16,1.51-1.53c0.64-0.37,1.38-0.55,2.22-0.55c1.21,0,2.18,0.38,2.89,1.15
		c0.71,0.76,1.07,1.8,1.07,3.1c0,0.43-0.27,0.65-0.8,0.65h-5c0.09,0.66,0.33,1.14,0.72,1.44c0.39,0.3,0.93,0.45,1.62,0.45
		c0.27,0,0.58-0.03,0.93-0.09s0.68-0.17,0.99-0.33c0.33-0.16,0.61-0.19,0.83-0.09c0.23,0.1,0.38,0.26,0.47,0.49s0.08,0.46,0,0.71
		c-0.08,0.24-0.28,0.45-0.57,0.6c-0.4,0.22-0.84,0.38-1.32,0.48C476.29,378.74,475.82,378.79,475.38,378.79z M475.02,371.79
		c-0.54,0-0.98,0.17-1.32,0.49c-0.33,0.33-0.54,0.79-0.62,1.38h3.67C476.69,372.41,476.11,371.79,475.02,371.79z"/>
	<path class="st2" d="M488.13,378.79c-2.01,0-3.01-1.12-3.01-3.35v-7.67c0-0.87,0.43-1.31,1.29-1.31c0.85,0,1.27,0.44,1.27,1.31
		v7.57c0,0.46,0.1,0.81,0.3,1.03s0.46,0.33,0.79,0.33c0.09,0,0.18,0,0.26-0.02s0.17-0.02,0.25-0.02c0.18-0.01,0.31,0.05,0.38,0.17
		c0.07,0.12,0.11,0.38,0.11,0.76c0,0.66-0.28,1.03-0.83,1.12c-0.11,0.01-0.24,0.03-0.39,0.04
		C488.41,378.78,488.27,378.79,488.13,378.79z"/>
	<path class="st2" d="M493.6,378.79c-0.62,0-1.17-0.12-1.65-0.36c-0.48-0.24-0.85-0.56-1.13-0.97c-0.28-0.41-0.42-0.87-0.42-1.38
		c0-0.6,0.16-1.08,0.48-1.45s0.83-0.62,1.55-0.77s1.66-0.23,2.84-0.23h0.61v-0.29c0-0.5-0.11-0.85-0.34-1.06s-0.61-0.31-1.16-0.31
		c-0.31,0-0.64,0.04-1,0.11c-0.36,0.07-0.75,0.2-1.17,0.37c-0.32,0.14-0.58,0.14-0.8,0.03c-0.22-0.12-0.36-0.3-0.42-0.54
		c-0.07-0.24-0.05-0.49,0.06-0.74c0.11-0.25,0.32-0.43,0.64-0.54c0.53-0.2,1.03-0.35,1.5-0.43c0.47-0.08,0.9-0.13,1.3-0.13
		c1.29,0,2.25,0.29,2.89,0.88c0.63,0.58,0.95,1.49,0.95,2.71v3.77c0,0.87-0.4,1.31-1.19,1.31c-0.8,0-1.21-0.44-1.21-1.31v-0.1
		c-0.17,0.44-0.46,0.79-0.86,1.05S494.18,378.79,493.6,378.79z M494.18,377.07c0.48,0,0.88-0.16,1.21-0.49
		c0.33-0.33,0.49-0.75,0.49-1.27v-0.34h-0.59c-0.87,0-1.49,0.08-1.85,0.23c-0.36,0.15-0.54,0.42-0.54,0.79
		c0,0.32,0.11,0.58,0.33,0.78C493.44,376.97,493.76,377.07,494.18,377.07z"/>
	<path class="st2" d="M509.06,378.79c-0.91,0-1.7-0.18-2.37-0.54c-0.67-0.36-1.19-0.86-1.56-1.52c-0.36-0.66-0.54-1.43-0.54-2.33
		c0-0.89,0.18-1.67,0.54-2.31c0.36-0.65,0.88-1.14,1.56-1.49c0.67-0.35,1.46-0.52,2.37-0.52c0.35,0,0.73,0.04,1.13,0.13
		s0.79,0.23,1.16,0.43c0.28,0.14,0.46,0.33,0.53,0.57c0.07,0.24,0.05,0.48-0.04,0.72c-0.1,0.24-0.25,0.41-0.46,0.52
		s-0.46,0.09-0.74-0.06c-0.45-0.24-0.9-0.36-1.33-0.36c-0.67,0-1.19,0.21-1.56,0.62s-0.55,1-0.55,1.76c0,0.75,0.18,1.33,0.55,1.76
		c0.37,0.43,0.89,0.64,1.56,0.64c0.2,0,0.42-0.03,0.65-0.08s0.45-0.14,0.68-0.26c0.28-0.15,0.53-0.16,0.74-0.05s0.35,0.29,0.43,0.52
		s0.08,0.47,0.02,0.72c-0.07,0.25-0.24,0.44-0.51,0.58c-0.38,0.19-0.77,0.33-1.16,0.42C509.78,378.75,509.41,378.79,509.06,378.79z"
		/>
	<path class="st2" d="M517.13,378.79c-0.9,0-1.67-0.18-2.34-0.54c-0.66-0.36-1.18-0.86-1.54-1.51c-0.36-0.65-0.54-1.42-0.54-2.32
		c0-0.88,0.18-1.65,0.54-2.3c0.36-0.65,0.88-1.15,1.54-1.5c0.66-0.35,1.44-0.53,2.34-0.53s1.67,0.18,2.34,0.53
		c0.66,0.35,1.18,0.85,1.55,1.5c0.37,0.65,0.55,1.42,0.55,2.3c0,0.9-0.18,1.67-0.55,2.32c-0.37,0.65-0.88,1.16-1.55,1.51
		C518.81,378.61,518.03,378.79,517.13,378.79z M517.13,376.87c0.54,0,0.99-0.2,1.33-0.59s0.52-1.01,0.52-1.85
		c0-0.83-0.17-1.44-0.52-1.83c-0.35-0.39-0.79-0.59-1.33-0.59s-0.99,0.2-1.33,0.59c-0.34,0.39-0.51,1-0.51,1.83
		c0,0.84,0.17,1.46,0.51,1.85S516.59,376.87,517.13,376.87z"/>
	<path class="st2" d="M524.46,378.76c-0.86,0-1.29-0.44-1.29-1.31v-6.04c0-0.86,0.42-1.29,1.26-1.29c0.84,0,1.26,0.43,1.26,1.29
		v0.05c0.25-0.43,0.59-0.77,1.03-1.01s0.94-0.37,1.52-0.37c0.59,0,1.09,0.13,1.5,0.39c0.41,0.26,0.73,0.66,0.94,1.19
		c0.26-0.5,0.64-0.89,1.13-1.17c0.49-0.28,1.04-0.42,1.64-0.42c0.95,0,1.66,0.29,2.12,0.86s0.7,1.45,0.7,2.64v3.86
		c0,0.42-0.11,0.74-0.33,0.97c-0.22,0.23-0.54,0.34-0.94,0.34c-0.86,0-1.29-0.44-1.29-1.31v-3.77c0-0.56-0.09-0.96-0.26-1.22
		c-0.18-0.25-0.47-0.38-0.89-0.38c-0.49,0-0.87,0.17-1.14,0.51c-0.27,0.34-0.41,0.82-0.41,1.44v3.42c0,0.87-0.43,1.31-1.28,1.31
		c-0.41,0-0.73-0.11-0.95-0.34c-0.23-0.23-0.34-0.55-0.34-0.97v-3.77c0-0.56-0.09-0.96-0.27-1.22c-0.18-0.25-0.48-0.38-0.88-0.38
		c-0.49,0-0.87,0.17-1.14,0.51c-0.27,0.34-0.41,0.82-0.41,1.44v3.42C525.73,378.32,525.31,378.76,524.46,378.76z"/>
	<path class="st2" d="M539.54,381.82c-0.86,0-1.29-0.44-1.29-1.31v-9.1c0-0.86,0.42-1.29,1.26-1.29c0.85,0,1.27,0.43,1.27,1.29v0.05
		c0.24-0.42,0.59-0.75,1.05-1c0.46-0.25,0.99-0.37,1.56-0.37c0.73,0,1.36,0.18,1.91,0.53c0.55,0.35,0.98,0.85,1.28,1.5
		c0.31,0.65,0.46,1.42,0.46,2.31s-0.15,1.67-0.46,2.32s-0.73,1.16-1.28,1.51c-0.55,0.36-1.19,0.54-1.91,0.54
		c-0.55,0-1.06-0.12-1.52-0.36s-0.81-0.56-1.06-0.95v3.03C540.81,381.38,540.39,381.82,539.54,381.82z M542.63,376.87
		c0.54,0,0.99-0.2,1.33-0.59s0.51-1.01,0.51-1.85c0-0.83-0.17-1.44-0.51-1.83c-0.34-0.39-0.78-0.59-1.33-0.59
		c-0.56,0-1,0.2-1.34,0.59c-0.34,0.39-0.51,1-0.51,1.83c0,0.84,0.17,1.46,0.51,1.85S542.08,376.87,542.63,376.87z"/>
	<path class="st2" d="M549.94,378.76c-0.88,0-1.33-0.44-1.33-1.31v-6.04c0-0.86,0.42-1.29,1.26-1.29s1.26,0.43,1.26,1.29v0.31
		c0.41-1.01,1.25-1.55,2.53-1.63c0.28-0.02,0.5,0.05,0.65,0.21c0.15,0.17,0.24,0.43,0.25,0.81c0.02,0.35-0.05,0.63-0.21,0.83
		c-0.17,0.2-0.44,0.33-0.82,0.37l-0.39,0.03c-1.27,0.12-1.9,0.77-1.9,1.94v3.16C551.23,378.32,550.8,378.76,549.94,378.76z"/>
	<path class="st2" d="M558.44,378.79c-0.62,0-1.17-0.12-1.65-0.36c-0.48-0.24-0.85-0.56-1.13-0.97c-0.28-0.41-0.42-0.87-0.42-1.38
		c0-0.6,0.16-1.08,0.48-1.45s0.83-0.62,1.55-0.77s1.66-0.23,2.84-0.23h0.61v-0.29c0-0.5-0.11-0.85-0.34-1.06s-0.61-0.31-1.16-0.31
		c-0.31,0-0.64,0.04-1,0.11c-0.36,0.07-0.75,0.2-1.17,0.37c-0.32,0.14-0.58,0.14-0.8,0.03c-0.22-0.12-0.36-0.3-0.42-0.54
		c-0.07-0.24-0.05-0.49,0.06-0.74c0.11-0.25,0.32-0.43,0.64-0.54c0.53-0.2,1.03-0.35,1.5-0.43c0.47-0.08,0.9-0.13,1.3-0.13
		c1.29,0,2.25,0.29,2.89,0.88c0.63,0.58,0.95,1.49,0.95,2.71v3.77c0,0.87-0.4,1.31-1.19,1.31c-0.8,0-1.21-0.44-1.21-1.31v-0.1
		c-0.17,0.44-0.46,0.79-0.86,1.05S559.02,378.79,558.44,378.79z M559.02,377.07c0.48,0,0.88-0.16,1.21-0.49
		c0.33-0.33,0.49-0.75,0.49-1.27v-0.34h-0.59c-0.87,0-1.49,0.08-1.85,0.23c-0.36,0.15-0.54,0.42-0.54,0.79
		c0,0.32,0.11,0.58,0.33,0.78C558.28,376.97,558.6,377.07,559.02,377.07z"/>
</g>
</svg>
