<?xml version="1.0" encoding="utf-8"?>
<!-- Generator: Adobe Illustrator 23.0.5, SVG Export Plug-In . SVG Version: 6.00 Build 0)  -->
<svg version="1.1" id="Capa_1" xmlns="http://www.w3.org/2000/svg" xmlns:xlink="http://www.w3.org/1999/xlink" x="0px" y="0px"
	 viewBox="0 0 25.81 25.81" style="enable-background:new 0 0 25.81 25.81;" xml:space="preserve">
<style type="text/css">
	.st0{fill:#FFFFFF;}
	.st1{fill:#00AEBC;}
</style>
<g>
	<path id="XMLID_32_" class="st0" d="M25.81,12.91c0,7.13-5.78,12.91-12.91,12.91S0,20.03,0,12.91C0,5.78,5.78,0,12.91,0
		S25.81,5.78,25.81,12.91z"/>
	<path id="XMLID_27_" class="st1" d="M20.55,8.97c-0.56,0.25-1.17,0.41-1.8,0.49c0.65-0.38,1.14-0.99,1.38-1.71
		c-0.61,0.35-1.28,0.61-1.99,0.75c-0.57-0.6-1.39-0.98-2.29-0.98c-1.73,0-3.14,1.38-3.14,3.09c0,0.24,0.03,0.48,0.08,0.7
		c-2.61-0.13-4.92-1.36-6.46-3.23C6.06,8.54,5.9,9.07,5.9,9.64c0,1.07,0.56,2.02,1.4,2.57c-0.51-0.02-1-0.15-1.42-0.39
		c0,0.01,0,0.03,0,0.04c0,0.4,0.08,0.77,0.21,1.12c0.38,0.97,1.25,1.7,2.3,1.91C8.13,14.96,7.85,15,7.57,15
		c-0.2,0-0.4-0.02-0.59-0.06c0.4,1.23,1.56,2.12,2.93,2.14c-1.07,0.83-2.43,1.32-3.9,1.32c-0.25,0-0.5-0.01-0.75-0.04
		c1.39,0.88,3.04,1.39,4.81,1.39c4.9,0,7.92-3.4,8.71-6.92c0.14-0.62,0.21-1.25,0.21-1.86c0-0.13,0-0.27-0.01-0.4
		C19.6,10.13,20.13,9.59,20.55,8.97z"/>
</g>
</svg>
