<?xml version="1.0" encoding="utf-8"?>
<!-- Generator: Adobe Illustrator 23.0.5, SVG Export Plug-In . SVG Version: 6.00 Build 0)  -->
<svg version="1.1" id="Capa_1" xmlns="http://www.w3.org/2000/svg" xmlns:xlink="http://www.w3.org/1999/xlink" x="0px" y="0px"
	 viewBox="0 0 111.7 28.32" style="enable-background:new 0 0 111.7 28.32;" xml:space="preserve">
<style type="text/css">
	.st0{fill:#00AEBC;}
	.st1{fill:#FFFFFF;}
</style>
<g>
	<g>
		<path class="st0" d="M111.7,27.44c-0.78-9.79-0.39-17.04-0.39-26.84C100.73,0.21,12.71-0.53,0,0.6
			c3.13,4.7,10.19,8.81,14.49,12.73C10.19,18.82,3.53,21.56,0,27.44c10.58,1.96,100.73,0,111.31,0.39"/>
	</g>
	<g>
		<path class="st1" d="M34.56,9.59c0,0.96-0.15,2.24-0.46,3.85c-0.22,1.13-0.64,2.52-1.24,4.17c-0.81,2.15-1.5,3.22-2.08,3.22
			c-0.58,0-1.04-0.09-1.36-0.26c-0.71-0.38-1.33-1.89-1.86-4.52c-0.29-1.77-0.59-3.55-0.89-5.32c-0.02-0.13-0.08-0.31-0.16-0.54
			c-0.06-0.06-0.11-0.12-0.17-0.19c-0.05-0.07-0.08-0.16-0.08-0.26c0-0.23,0.15-0.44,0.44-0.63c0.26-0.17,0.51-0.26,0.77-0.26
			c0.29,0,0.55,0.11,0.79,0.32s0.35,0.47,0.35,0.76c0,0.21-0.01,0.53-0.04,0.96s-0.04,0.75-0.04,0.96c0,0.96,0.15,2.11,0.44,3.45
			c0.54,2.5,0.97,3.74,1.31,3.74c0.22,0,0.44-0.18,0.65-0.54c0.55-0.92,1.04-2.32,1.49-4.2c0.43-1.8,0.65-3.28,0.65-4.45
			c0-0.27-0.08-0.47-0.25-0.6c-0.17-0.13-0.25-0.21-0.25-0.24c0-0.13,0.15-0.3,0.44-0.51s0.51-0.32,0.65-0.32
			c0.25,0,0.46,0.17,0.65,0.5S34.56,9.32,34.56,9.59z"/>
		<path class="st1" d="M44.66,19.31c0,0.2-0.04,0.37-0.12,0.52c-0.1,0.2-0.25,0.29-0.42,0.29c-0.05,0-0.11-0.01-0.2-0.03
			c-0.09-0.02-0.15-0.03-0.2-0.03c-0.5,0-1.23,0.15-2.18,0.46s-1.68,0.46-2.18,0.46c-1.88,0-2.82-1.42-2.82-4.27
			c0-2.24,0.06-4.01,0.17-5.32c0.01-0.18,0.02-0.27,0.02-0.28c0-0.08-0.01-0.2-0.04-0.36c-0.02-0.16-0.04-0.27-0.04-0.34
			c0-0.54,0.29-0.85,0.88-0.95c0.9-0.16,1.8-0.33,2.7-0.51c1.18-0.22,2.06-0.33,2.64-0.33c0.34,0,0.64,0.06,0.89,0.18
			c0.35,0.16,0.52,0.39,0.52,0.68c0,0.43-0.29,0.65-0.86,0.65c-0.07,0-0.18-0.01-0.32-0.03c-0.15-0.02-0.25-0.03-0.32-0.03
			c-0.94,0-2.23,0.21-3.87,0.63c-0.09,0.01-0.18,0.03-0.26,0.05c-0.08,0.02-0.14,0.11-0.17,0.26c-0.13,0.56-0.19,1.66-0.19,3.29
			c0,0.25,0.11,0.37,0.33,0.37c0.3,0,0.74-0.08,1.31-0.23c0.57-0.15,1.01-0.23,1.31-0.23c0.34,0,0.73,0.11,1.17,0.32
			c0.12,0.37,0.17,0.6,0.17,0.68c0,0.29-0.09,0.45-0.26,0.47c-0.17,0.02-0.36,0.05-0.56,0.07c-0.09-0.06-0.22-0.09-0.38-0.09
			c-0.41,0-0.9,0.05-1.47,0.16c-0.48,0.1-0.96,0.2-1.45,0.3c-0.07,0.01-0.13,0.02-0.18,0.04s-0.09,0.08-0.11,0.21
			c-0.02,0.21-0.03,0.38-0.03,0.51c0,0.9,0.02,1.44,0.05,1.61c0.12,0.68,0.44,1.01,0.96,1.01c0.44,0,1.09-0.13,1.94-0.4
			c0.85-0.27,1.53-0.4,2.03-0.4C43.91,18.7,44.42,18.9,44.66,19.31z"/>
		<path class="st1" d="M56.45,20.31v0.09c-0.17,0.26-0.39,0.38-0.65,0.38c-0.2,0-0.37-0.09-0.51-0.26c-0.1-0.42-0.88-1.1-2.32-2.05
			c-1.44-0.95-2.39-1.42-2.86-1.42c-0.08,0-0.19,0-0.31,0c-0.16,0.01-0.27,0.02-0.33,0.02v0.68c0,0.23,0.03,0.54,0.09,0.93
			c0.06,0.47,0.12,0.75,0.19,0.86c0.21,0.28,0.31,0.46,0.31,0.53c0,0.21-0.08,0.38-0.25,0.52c-0.16,0.13-0.35,0.2-0.56,0.2
			c-0.44,0-0.79-0.16-1.03-0.47c-0.23-0.28-0.35-1.43-0.35-3.47c-0.25,0-0.5-0.08-0.77-0.23c-0.3-0.19-0.46-0.38-0.46-0.6
			c0-0.43,0.39-0.74,1.17-0.93c0.05-0.36,0.09-0.86,0.12-1.49c0.02-0.71,0.05-1.21,0.09-1.49c0.07-0.37,0.16-0.93,0.26-1.68h-0.14
			c-0.47,0.01-0.7-0.19-0.7-0.61c0-0.36,0.14-0.59,0.42-0.68c0.2-0.06,0.4-0.12,0.6-0.18c0.23-0.21,0.42-0.35,0.55-0.41
			s0.35-0.1,0.64-0.1c0.21,0,0.32,0.09,0.32,0.28c0,0.06,0.15,0.09,0.44,0.09c1.36,0,2.53,0.27,3.48,0.82
			c1.18,0.66,1.77,1.63,1.77,2.89c0,0.97-0.3,1.77-0.91,2.4c-0.41,0.43-1.13,0.92-2.17,1.45c0.83,0.52,1.65,1.05,2.47,1.58
			C56,18.68,56.46,19.46,56.45,20.31z M54.07,12.47c0-0.75-0.38-1.31-1.14-1.7c-0.61-0.31-1.32-0.47-2.14-0.47
			c-0.11,0-0.36,0.02-0.75,0.05c0.01,0.42-0.1,1.14-0.33,2.17c-0.13,0.62-0.22,1.52-0.26,2.71c0.68,0.23,1.1,0.35,1.26,0.35
			c0.14,0,0.35-0.04,0.62-0.12c0.77-0.23,1.41-0.59,1.9-1.07C53.79,13.85,54.07,13.21,54.07,12.47z"/>
		<path class="st1" d="M72.95,9.29c0,0.16-0.05,0.3-0.16,0.4c-0.17,0.2-0.27,0.3-0.28,0.31c-0.07,0.12-0.14,0.42-0.21,0.91
			c-0.29,2.38-0.44,4.73-0.44,7.05c0,1.31,0.23,2.04,0.7,2.21v0.47c-0.14,0.29-0.36,0.44-0.65,0.44c-0.59,0-1.04-0.52-1.35-1.56
			c-0.22-0.73-0.33-1.5-0.33-2.31c0-1.76,0.05-3.23,0.14-4.41c-0.35,1.37-0.7,2.74-1.06,4.11c-0.65,2.12-1.28,3.19-1.88,3.19
			c-0.69,0-1.29-0.62-1.82-1.87c-0.49-1.13-1.09-3.03-1.8-5.71c-0.07,0.79-0.1,1.6-0.1,2.43c0,1.71,0.04,2.96,0.13,3.73
			c0.01,0.14,0.08,0.37,0.19,0.67c0.12,0.31,0.18,0.55,0.18,0.73c0,0.38-0.32,0.58-0.96,0.58c-0.76,0-1.14-1.02-1.14-3.06
			c0-0.83,0.05-2.07,0.14-3.71c0.09-1.64,0.14-2.88,0.14-3.69c0-0.09-0.05-0.19-0.14-0.3c-0.09-0.1-0.14-0.2-0.14-0.3
			c0-0.65,0.58-0.98,1.75-0.98c0.27,0,0.59,0.17,0.96,0.51c0.03,0.36,0.09,0.91,0.17,1.64c0.12,1.03,0.39,2.39,0.82,4.08
			c0.57,2.18,1.07,3.27,1.49,3.27c0.09,0,0.22-0.18,0.37-0.54c0.29-0.7,0.58-1.69,0.86-2.96c0.21-1.01,0.42-2.03,0.63-3.04
			c0.09-0.48,0.26-1.17,0.51-2.07c0.25-0.66,0.76-1,1.54-1c0.28,0,0.62,0.06,1.02,0.19C72.71,8.87,72.95,9.07,72.95,9.29z"/>
		<path class="st1" d="M84.29,17.47c0,0.57-0.25,0.86-0.75,0.86c0.06,0.28,0.19,0.65,0.38,1.1c-0.01,0.26-0.12,0.47-0.31,0.64
			c-0.2,0.17-0.43,0.25-0.7,0.25c-0.21,0-0.46-0.07-0.74-0.21c-0.15-0.3-0.23-0.66-0.23-1.07c0-0.1,0.01-0.26,0.02-0.46
			s0.02-0.36,0.02-0.46c0,0.08-0.19,0.12-0.58,0.12c-0.67,0-1.44,0.03-2.31,0.09c-1.28,0.08-1.98,0.18-2.1,0.31
			c-0.12,0.12-0.19,0.75-0.23,1.9c-0.15,0.22-0.34,0.33-0.58,0.33c-0.25,0-0.5-0.1-0.75-0.31c-0.26-0.2-0.38-0.43-0.38-0.67
			c0-0.08,0.1-0.41,0.31-0.98c0.22-0.84,0.6-2.1,1.14-3.77c1.58-4.32,2.88-6.48,3.9-6.48c1.02,0,1.8,1.14,2.35,3.42
			c0.25,1.03,0.47,2.61,0.68,4.73c0.3,0.08,0.5,0.14,0.58,0.17C84.2,17.09,84.29,17.25,84.29,17.47z M81.84,16.79
			c-0.51-4.12-0.97-6.18-1.38-6.18c-0.33,0-0.9,0.98-1.71,2.93c-0.58,1.38-1.04,2.59-1.38,3.62c0.37-0.08,0.93-0.18,1.66-0.3
			C79.69,16.78,80.63,16.76,81.84,16.79z M81.83,6.82c-0.08,0.2-0.19,0.32-0.32,0.38c-0.13,0.05-0.57,0.31-1.31,0.76
			c-0.64,0.37-1.05,0.56-1.22,0.56c-0.16,0-0.24-0.1-0.23-0.3l0.02-0.14c0.3-0.39,0.67-0.78,1.08-1.17
			c0.57-0.55,0.99-0.82,1.24-0.82c0.15,0,0.31,0.08,0.46,0.25S81.8,6.66,81.83,6.82z"/>
		<path class="st1" d="M94.18,18.89c0,0.71-0.41,1.26-1.24,1.65c-0.65,0.32-1.38,0.47-2.19,0.47c-0.74,0-1.6-0.16-2.59-0.49
			c-1.23-0.42-1.84-0.91-1.84-1.47c0-0.21,0.08-0.39,0.23-0.54c0.15-0.15,0.33-0.23,0.54-0.23c0.32,0,0.61,0.13,0.88,0.38
			c0.46,0.38,0.7,0.6,0.74,0.63c0.41,0.23,1.14,0.35,2.21,0.35c0.95,0,1.42-0.22,1.42-0.65c0-0.36-0.44-0.86-1.33-1.5
			c-0.62-0.4-1.24-0.79-1.86-1.19c-0.79-0.54-1.37-1.04-1.73-1.52c-0.48-0.63-0.72-1.35-0.72-2.17c0-1.03,0.32-1.94,0.95-2.75
			c0.68-0.89,1.52-1.33,2.52-1.33c0.86,0,1.59,0.24,2.19,0.71c0.6,0.47,0.97,1.13,1.14,1.99c0.04,0.33,0.11,0.81,0.21,1.45
			c0.05,0.19,0.07,0.33,0.07,0.42c0,0.42-0.07,0.78-0.21,1.07c-0.17,0.4-0.45,0.59-0.82,0.59c-0.21,0-0.41-0.1-0.6-0.29
			c-0.19-0.19-0.29-0.4-0.29-0.61c0-0.15,0.04-0.38,0.1-0.68c0.07-0.3,0.11-0.52,0.11-0.68c0-1.58-0.53-2.37-1.58-2.37
			c-0.58,0-1.07,0.25-1.47,0.74c-0.4,0.5-0.6,1.04-0.6,1.64c0,0.84,0.5,1.66,1.51,2.45c0.92,0.62,1.85,1.24,2.78,1.86
			C93.69,17.55,94.18,18.24,94.18,18.89z"/>
	</g>
</g>
</svg>
